<?xml version="1.0" encoding="UTF-8" standalone="no"?>
<svg width="290px" height="244px" viewBox="0 0 290 244" version="1.1" xmlns="http://www.w3.org/2000/svg" xmlns:xlink="http://www.w3.org/1999/xlink">
    <!-- Generator: Sketch 42 (36781) - http://www.bohemiancoding.com/sketch -->
    <title>art</title>
    <desc>Created with Sketch.</desc>
    <defs>
        <rect id="path-1" x="0" y="0" width="290" height="244"></rect>
        <mask id="mask-2" maskContentUnits="userSpaceOnUse" maskUnits="objectBoundingBox" x="0" y="0" width="290" height="244" fill="white">
            <use xlink:href="#path-1"></use>
        </mask>
    </defs>
    <g id="Welcome" stroke="none" stroke-width="1" fill="none" fill-rule="evenodd">
        <g id="Desktop" transform="translate(-637.000000, -524.000000)">
            <g id="art" transform="translate(637.000000, 524.000000)">
                <use id="Rectangle-2" stroke="#B48888" mask="url(#mask-2)" stroke-width="20" fill="#FFFFFF" xlink:href="#path-1"></use>
                <rect id="Rectangle-3" fill="#EEFF51" x="42.6198083" y="37.4744027" width="211.246006" height="174.047782"></rect>
                <path d="M122.502724,121.684392 C122.502724,123.630126 122.44365,125.57586 122.339347,127.494868 C132.504878,130.124557 148.243525,107.638066 187.575568,91.1140584 C196.948524,87.176333 236.325255,85.1915197 240.61945,85.8054532 C244.913646,86.4193868 241.532739,90.0511531 240.61945,91.1140584 C237.188683,95.1068591 198.553547,89.5317698 175.420914,112.305108 C152.288281,135.078446 125.806904,165.720137 101.62011,165.720137 C92.0579247,165.720137 76.5912115,161.349772 71.1698707,153.40009 C71.1698707,153.40009 69.2237138,148.688344 69.2174348,147.4523 C68.1662885,141.545268 66.7997454,131.901155 66.7997454,121.684392 C66.7997454,105.082555 71.3346162,88.4807177 71.3346162,88.4807177 C71.9776788,85.1251278 82.2214457,82.443686 94.7682831,82.443686 C107.315929,82.443686 117.560208,85.1254735 118.172946,88.4962653 C118.20195,88.4807177 122.502724,105.082555 122.502724,121.684392 Z" id="Combined-Shape" fill="#432C22"></path>
            </g>
        </g>
    </g>
</svg>