<?xml version="1.0" encoding="UTF-8" standalone="no"?>
<svg width="190px" height="67px" viewBox="0 0 190 67" version="1.1" xmlns="http://www.w3.org/2000/svg" xmlns:xlink="http://www.w3.org/1999/xlink">
    <defs></defs>
    <g id="Welcome" stroke="none" stroke-width="1" fill="none" fill-rule="evenodd">
        <g id="Artboard" transform="translate(-1369.000000, -1327.000000)" fill="#F44336">
            <path d="M1501.48323,1364.79189 C1500.9502,1365.12423 1500.66673,1365.28474 1500.63281,1365.27344 C1500.60156,1365.25781 1500.24219,1365.51562 1499.55469,1366.04688 C1499.41406,1366.1875 1499.08594,1366.35156 1498.57031,1366.53906 C1498.22656,1366.67969 1497.96094,1366.75 1497.77344,1366.75 C1497.25781,1366.75 1496.87891,1366.4375 1496.63672,1365.8125 C1496.39453,1365.1875 1496.27344,1364.39063 1496.27344,1363.42188 C1496.27344,1362.84375 1496.30859,1362.21094 1496.37891,1361.52344 C1496.44922,1360.83593 1496.53906,1360.14063 1496.64844,1359.4375 C1496.75781,1358.73437 1496.87891,1357.9375 1497.01172,1357.04688 C1497.14453,1356.15625 1497.26562,1355.42969 1497.375,1354.86719 C1497.48438,1354.30468 1497.57422,1353.82031 1497.64453,1353.41406 C1497.71484,1353.00781 1497.75,1352.71875 1497.75,1352.54688 C1497.75,1351.39062 1497.51953,1350.48438 1497.05859,1349.82812 C1496.59765,1349.17187 1495.97657,1348.84375 1495.19531,1348.84375 C1494.41406,1348.84375 1493.70313,1349 1493.0625,1349.3125 C1492.42187,1349.625 1491.85156,1350.20312 1491.35156,1351.04688 C1491.24219,1351.23438 1491.07813,1351.52344 1490.85938,1351.91406 C1490.64062,1352.30469 1490.39844,1352.7539 1490.13281,1353.26172 C1489.86719,1353.76953 1489.58203,1354.30078 1489.27734,1354.85547 C1488.97265,1355.41016 1488.6875,1356.04687 1488.42188,1356.76562 C1488.15625,1357.48438 1487.92188,1358.03515 1487.71875,1358.41797 C1487.51562,1358.80078 1487.36719,1359.07812 1487.27344,1359.25 L1486.80469,1359.25 C1486.80469,1359.14062 1486.82812,1358.92578 1486.875,1358.60547 C1486.92188,1358.28515 1486.98047,1357.80078 1487.05078,1357.15234 C1487.12109,1356.5039 1487.19531,1355.92578 1487.27344,1355.41797 C1487.35156,1354.91015 1487.42578,1354.41797 1487.49609,1353.94141 C1487.56641,1353.46484 1487.625,1353.02735 1487.67188,1352.62891 C1487.71875,1352.23047 1487.74219,1351.91406 1487.74219,1351.67969 C1487.74219,1350.82031 1487.57813,1350.13282 1487.25,1349.61719 C1486.92187,1349.10156 1486.33594,1348.84375 1485.49219,1348.84375 C1484.64843,1348.84375 1483.98047,1349.08594 1483.48828,1349.57031 C1482.99609,1350.05469 1482.66406,1350.65625 1482.49219,1351.375 C1482.27344,1352.29688 1482.04688,1353.40624 1481.8125,1354.70312 C1481.57812,1356.00001 1481.36719,1357.45702 1481.17969,1359.07422 C1480.99432,1360.673 1480.8395,1362.14195 1480.71522,1363.48112 C1480.60663,1363.57612 1480.49583,1363.67357 1480.38281,1363.77344 C1479.71093,1364.36719 1479.02344,1364.9414 1478.32031,1365.49609 C1477.61718,1366.05078 1476.92188,1366.52344 1476.23438,1366.91406 C1475.54687,1367.30469 1474.92188,1367.5 1474.35938,1367.5 C1473.875,1367.5 1473.55469,1367.29297 1473.39844,1366.87891 C1473.24219,1366.46484 1473.16406,1365.90625 1473.16406,1365.20312 C1473.16406,1364.48437 1473.24219,1363.67579 1473.39844,1362.77734 C1473.55469,1361.8789 1473.75,1360.95704 1473.98438,1360.01172 C1474.21875,1359.0664 1474.51562,1358.01954 1474.875,1356.87109 C1475.23438,1355.72265 1475.53125,1354.73829 1475.76562,1353.91797 C1476,1353.09765 1476.19531,1352.36328 1476.35156,1351.71484 C1476.50781,1351.0664 1476.58594,1350.57031 1476.58594,1350.22656 C1476.58594,1349.82031 1476.46875,1349.49609 1476.23438,1349.25391 C1476,1349.01172 1475.55469,1348.89062 1474.89844,1348.89062 C1474.53906,1348.89062 1474.13672,1348.93359 1473.69141,1349.01953 C1473.24609,1349.10547 1472.81641,1349.23828 1472.40234,1349.41797 C1471.98828,1349.59766 1471.61719,1349.82812 1471.28906,1350.10938 C1470.92969,1350.42188 1470.71094,1350.77344 1470.63281,1351.16406 C1470.50781,1351.75782 1470.17969,1353.03905 1469.64844,1355.00781 C1468.99218,1357.3672 1468.55469,1358.89062 1468.33594,1359.57812 C1468.23374,1359.83362 1468.02711,1360.83061 1467.71603,1362.56914 L1467.71603,1362.56914 C1467.02558,1363.13636 1466.35721,1363.65498 1465.71094,1364.125 C1465.33594,1364.39063 1464.94922,1364.65234 1464.55078,1364.91016 C1464.15234,1365.16797 1463.75781,1365.39844 1463.36719,1365.60156 C1462.97656,1365.80469 1462.60547,1365.96484 1462.25391,1366.08203 C1461.90234,1366.19922 1461.57813,1366.25781 1461.28125,1366.25781 C1460.96875,1366.25781 1460.70703,1366.16406 1460.49609,1365.97656 C1460.28516,1365.78906 1460.11719,1365.53516 1459.99219,1365.21484 C1459.86719,1364.89453 1459.77734,1364.53125 1459.72266,1364.125 C1459.66797,1363.71875 1459.64062,1363.28906 1459.64062,1362.83594 C1459.64062,1362.47656 1459.66406,1362.10547 1459.71094,1361.72266 C1459.75781,1361.33984 1459.81641,1360.96485 1459.88672,1360.59766 C1459.95703,1360.23047 1460.03125,1359.89063 1460.10938,1359.57812 C1460.1875,1359.26562 1460.26562,1359 1460.34375,1358.78125 C1460.70313,1357.78124 1461.53906,1355.88283 1462.85156,1353.08594 C1463.71094,1351.2578 1464.50781,1349.41407 1465.24219,1347.55469 C1465.97657,1345.6953 1466.61718,1343.78517 1467.16406,1341.82422 C1467.71094,1339.86327 1468.08594,1337.78126 1468.28906,1335.57812 C1468.33594,1335 1468.35938,1334.4375 1468.35938,1333.89062 C1468.35938,1333 1468.28906,1332.13672 1468.14844,1331.30078 C1468.00781,1330.46484 1467.77735,1329.73047 1467.45703,1329.09766 C1467.13672,1328.46484 1466.71875,1327.95703 1466.20312,1327.57422 C1465.6875,1327.1914 1465.0625,1327 1464.32812,1327 C1463.32812,1327 1462.35938,1327.30859 1461.42188,1327.92578 C1460.48437,1328.54297 1459.60157,1329.39843 1458.77344,1330.49219 C1457.94531,1331.58594 1457.1836,1332.8828 1456.48828,1334.38281 C1455.79297,1335.88282 1455.1875,1337.51562 1454.67188,1339.28125 C1454.15625,1341.04688 1453.74219,1342.71093 1453.42969,1344.27344 C1453.11719,1345.83595 1452.9375,1347.61718 1452.89062,1349.61719 C1451.70312,1349.72656 1450.58594,1350 1449.53906,1350.4375 C1448.49218,1350.875 1447.47266,1351.52343 1446.48047,1352.38281 C1445.48828,1353.24219 1444.69141,1354.19531 1444.08984,1355.24219 C1443.48828,1356.28907 1442.94141,1357.29296 1442.44922,1358.25391 C1441.95703,1359.21485 1441.58203,1360.20703 1441.32422,1361.23047 C1441.09033,1362.15895 1440.96253,1363.07778 1440.94083,1363.98697 C1440.63247,1364.32051 1440.30715,1364.64386 1439.96484,1364.95703 C1439.59765,1365.29297 1439.23047,1365.59375 1438.86328,1365.85938 C1438.49609,1366.125 1438.13281,1366.33984 1437.77344,1366.50391 C1437.41406,1366.66797 1437.07031,1366.75 1436.74219,1366.75 C1436.30469,1366.75 1436.01953,1366.54297 1435.88672,1366.12891 C1435.75391,1365.71484 1435.6875,1365.14063 1435.6875,1364.40625 C1435.6875,1363.54687 1435.82031,1362.50782 1436.08594,1361.28906 C1436.35156,1360.07031 1436.57812,1358.98047 1436.76562,1358.01953 C1436.95313,1357.05859 1437.125,1356.1211 1437.28125,1355.20703 C1437.4375,1354.29296 1437.51562,1353.46094 1437.51562,1352.71094 C1437.51562,1352.22656 1437.47266,1351.84375 1437.38672,1351.5625 C1437.30078,1351.28125 1437.17969,1351.0625 1437.02344,1350.90625 C1436.86719,1350.75 1436.6875,1350.64844 1436.48438,1350.60156 C1436.28125,1350.55469 1436.0625,1350.53125 1435.82812,1350.53125 C1435.65625,1350.53125 1435.48047,1350.53516 1435.30078,1350.54297 C1435.12109,1350.55078 1434.94531,1350.55469 1434.77344,1350.55469 C1434.57031,1350.55469 1434.37109,1350.54297 1434.17578,1350.51953 C1433.98047,1350.49609 1433.78906,1350.44531 1433.60156,1350.36719 C1433.41406,1350.28906 1433.25781,1350.16406 1433.13281,1349.99219 C1433.00781,1349.82031 1432.87891,1349.64453 1432.74609,1349.46484 C1432.61328,1349.28516 1432.44531,1349.125 1432.24219,1348.98438 C1432.03906,1348.84375 1431.75781,1348.77344 1431.39844,1348.77344 C1430.32031,1348.77344 1429.26172,1349.0039 1428.22266,1349.46484 C1427.18359,1349.92578 1426.19532,1350.54687 1425.25781,1351.32812 C1424.32031,1352.10938 1423.45704,1353.02343 1422.66797,1354.07031 C1422.27407,1354.59291 1421.89283,1355.16418 1421.52424,1355.78412 L1421.52424,1355.78412 C1421.16547,1355.34608 1420.79672,1354.89981 1420.41797,1354.44531 C1419.4414,1353.27343 1418.38672,1352.30079 1417.25391,1351.52734 C1416.12109,1350.7539 1414.90626,1350.13672 1413.60938,1349.67578 C1412.31249,1349.21484 1410.92188,1348.98438 1409.4375,1348.98438 C1407.70312,1348.98438 1406.14063,1349.30078 1404.75,1349.93359 C1403.35937,1350.56641 1402.1836,1351.43359 1401.22266,1352.53516 C1400.26171,1353.63672 1399.52344,1354.93359 1399.00781,1356.42578 C1398.49218,1357.91798 1398.23438,1359.6953 1398.23438,1361.75781 C1398.23438,1363.00782 1398.3789,1364.24218 1398.66797,1365.46094 C1398.95703,1366.67969 1399.41406,1367.77343 1400.03906,1368.74219 C1400.66407,1369.71094 1401.46484,1370.49609 1402.44141,1371.09766 C1403.41797,1371.69922 1404.59374,1372 1405.96875,1372 C1406.92188,1372 1407.82031,1371.83594 1408.66406,1371.50781 C1409.50782,1371.17969 1410.28515,1370.73438 1410.99609,1370.17188 C1411.70703,1369.60937 1412.33984,1368.94532 1412.89453,1368.17969 C1413.44922,1367.41406 1413.91797,1366.59375 1414.30078,1365.71875 C1414.6836,1364.84375 1414.97656,1363.9375 1415.17969,1363 C1415.38281,1362.0625 1415.48438,1361.13282 1415.48438,1360.21094 C1415.48438,1358.94531 1415.37109,1357.8086 1415.14453,1356.80078 C1414.91797,1355.79296 1414.57813,1354.83594 1414.125,1353.92969 L1414.3125,1353.67188 C1414.875,1354.04688 1415.54687,1354.51172 1416.32812,1355.06641 C1417.10938,1355.6211 1417.90234,1356.29687 1418.70703,1357.09375 C1419.19984,1357.58177 1419.67652,1358.04342 1420.1371,1358.47869 C1419.60781,1359.65904 1419.20534,1360.7677 1418.92969,1361.80469 C1418.60156,1363.03907 1418.4375,1364.24218 1418.4375,1365.41406 C1418.4375,1366.44532 1418.60156,1367.37109 1418.92969,1368.19141 C1419.25781,1369.01172 1419.69531,1369.70703 1420.24219,1370.27734 C1420.78907,1370.84766 1421.41797,1371.28515 1422.12891,1371.58984 C1422.83985,1371.89453 1423.57031,1372.04688 1424.32031,1372.04688 C1425.02344,1372.04688 1425.72656,1371.92969 1426.42969,1371.69531 C1427.13282,1371.46094 1427.80859,1371.16016 1428.45703,1370.79297 C1429.10547,1370.42578 1429.70312,1370.01563 1430.25,1369.5625 C1430.79688,1369.10937 1431.25781,1368.66406 1431.63281,1368.22656 C1432.13281,1369.49219 1432.72656,1370.45703 1433.41406,1371.12109 C1434.10157,1371.78516 1434.96093,1372.11719 1435.99219,1372.11719 C1436.85157,1372.11719 1437.71093,1371.90625 1438.57031,1371.48438 C1439.42969,1371.0625 1440.23437,1370.54688 1440.98438,1369.9375 C1441.35548,1369.63598 1441.7084,1369.32681 1442.04316,1369.00999 L1442.04316,1369.00999 C1442.15441,1369.21251 1442.27413,1369.40839 1442.40234,1369.59766 C1442.89453,1370.32422 1443.51172,1370.90625 1444.25391,1371.34375 C1444.9961,1371.78125 1445.87499,1372 1446.89062,1372 C1447.60938,1372 1448.32422,1371.88672 1449.03516,1371.66016 C1449.7461,1371.43359 1450.44922,1371.13281 1451.14453,1370.75781 C1451.83985,1370.38281 1452.51172,1369.94141 1453.16016,1369.43359 C1453.8086,1368.92578 1454.42187,1368.39063 1455,1367.82812 C1455.375,1368.73438 1455.8164,1369.46093 1456.32422,1370.00781 C1456.83203,1370.55469 1457.33984,1370.97265 1457.84766,1371.26172 C1458.35547,1371.55078 1458.82422,1371.74219 1459.25391,1371.83594 C1459.6836,1371.92969 1460.00781,1371.97656 1460.22656,1371.97656 C1460.61719,1371.97656 1461.04297,1371.91016 1461.50391,1371.77734 C1461.96485,1371.64453 1462.4375,1371.47266 1462.92188,1371.26172 C1463.40625,1371.05078 1463.89844,1370.8086 1464.39844,1370.53516 C1464.89844,1370.26172 1465.375,1369.98438 1465.82812,1369.70312 C1466.31044,1369.40255 1466.79589,1369.08321 1467.28446,1368.74511 C1467.31335,1368.9084 1467.34743,1369.06758 1467.38672,1369.22266 C1467.53516,1369.8086 1467.78125,1370.30469 1468.125,1370.71094 C1468.46875,1371.11719 1468.91797,1371.43359 1469.47266,1371.66016 C1470.02735,1371.88672 1470.71093,1372 1471.52344,1372 C1472.42969,1372 1473.38671,1371.83594 1474.39453,1371.50781 C1475.40235,1371.17969 1476.39062,1370.76953 1477.35938,1370.27734 C1478.32813,1369.78515 1479.23046,1369.2461 1480.06641,1368.66016 C1480.2396,1368.53876 1480.40692,1368.41887 1480.56838,1368.3005 L1480.56838,1368.3005 C1480.58431,1368.50867 1480.60449,1368.7145 1480.62891,1368.91797 C1480.69922,1369.50391 1480.83984,1370.02734 1481.05078,1370.48828 C1481.26172,1370.94922 1481.5625,1371.3164 1481.95312,1371.58984 C1482.34375,1371.86328 1482.85937,1372 1483.5,1372 C1484.01563,1372 1484.46875,1371.88281 1484.85938,1371.64844 C1485.23438,1371.42969 1485.58594,1370.99219 1485.91406,1370.33594 L1492.05469,1358.14844 L1492.42969,1358.14844 C1492.24219,1359.39844 1492.08594,1360.5664 1491.96094,1361.65234 C1491.83594,1362.73829 1491.77344,1363.75 1491.77344,1364.6875 C1491.77344,1367.07814 1492.0664,1368.89453 1492.65234,1370.13672 C1493.23828,1371.37891 1493.96093,1372 1494.82031,1372 C1495.67969,1372 1496.5,1371.875 1497.28125,1371.625 C1497.57813,1371.54687 1498.33593,1371.23438 1499.55469,1370.6875 C1500.00352,1370.49114 1501.05038,1369.95484 1502.69529,1369.0786 C1503.16902,1369.79407 1503.77449,1370.41631 1504.51172,1370.94531 C1505.53516,1371.67969 1506.65624,1372.04688 1507.875,1372.04688 C1509.53126,1372.04688 1511.23437,1371.21095 1512.98438,1369.53906 L1512.51563,1372.35156 C1511.53125,1373.21094 1510.6836,1374.01172 1509.97266,1374.75391 C1509.26172,1375.4961 1508.35938,1376.48437 1507.26563,1377.71875 C1506.73437,1378.3125 1506.21485,1378.98047 1505.70703,1379.72266 C1505.19922,1380.46485 1504.83203,1381.03906 1504.60547,1381.44531 C1504.37891,1381.85156 1503.96875,1382.57031 1503.375,1383.60156 C1502.34374,1385.44532 1501.89062,1387.18749 1502.01563,1388.82812 C1502.09375,1389.70313 1502.30859,1390.46875 1502.66016,1391.125 C1503.01172,1391.78125 1503.47265,1392.29297 1504.04297,1392.66016 C1504.61328,1393.02735 1505.23437,1393.30078 1505.90625,1393.48047 C1506.57813,1393.66016 1507.3125,1393.75 1508.10938,1393.75 C1509.09375,1393.75 1510,1393.59375 1510.82813,1393.28125 C1511.65625,1392.96875 1512.36718,1392.5625 1512.96094,1392.0625 C1513.55469,1391.5625 1514.08984,1390.94922 1514.56641,1390.22266 C1515.04297,1389.49609 1515.42969,1388.76953 1515.72656,1388.04297 C1516.02344,1387.3164 1516.28516,1386.51954 1516.51172,1385.65234 C1516.73828,1384.78515 1516.90625,1384.01172 1517.01563,1383.33203 C1517.125,1382.65234 1517.21094,1381.94532 1517.27344,1381.21094 C1517.30469,1380.89844 1517.35156,1380.45313 1517.41406,1379.875 C1517.60156,1377.85936 1517.77344,1376.48438 1517.92969,1375.75 C1518.08594,1375.01562 1518.375,1374.50781 1518.79688,1374.22656 C1519.46875,1373.77344 1520.55468,1373.0625 1522.05469,1372.09375 C1522.13281,1372.04687 1522.24219,1371.97656 1522.38281,1371.88281 C1523.16407,1371.27343 1524.11718,1370.40626 1525.24219,1369.28125 C1526.35157,1368.14062 1527.125,1367.13282 1527.5625,1366.25781 L1526.03906,1361.05469 C1523.71093,1364.83596 1521.62501,1367.42187 1519.78125,1368.8125 C1519.26562,1369.20313 1518.78125,1369.53125 1518.32813,1369.79688 C1518.5625,1367.34374 1518.73437,1365.35157 1518.84375,1363.82031 C1518.95313,1362.28905 1519.18359,1360.89844 1519.53516,1359.64844 C1519.88672,1358.39843 1520.08594,1357.35157 1520.13281,1356.50781 C1520.27344,1353.78905 1520.25,1352.1875 1520.0625,1351.70312 C1519.95312,1351.42187 1519.85156,1351.19531 1519.75781,1351.02344 C1519.49219,1350.60156 1519.00782,1350.39062 1518.30469,1350.39062 L1517.27344,1350.41406 C1517.07031,1350.41406 1516.89063,1350.40625 1516.73438,1350.39062 C1516.57812,1350.375 1516.4375,1350.34375 1516.3125,1350.29688 C1516.1875,1350.25 1516.08594,1350.21484 1516.00781,1350.19141 C1515.92969,1350.16797 1515.84375,1350.10938 1515.75,1350.01562 C1515.65625,1349.92187 1515.58984,1349.85938 1515.55078,1349.82812 C1515.51172,1349.79687 1515.44531,1349.71484 1515.35156,1349.58203 C1515.25781,1349.44922 1515.1875,1349.35938 1515.14063,1349.3125 C1514.76562,1348.85937 1514.17188,1348.63281 1513.35938,1348.63281 C1511.56249,1348.63281 1509.71095,1349.48437 1507.80469,1351.1875 C1506.49218,1352.35938 1505.42188,1353.73827 1504.59375,1355.32422 C1503.76562,1356.91016 1502.94532,1358.92186 1502.13281,1361.35938 C1501.71799,1362.57474 1501.50146,1363.71891 1501.48323,1364.79189 L1501.48323,1364.79189 Z M1370.34375,1364.33594 C1370.54688,1364.19531 1370.89062,1363.96485 1371.375,1363.64453 C1371.85938,1363.32422 1372.42968,1362.94531 1373.08594,1362.50781 C1373.74219,1362.07031 1374.44921,1361.58985 1375.20703,1361.06641 C1375.96485,1360.54297 1376.71093,1360.01563 1377.44531,1359.48438 L1377.63281,1357.89062 C1377.97656,1354.60936 1378.53125,1351.59767 1379.29688,1348.85547 C1380.0625,1346.11327 1380.96484,1343.63673 1382.00391,1341.42578 C1383.04297,1339.21483 1384.17578,1337.28126 1385.40234,1335.625 C1386.62891,1333.96874 1387.8789,1332.58204 1389.15234,1331.46484 C1390.42579,1330.34765 1391.68359,1329.51172 1392.92578,1328.95703 C1394.16797,1328.40234 1395.32812,1328.125 1396.40625,1328.125 C1397.1875,1328.125 1397.90625,1328.27344 1398.5625,1328.57031 C1399.21875,1328.86719 1399.78125,1329.3125 1400.25,1329.90625 C1400.71875,1330.5 1401.08594,1331.24218 1401.35156,1332.13281 C1401.61719,1333.02344 1401.75,1334.06249 1401.75,1335.25 C1401.75,1336.70313 1401.53125,1338.22655 1401.09375,1339.82031 C1400.65625,1341.41407 1400.03516,1343.02343 1399.23047,1344.64844 C1398.42578,1346.27345 1397.46094,1347.89452 1396.33594,1349.51172 C1395.21093,1351.12891 1393.96485,1352.68749 1392.59766,1354.1875 C1391.23046,1355.68751 1389.75391,1357.10546 1388.16797,1358.44141 C1386.58202,1359.77735 1384.93751,1360.96874 1383.23438,1362.01562 C1383.23438,1362.96875 1383.20313,1364.10937 1383.14062,1365.4375 C1383.125,1366 1383.11328,1366.42578 1383.10547,1366.71484 C1383.09766,1367.00391 1383.09375,1367.20312 1383.09375,1367.3125 L1383.09375,1367.57031 C1383.09375,1367.71094 1383.12109,1367.83984 1383.17578,1367.95703 C1383.23047,1368.07422 1383.33984,1368.16797 1383.50391,1368.23828 C1383.66797,1368.30859 1383.89062,1368.36328 1384.17188,1368.40234 C1384.45313,1368.44141 1384.82812,1368.46094 1385.29688,1368.46094 C1385.98438,1368.46094 1386.92968,1368.28906 1388.13281,1367.94531 L1395.98438,1365.69531 C1396.07813,1365.66406 1396.20312,1365.64063 1396.35938,1365.625 C1396.48438,1365.60937 1396.60156,1365.60156 1396.71094,1365.60156 C1397.10156,1365.60156 1397.4375,1365.67578 1397.71875,1365.82422 C1398,1365.97266 1398.23437,1366.17187 1398.42188,1366.42188 C1398.60938,1366.67188 1398.75,1366.96094 1398.84375,1367.28906 C1398.9375,1367.61719 1398.98438,1367.95312 1398.98438,1368.29688 C1398.98438,1368.60938 1398.9375,1368.91406 1398.84375,1369.21094 C1398.75,1369.50781 1398.60938,1369.78515 1398.42188,1370.04297 C1398.23437,1370.30078 1398,1370.52344 1397.71875,1370.71094 C1397.4375,1370.89844 1397.10938,1371.02344 1396.73438,1371.08594 C1395.20312,1371.69532 1393.64063,1372.24219 1392.04688,1372.72656 C1391.35937,1372.92969 1390.63672,1373.12891 1389.87891,1373.32422 C1389.12109,1373.51953 1388.34766,1373.69141 1387.55859,1373.83984 C1386.76953,1373.98828 1385.97266,1374.10937 1385.16797,1374.20312 C1384.36328,1374.29688 1383.58594,1374.34375 1382.83594,1374.34375 C1381.67968,1374.34375 1380.73047,1374.14453 1379.98828,1373.74609 C1379.24609,1373.34765 1378.66016,1372.8086 1378.23047,1372.12891 C1377.80078,1371.44922 1377.5,1370.46876 1377.32812,1369.1875 C1377.15625,1367.90624 1377.07031,1366.76563 1377.07031,1365.76562 C1375.72656,1366.75 1374.58594,1367.53125 1373.64844,1368.10938 C1372.71093,1368.6875 1372.10938,1368.97656 1371.84375,1368.97656 C1371.57812,1368.97656 1371.32422,1368.88672 1371.08203,1368.70703 C1370.83984,1368.52734 1370.61719,1368.28906 1370.41406,1367.99219 C1370.21094,1367.69531 1370.05078,1367.36328 1369.93359,1366.99609 C1369.81641,1366.6289 1369.75781,1366.26563 1369.75781,1365.90625 C1369.75781,1365.60937 1369.79297,1365.31641 1369.86328,1365.02734 C1369.93359,1364.73828 1370.09375,1364.50781 1370.34375,1364.33594 Z M1383.65625,1356.10938 C1384.45313,1355.28125 1385.28515,1354.37891 1386.15234,1353.40234 C1387.01954,1352.42578 1387.8789,1351.40235 1388.73047,1350.33203 C1389.58204,1349.26171 1390.40234,1348.16797 1391.19141,1347.05078 C1391.98047,1345.93359 1392.6914,1344.82032 1393.32422,1343.71094 C1393.95703,1342.60156 1394.48828,1341.52344 1394.91797,1340.47656 C1395.34766,1339.42968 1395.625,1338.4375 1395.75,1337.5 C1395.79688,1337.1875 1395.82812,1336.88672 1395.84375,1336.59766 C1395.85938,1336.30859 1395.86719,1336.03906 1395.86719,1335.78906 C1395.86719,1334.89843 1395.74609,1334.25 1395.50391,1333.84375 C1395.26172,1333.4375 1394.92969,1333.23438 1394.50781,1333.23438 C1394.00781,1333.23438 1393.42188,1333.49609 1392.75,1334.01953 C1392.07812,1334.54297 1391.375,1335.28906 1390.64062,1336.25781 C1389.90625,1337.22657 1389.16407,1338.39843 1388.41406,1339.77344 C1387.66406,1341.14844 1386.96875,1342.67968 1386.32812,1344.36719 C1385.6875,1346.0547 1385.12891,1347.89062 1384.65234,1349.875 C1384.17578,1351.85938 1383.84375,1353.93749 1383.65625,1356.10938 Z M1406.88281,1367.5 C1407.41407,1367.5 1407.92969,1367.23047 1408.42969,1366.69141 C1408.92969,1366.15234 1409.36719,1365.47266 1409.74219,1364.65234 C1410.11719,1363.83203 1410.41797,1362.83985 1410.64453,1361.67578 C1410.87109,1360.51171 1410.98438,1359.47657 1410.98438,1358.57031 C1410.98438,1357.85156 1410.92969,1357.1836 1410.82031,1356.56641 C1410.71094,1355.94922 1410.54688,1355.41406 1410.32812,1354.96094 C1410.10937,1354.50781 1409.82813,1354.14844 1409.48438,1353.88281 C1409.14062,1353.61719 1408.72656,1353.48438 1408.24219,1353.48438 C1407.60156,1353.48438 1406.99219,1353.75781 1406.41406,1354.30469 C1405.83593,1354.85157 1405.32813,1355.55078 1404.89062,1356.40234 C1404.45312,1357.25391 1404.10938,1358.19531 1403.85938,1359.22656 C1403.60937,1360.25782 1403.48438,1361.42187 1403.48438,1362.71875 C1403.48438,1363.375 1403.54687,1363.99218 1403.67188,1364.57031 C1403.79688,1365.14844 1403.99219,1365.65234 1404.25781,1366.08203 C1404.52344,1366.51172 1404.875,1366.85547 1405.3125,1367.11328 C1405.75,1367.3711 1406.27343,1367.5 1406.88281,1367.5 Z M1424.4375,1364.40625 C1424.4375,1364.79688 1424.46484,1365.17578 1424.51953,1365.54297 C1424.57422,1365.91016 1424.67187,1366.23828 1424.8125,1366.52734 C1424.95313,1366.81641 1425.14062,1367.05078 1425.375,1367.23047 C1425.60938,1367.41016 1425.90625,1367.5 1426.26562,1367.5 C1426.84375,1367.5 1427.36719,1367.25 1427.83594,1366.75 C1428.30469,1366.25 1428.71094,1365.64844 1429.05469,1364.94531 C1429.39844,1364.24218 1429.67578,1363.51563 1429.88672,1362.76562 C1430.09766,1362.01562 1430.23437,1361.39063 1430.29688,1360.89062 L1432.05469,1353.22656 C1431.41406,1353.22656 1430.78907,1353.38672 1430.17969,1353.70703 C1429.57031,1354.02735 1428.9961,1354.46093 1428.45703,1355.00781 C1427.91797,1355.55469 1427.42188,1356.17968 1426.96875,1356.88281 C1426.51562,1357.58594 1426.07031,1358.45312 1425.63281,1359.48438 C1425.19531,1360.51563 1424.88672,1361.42187 1424.70703,1362.20312 C1424.52734,1362.98438 1424.4375,1363.71875 1424.4375,1364.40625 Z M1464,1337.28906 C1464.09375,1336.19531 1464.14062,1335.32813 1464.14062,1334.6875 C1464.14062,1333.84375 1464.06641,1333.25781 1463.91797,1332.92969 C1463.76953,1332.60156 1463.55469,1332.4375 1463.27344,1332.4375 C1462.77344,1332.4375 1462.32031,1332.7539 1461.91406,1333.38672 C1461.50781,1334.01953 1461.14844,1334.82812 1460.83594,1335.8125 C1460.52344,1336.79688 1460.25,1337.88281 1460.01562,1339.07031 C1459.78125,1340.25782 1459.58594,1341.40624 1459.42969,1342.51562 C1459.27344,1343.62501 1459.14844,1344.625 1459.05469,1345.51562 C1458.96094,1346.40625 1458.89844,1347.03906 1458.86719,1347.41406 C1458.80469,1348.17969 1458.75391,1348.91797 1458.71484,1349.62891 C1458.67578,1350.33985 1458.64844,1350.98828 1458.63281,1351.57422 C1458.61719,1352.16016 1458.60938,1352.67187 1458.60938,1353.10938 L1458.60938,1354.11719 L1458.60938,1354.35156 C1459.5,1352.3203 1460.32031,1350.29689 1461.07031,1348.28125 C1461.38281,1347.42187 1461.69922,1346.51954 1462.01953,1345.57422 C1462.33985,1344.6289 1462.63281,1343.67969 1462.89844,1342.72656 C1463.16406,1341.77343 1463.39453,1340.83594 1463.58984,1339.91406 C1463.78516,1338.99218 1463.92187,1338.11719 1464,1337.28906 Z M1471.6875,1342.44531 C1471.6875,1342.08594 1471.76562,1341.67969 1471.92188,1341.22656 C1472.07813,1340.77344 1472.33203,1340.34766 1472.68359,1339.94922 C1473.03516,1339.55078 1473.5039,1339.21485 1474.08984,1338.94141 C1474.67578,1338.66797 1475.40625,1338.53125 1476.28125,1338.53125 C1476.82813,1338.53125 1477.34375,1338.59375 1477.82812,1338.71875 C1478.3125,1338.84375 1478.73437,1339.03515 1479.09375,1339.29297 C1479.45313,1339.55078 1479.73828,1339.89062 1479.94922,1340.3125 C1480.16016,1340.73438 1480.26562,1341.23437 1480.26562,1341.8125 C1480.26562,1342.34375 1480.17969,1342.85937 1480.00781,1343.35938 C1479.83594,1343.85938 1479.5625,1344.30469 1479.1875,1344.69531 C1478.8125,1345.08594 1478.33985,1345.40234 1477.76953,1345.64453 C1477.19922,1345.88672 1476.51563,1346.00781 1475.71875,1346.00781 C1474.34374,1346.00781 1473.32813,1345.6836 1472.67188,1345.03516 C1472.01562,1344.38672 1471.6875,1343.52344 1471.6875,1342.44531 Z M1507.52344,1362.01562 C1507.66406,1361.09375 1508.47656,1359.33595 1509.96094,1356.74219 C1511.33594,1354.30468 1512.92968,1353.08594 1514.74219,1353.08594 L1512.98438,1360.89062 C1512.92187,1362.25001 1512.61719,1363.60156 1512.07031,1364.94531 C1511.36718,1366.64845 1510.48438,1367.5 1509.42188,1367.5 C1508.8125,1367.5 1508.32031,1367.17188 1507.94531,1366.51562 C1507.36718,1365.49999 1507.22656,1364.00001 1507.52344,1362.01562 Z M1512.58594,1378 C1512.57031,1378.21875 1512.52344,1378.72265 1512.44531,1379.51172 C1512.36719,1380.30079 1512.28516,1380.96875 1512.19922,1381.51562 C1512.11328,1382.0625 1512,1382.5625 1511.85938,1383.01562 C1511.625,1383.85938 1511.42188,1384.53515 1511.25,1385.04297 C1511.07812,1385.55078 1510.88672,1386.07031 1510.67578,1386.60156 C1510.46484,1387.13282 1510.26563,1387.53906 1510.07812,1387.82031 C1509.89062,1388.10156 1509.67188,1388.36328 1509.42188,1388.60547 C1509.17187,1388.84766 1508.90235,1389.01562 1508.61328,1389.10938 C1508.32422,1389.20313 1507.99219,1389.25 1507.61719,1389.25 C1506.57031,1389.25 1506.30468,1388.50782 1506.82031,1387.02344 C1507.44532,1385.24218 1508.28906,1383.48829 1509.35156,1381.76172 C1510.41407,1380.03515 1511.49218,1378.78125 1512.58594,1378 Z M1548.49219,1367.52344 C1548.49219,1367.58594 1548.48438,1367.74219 1548.46875,1367.99219 C1548.45312,1368.24219 1548.40234,1368.53125 1548.31641,1368.85938 C1548.23047,1369.1875 1548.09766,1369.53515 1547.91797,1369.90234 C1547.73828,1370.26953 1547.48438,1370.60937 1547.15625,1370.92188 C1546.82812,1371.23438 1546.41406,1371.49219 1545.91406,1371.69531 C1545.41406,1371.89844 1544.80469,1372 1544.08594,1372 C1543.50781,1372 1542.98438,1371.92578 1542.51562,1371.77734 C1542.04687,1371.62891 1541.64453,1371.40235 1541.30859,1371.09766 C1540.97265,1370.79297 1540.71094,1370.40235 1540.52344,1369.92578 C1540.33594,1369.44922 1540.24219,1368.875 1540.24219,1368.20312 C1540.24219,1367.64062 1540.32422,1367.08985 1540.48828,1366.55078 C1540.65234,1366.01172 1540.90625,1365.53125 1541.25,1365.10938 C1541.59375,1364.6875 1542.03906,1364.35156 1542.58594,1364.10156 C1543.13282,1363.85156 1543.78125,1363.72656 1544.53125,1363.72656 C1545.82813,1363.72656 1546.8125,1364.05468 1547.48438,1364.71094 C1548.15625,1365.36719 1548.49219,1366.30468 1548.49219,1367.52344 Z M1558.24219,1367.52344 C1558.24219,1367.58594 1558.23438,1367.74219 1558.21875,1367.99219 C1558.20312,1368.24219 1558.15234,1368.53125 1558.06641,1368.85938 C1557.98047,1369.1875 1557.84766,1369.53515 1557.66797,1369.90234 C1557.48828,1370.26953 1557.23438,1370.60937 1556.90625,1370.92188 C1556.57812,1371.23438 1556.16406,1371.49219 1555.66406,1371.69531 C1555.16406,1371.89844 1554.55469,1372 1553.83594,1372 C1553.25781,1372 1552.73438,1371.92578 1552.26562,1371.77734 C1551.79687,1371.62891 1551.39453,1371.40235 1551.05859,1371.09766 C1550.72265,1370.79297 1550.46094,1370.40235 1550.27344,1369.92578 C1550.08594,1369.44922 1549.99219,1368.875 1549.99219,1368.20312 C1549.99219,1367.64062 1550.07422,1367.08985 1550.23828,1366.55078 C1550.40234,1366.01172 1550.65625,1365.53125 1551,1365.10938 C1551.34375,1364.6875 1551.78906,1364.35156 1552.33594,1364.10156 C1552.88282,1363.85156 1553.53125,1363.72656 1554.28125,1363.72656 C1555.57813,1363.72656 1556.5625,1364.05468 1557.23438,1364.71094 C1557.90625,1365.36719 1558.24219,1366.30468 1558.24219,1367.52344 Z M1538.74219,1367.52344 C1538.74219,1367.58594 1538.73438,1367.74219 1538.71875,1367.99219 C1538.70312,1368.24219 1538.65234,1368.53125 1538.56641,1368.85938 C1538.48047,1369.1875 1538.34766,1369.53515 1538.16797,1369.90234 C1537.98828,1370.26953 1537.73438,1370.60937 1537.40625,1370.92188 C1537.07812,1371.23438 1536.66406,1371.49219 1536.16406,1371.69531 C1535.66406,1371.89844 1535.05469,1372 1534.33594,1372 C1533.75781,1372 1533.23438,1371.92578 1532.76562,1371.77734 C1532.29687,1371.62891 1531.89453,1371.40235 1531.55859,1371.09766 C1531.22265,1370.79297 1530.96094,1370.40235 1530.77344,1369.92578 C1530.58594,1369.44922 1530.49219,1368.875 1530.49219,1368.20312 C1530.49219,1367.64062 1530.57422,1367.08985 1530.73828,1366.55078 C1530.90234,1366.01172 1531.15625,1365.53125 1531.5,1365.10938 C1531.84375,1364.6875 1532.28906,1364.35156 1532.83594,1364.10156 C1533.38282,1363.85156 1534.03125,1363.72656 1534.78125,1363.72656 C1536.07813,1363.72656 1537.0625,1364.05468 1537.73438,1364.71094 C1538.40625,1365.36719 1538.74219,1366.30468 1538.74219,1367.52344 Z M1448.13268,1367.46962 C1449.67949,1368.06338 1452.0578,1365.61561 1453.4448,1362.00237 C1454.07954,1360.34881 1453.99436,1354.70694 1453.15543,1354.38491 C1452.31836,1354.06358 1451.23777,1354.633 1450.20255,1355.79583 C1449.32483,1356.78175 1448.47972,1358.19427 1447.84332,1359.85216 C1446.45632,1363.4654 1446.58587,1366.87586 1448.13268,1367.46962 Z" id="Loading…"></path>
        </g>
    </g>
</svg>