<svg width="162" height="510" version="1.1" xmlns="http://www.w3.org/2000/svg" xmlns:xlink="http://www.w3.org/1999/xlink">
  <defs>
    <path d="M121.012616,146.820428 C114.664006,144.667826 108.25319,143.065898 101.813366,141.999997 C100.476165,150.772853 92.1149801,157.530856 82,157.530856 C71.9100778,157.530856 63.5652727,150.806295 62.1966835,142.065162 C55.7427769,143.137556 49.3282074,144.721438 42.9867172,146.801925 C42.9955445,147.043708 43,147.286714 43,147.530856 C43,157.471981 35.6126984,165.530856 26.5,165.530856 C21.7443937,165.530856 17.4586889,163.33607 14.4475952,159.824363 C9.54336335,162.722953 4.72147305,165.9341 0,169.44983 L0,308.063266 C0,308.063266 37.9726562,359.026609 82,367.00436 C121.832031,359.026609 162,308.063266 162,308.063266 L162,169.44983 C157.770661,166.10798 153.47171,163.064891 149.11532,160.315192 C146.133602,163.539383 142.029987,165.530856 137.5,165.530856 C128.387302,165.530856 121,157.471981 121,147.530856 C121,147.292942 121.004231,147.056106 121.012616,146.820433 L121.012616,146.820428 Z" id="a"/>
    <mask id="c" maskContentUnits="userSpaceOnUse" maskUnits="objectBoundingBox" x="0" y="0" width="162" height="225.004364" fill="#fff">
      <use xlink:href="#a"/>
    </mask>
    <path d="M75.0594379,36.382501 L87.3755627,36.382501 C87.3755627,36.382501 87.4305454,91.3579912 89.1899918,109.683155 C81.1395731,109.683155 81.2449917,109.683155 73.2999915,109.683155 C75.0594379,90.6007219 75.0594379,36.382501 75.0594379,36.382501 Z" id="b"/>
    <mask id="d" maskContentUnits="userSpaceOnUse" maskUnits="objectBoundingBox" x="0" y="0" width="15.8900003" height="73.3006535" fill="#fff">
      <use xlink:href="#b"/>
    </mask>
  </defs>
  <g stroke="none" stroke-width="1" fill="none" fill-rule="evenodd">
    <use stroke="#979797" mask="url(#c)" stroke-width="18" fill="#643626" xlink:href="#a"/>
    <path d="M68,109.683155 L95.1937227,109.683155 L95.1937227,414.075464 C95.1937227,414.075464 86.0452172,509.610972 81.5968614,509.610972 C77.1485055,509.610972 68,414.075464 68,414.075464 L68,109.683155 Z" fill="#D7D3D4"/>
    <path d="M86.9942394,26.5380197 L86.9942394,40.0131011 L75.6330894,40.0131011 L75.6330894,25.6387514 C73.1153095,24.2615978 69.8737735,24.9272043 69.0557153,23.2968315 C68.1481574,21.4880879 71.4167263,16.9100498 71.4167263,14.6506515 C71.4167263,13.4149609 71.4167263,11.2395528 71.4167263,11.2395528 C71.4167263,11.2395528 65.7000874,9.52406146 69.0557153,2.56865329 C72.4113431,-4.38675489 74.4997856,4.98232316 76.4293524,5.23636794 C78.3589191,5.49041272 80.8651002,5.9097657 85.0984527,5.23636794 C89.3318052,4.56297018 90.0956455,-3.36385462 93.2000891,2.56865329 C96.3045327,8.5011612 91.7333256,11.2395528 91.7333256,11.2395528 C91.7333256,11.2395528 91.7333256,13.2810854 91.7333256,14.6506515 C91.7333256,15.9443682 96.3724847,21.90457 94.9077942,23.2968315 C94.132377,24.0339044 91.7333256,23.2968315 87.6809486,26.1697878 C87.4499034,26.3006287 87.2210142,26.4233011 86.9942394,26.5380197 Z" fill="#FFF"/>
    <use stroke="#979797" mask="url(#d)" stroke-width="2" fill="#423D43" xlink:href="#b"/>
    <path d="M33,102.859165 C33,102.859165 70.8950771,105.999836 80.8791322,95 C94.5160031,105.999836 128.758264,102.859165 128.758264,102.859165 L121.66506,126.870001 C121.66506,126.870001 121.66506,125.978099 118.266232,112.323972 C115.605169,110.400392 84.6473973,105.129507 80.8791322,117.267322 C76.7506654,105.129507 46.6592957,111.094264 43.7229307,112.323972 L38.911004,125.978099 L33,102.859165 Z" fill="#B3B3B3"/>
    <path d="M77.394043,16.0517578 C78.7747548,16.0517578 79.15625,15.5522847 79.15625,15 C79.15625,14.4477153 77.8807119,13 76.5,13 C75.1192881,13 74,13.4477153 74,14 C74,14.5522847 76.0133311,16.0517578 77.394043,16.0517578 Z" fill="#FF5252"/>
    <path d="M87.394043,16.0517578 C88.7747548,16.0517578 89.15625,15.5522847 89.15625,15 C89.15625,14.4477153 87.8807119,13 86.5,13 C85.1192881,13 84,13.4477153 84,14 C84,14.5522847 86.0133311,16.0517578 87.394043,16.0517578 Z" fill="#FF5252" transform="matrix(-1 0 0 1 173.156 0)"/>
    <path d="M81,5.59931759 C82.1633081,5.58796958 83.5091663,5.48917512 85.0984527,5.23636794 C89.3318052,4.56297018 90.0956455,-3.36385462 93.2000891,2.56865329 C96.3045327,8.5011612 91.7333256,11.2395528 91.7333256,11.2395528 C91.7333256,11.2395528 91.7333256,13.2810854 91.7333256,14.6506515 C91.7333256,15.9443682 96.3724847,21.90457 94.9077942,23.2968315 C94.132377,24.0339044 91.7333256,23.2968315 87.6809486,26.1697878 C87.4499034,26.3006287 87.2210142,26.4233011 86.9942394,26.5380197 L86.9942394,36.382501 L87.3755627,36.382501 C87.3755627,36.382501 87.4151604,75.9750231 88.5024786,99.1605935 C104.309788,105.101559 128.758264,102.859165 128.758264,102.859165 L121.66506,126.870001 C121.66506,126.870001 121.66506,125.978099 118.266232,112.323972 C116.685175,111.181087 105.11515,108.856576 95.1937227,109.703761 L95.1937227,414.075464 C95.1937227,414.075464 86.0452172,509.610972 81.5968614,509.610972 C81.4061803,509.610972 81.2068629,509.43543 81,509.099395 L81,5.59931759 Z" fill="#D7D3D4" style="mix-blend-mode: multiply;"/>
  </g>
</svg>
