<?xml version="1.0" encoding="UTF-8" standalone="no"?>
<svg width="238px" height="294px" viewBox="0 0 238 294" version="1.1" xmlns="http://www.w3.org/2000/svg" xmlns:xlink="http://www.w3.org/1999/xlink">
    <!-- Generator: Sketch 42 (36781) - http://www.bohemiancoding.com/sketch -->
    <title>portrait</title>
    <desc>Created with Sketch.</desc>
    <defs>
        <ellipse id="path-1" cx="94" cy="122" rx="94" ry="122"></ellipse>
        <mask id="mask-2" maskContentUnits="userSpaceOnUse" maskUnits="objectBoundingBox" x="-25" y="-25" width="238" height="294">
            <rect x="-25" y="-25" width="238" height="294" fill="white"></rect>
            <use xlink:href="#path-1" fill="black"></use>
        </mask>
    </defs>
    <g id="Welcome" stroke="none" stroke-width="1" fill="none" fill-rule="evenodd">
        <g id="Desktop" transform="translate(-663.000000, -115.000000)">
            <g id="portrait" transform="translate(688.000000, 140.000000)">
                <g id="Oval">
                    <use fill="#FFA6A6" fill-rule="evenodd" xlink:href="#path-1"></use>
                    <use stroke="#4A2507" mask="url(#mask-2)" stroke-width="50" xlink:href="#path-1"></use>
                </g>
                <path d="M72.40157,137.567124 L114.169592,126.957476 L130.224732,186.577723 C130.224732,186.577723 109.077382,176.405119 95.8164251,178.11173 C82.5554684,179.818342 61.7584541,196.725701 61.7584541,196.725701 C61.7584541,196.725701 79.3371326,178.301974 83.080163,168.333439 C86.8231935,158.364903 72.40157,137.567124 72.40157,137.567124 Z" id="Rectangle-4" fill="#FFFFFF"></path>
                <path d="M83.8899268,150.424675 C94.4949049,145.899084 111.727859,147.817373 124.09075,132.430937 C136.45364,117.044501 134.323639,94.1391864 132.605242,89.7952378 C129.167516,81.1049805 144.886413,82.8634743 144.295818,74.4672708 C144.150804,72.4056746 145.659127,67.7971084 144.295818,65.456385 C143.42603,63.9630075 138.097257,57.2359643 132.605242,53.1218262 C129.48906,50.7874544 125.896512,50.6588931 124.09075,49.409194 C116.603621,44.2276392 109.275532,57.1060288 109.275532,57.1060288 C99.7809858,51.0631463 95.0800785,50.967105 92.6262503,50.5462862 C76.7856469,47.8297047 33.6322464,70.4743078 50.8599034,79.8995577 C46.6407948,88.5810547 44.0622206,95.2036463 49.0434783,104.058824 C54.4306688,113.635627 46.651438,123.300911 45.1968788,128.010469 C43.7423196,132.720028 50.6591924,128.462855 54.4306688,131.042423 C57.7530948,133.314855 54.5297476,137.276098 55.3761322,139.108944 C56.2225169,140.94179 57.7530948,139.108944 59.0905797,141.133459 C59.0905797,143.248205 53.0514983,143.020436 57.7530948,144.40019 C62.4546913,145.779943 57.7530948,157.4566 62.7482639,157.4566 C67.743433,157.4566 61.0814625,160.15801 83.8899268,150.424675 Z" id="Oval-5" fill="#FFFFFF"></path>
            </g>
        </g>
    </g>
</svg>