<?xml version="1.0" encoding="UTF-8" standalone="no"?>
<svg width="538px" height="766px" viewBox="0 0 538 766" version="1.1" xmlns="http://www.w3.org/2000/svg" xmlns:xlink="http://www.w3.org/1999/xlink">
    <!-- Generator: Sketch 42 (36781) - http://www.bohemiancoding.com/sketch -->
    <title>shelf</title>
    <desc>Created with Sketch.</desc>
    <defs>
        <polygon id="path-1" points="0 2.24182903 538 0 538 182.335428 0 182.335428"></polygon>
        <mask id="mask-2" maskContentUnits="userSpaceOnUse" maskUnits="objectBoundingBox" x="0" y="0" width="538" height="182.335428" fill="white">
            <use xlink:href="#path-1"></use>
        </mask>
        <polygon id="path-3" points="0 2.24182903 538 0 538 182.335428 0 182.335428"></polygon>
        <mask id="mask-4" maskContentUnits="userSpaceOnUse" maskUnits="objectBoundingBox" x="0" y="0" width="538" height="182.335428" fill="white">
            <use xlink:href="#path-3"></use>
        </mask>
        <polygon id="path-5" points="0 2.24182903 538 0 538 182.335428 0 182.335428"></polygon>
        <mask id="mask-6" maskContentUnits="userSpaceOnUse" maskUnits="objectBoundingBox" x="0" y="0" width="538" height="182.335428" fill="white">
            <use xlink:href="#path-5"></use>
        </mask>
    </defs>
    <g id="Welcome" stroke="none" stroke-width="1" fill="none" fill-rule="evenodd">
        <g id="Desktop" transform="translate(-1.000000, -253.000000)">
            <g id="shelf" transform="translate(1.000000, 253.000000)">
                <g id="bookcase" transform="translate(0.000000, 253.000000)">
                    <use id="Rectangle-5" stroke="#FF4438" mask="url(#mask-2)" stroke-width="38" fill="#C23A26" xlink:href="#path-1"></use>
                    <g id="books" transform="translate(18.015625, 18.710992)">
                        <polygon id="Rectangle-6" fill="#DAD8A7" transform="translate(119.243689, 73.116143) rotate(-6.000000) translate(-119.243689, -73.116143) " points="105.219289 3.31586231 133.268089 3.31586231 133.268089 142.916424 105.219289 142.916424 105.219289 67.557189"></polygon>
                        <g id="book4" transform="translate(343.298251, 73.000000) rotate(-14.000000) translate(-343.298251, -73.000000) translate(322.798251, 3.000000)">
                            <rect id="Rectangle-6" fill="#608180" x="4.54747351e-13" y="1.56319402e-13" width="40.9804687" height="139.600562"></rect>
                            <rect id="Rectangle-7" fill="#E91E63" x="15.7617188" y="6.64764581" width="10.5078125" height="127.254934"></rect>
                        </g>
                        <g id="book4" transform="translate(458.400745, 5.000000)">
                            <rect id="Rectangle-6" fill="#608180" x="0" y="0" width="40.9804687" height="139.600562"></rect>
                            <rect id="Rectangle-7" fill="#F45252" x="15.7617187" y="6.64764581" width="10.5078125" height="127.254934"></rect>
                        </g>
                        <g id="book3" transform="translate(57.000000, 17.000000)">
                            <rect id="Rectangle-6" fill="#FF3D7F" x="0" y="0" width="40.9804688" height="127.254934"></rect>
                            <rect id="Rectangle-8" fill="#FFFFFF" x="0" y="15.194619" width="40.9804688" height="5.69798212"></rect>
                            <path d="M0,104.463006 L40.9804688,104.463006 L40.9804688,110.160988 L28.5455399,110.160988 L0,110.160988 L0,104.463006 Z" id="Rectangle-8" fill="#FFFFFF"></path>
                        </g>
                        <g id="book2" transform="translate(161.667969, 5.980264)">
                            <rect id="Rectangle-6" fill="#E68A2E" x="0" y="0" width="40.9804688" height="139.600562"></rect>
                            <rect id="Rectangle-8" fill="#DAD8A7" x="0" y="31.3389017" width="40.9804688" height="5.69798212"></rect>
                            <rect id="Rectangle-8" fill="#DAD8A7" x="0" y="68.3757854" width="40.9804688" height="5.69798212"></rect>
                            <rect id="Rectangle-8" fill="#DAD8A7" x="0" y="104.463006" width="40.9804688" height="5.69798212"></rect>
                        </g>
                        <g id="book2" transform="translate(265.472656, 6.000000)">
                            <rect id="Rectangle-6" fill="#3FB8AF" x="0" y="0" width="40.9804687" height="139.600562"></rect>
                            <rect id="Rectangle-8" fill="#7B0B0B" x="0" y="55.3389017" width="40.9804687" height="5.69798212"></rect>
                            <rect id="Rectangle-8" fill="#7B0B0B" x="0" y="68.3757854" width="40.9804687" height="5.69798212"></rect>
                            <rect id="Rectangle-8" fill="#7B0B0B" x="0" y="80.4630055" width="40.9804687" height="5.69798212"></rect>
                        </g>
                        <g id="book1" transform="translate(29.131209, 80.426564) rotate(-7.000000) translate(-29.131209, -80.426564) translate(8.631209, 16.426564)">
                            <polygon id="Rectangle-6" fill="#FF9E9D" points="-2.73558953e-13 4.97379915e-14 40.9804687 4.97379915e-14 40.9804687 64.6142269 40.9804687 127.254934 -2.73558953e-13 127.254934"></polygon>
                            <rect id="Rectangle-7" fill="#4C957E" x="15.7617188" y="6.39488462e-14" width="10.5078125" height="127.254934"></rect>
                        </g>
                        <g id="book3" transform="translate(380.123846, 14.000000)">
                            <rect id="Rectangle-6" fill="#DAD8A7" x="0" y="0" width="40.9804688" height="127.254934"></rect>
                            <rect id="Rectangle-8" fill="#FFFFFF" x="1" y="15.194619" width="40" height="5.69798212"></rect>
                            <path d="M0,104.463006 L40,104.463006 L40,110.160988 L27.8625801,110.160988 L0,110.160988 L0,104.463006 Z" id="Rectangle-8" fill="#FFFFFF"></path>
                        </g>
                    </g>
                </g>
                <g id="bookcase" transform="translate(0.000000, 420.140809)">
                    <use id="Rectangle-5" stroke="#FF4438" mask="url(#mask-4)" stroke-width="38" fill="#C23A26" xlink:href="#path-3"></use>
                    <g id="books" transform="translate(21.015625, 20.710992)">
                        <polygon id="Rectangle-6" fill="#A1DBB8" transform="translate(142.906250, 79.003695) rotate(4.000000) translate(-142.906250, -79.003695) " points="132.398437 15.3762282 153.414062 15.3762282 153.414062 142.631162 132.398437 142.631162 132.398437 73.9363491"></polygon>
                        <rect id="Rectangle-6" fill="#7FA757" x="98.7734375" y="3.98026394" width="25.21875" height="139.600562"></rect>
                        <g id="book4" transform="translate(300.472656, 3.980264)">
                            <rect id="Rectangle-6" fill="#608180" x="0" y="0" width="40.9804687" height="139.600562"></rect>
                            <rect id="Rectangle-7" fill="#F45252" x="15.7617187" y="6.64764581" width="10.5078125" height="127.254934"></rect>
                        </g>
                        <g id="book3" transform="translate(254.492188, 14.426564)">
                            <rect id="Rectangle-6" fill="#7FC7AF" x="0" y="0" width="40.9804687" height="127.254934"></rect>
                            <rect id="Rectangle-8" fill="#FFFFFF" x="0" y="92.194619" width="40.9804687" height="5.69798212"></rect>
                            <path d="M0,104.463006 L40.9804687,104.463006 L40.9804687,110.160988 L28.5455399,110.160988 L0,110.160988 L0,104.463006 Z" id="Rectangle-8" fill="#FFFFFF"></path>
                        </g>
                        <g id="book3" transform="translate(0.000000, 16.325892)">
                            <rect id="Rectangle-6" fill="#3FB8AF" x="0" y="0" width="40.9804688" height="127.254934"></rect>
                            <rect id="Rectangle-8" fill="#FFFFFF" x="0" y="15.194619" width="40.9804688" height="5.69798212"></rect>
                            <path d="M0,104.463006 L40.9804688,104.463006 L40.9804688,110.160988 L28.5455399,110.160988 L0,110.160988 L0,104.463006 Z" id="Rectangle-8" fill="#FFFFFF"></path>
                        </g>
                        <g id="book2" transform="translate(158.667969, 3.980264)">
                            <rect id="Rectangle-6" fill="#FF9E9D" x="0" y="0" width="40.9804688" height="139.600562"></rect>
                            <rect id="Rectangle-8" fill="#7B0B0B" x="0" y="115.338902" width="40.9804688" height="5.69798212"></rect>
                            <rect id="Rectangle-8" fill="#7B0B0B" x="0" y="93.3757854" width="40.9804688" height="5.69798212"></rect>
                            <rect id="Rectangle-8" fill="#7B0B0B" x="0" y="104.463006" width="40.9804688" height="5.69798212"></rect>
                        </g>
                        <g id="book2" transform="translate(347.808594, 3.980264)">
                            <rect id="Rectangle-6" fill="#A1DBB8" x="0" y="0" width="40.9804687" height="139.600562"></rect>
                            <rect id="Rectangle-8" fill="#3FB8AF" x="0" y="31.3389017" width="40.9804687" height="5.69798212"></rect>
                            <rect id="Rectangle-8" fill="#3FB8AF" x="0" y="68.3757854" width="40.9804687" height="5.69798212"></rect>
                            <rect id="Rectangle-8" fill="#3FB8AF" x="0" y="104.463006" width="40.9804687" height="5.69798212"></rect>
                        </g>
                        <g id="book2" transform="translate(446.582031, 2.080937)">
                            <rect id="Rectangle-6" fill="#E68A2E" x="0" y="0" width="40.9804687" height="139.600562"></rect>
                            <rect id="Rectangle-8" fill="#7B0B0B" x="0" y="68.3757854" width="40.9804687" height="5.69798212"></rect>
                            <rect id="Rectangle-8" fill="#7B0B0B" x="0" y="104.463006" width="40.9804687" height="5.69798212"></rect>
                        </g>
                        <g id="book1" transform="translate(69.952636, 78.304988) rotate(-7.000000) translate(-69.952636, -78.304988) translate(49.452636, 14.304988)">
                            <polygon id="Rectangle-6" fill="#3FB8AF" points="-2.45137244e-13 -1.77635684e-13 40.9804687 -1.77635684e-13 40.9804687 64.6142269 40.9804687 127.254934 -2.45137244e-13 127.254934"></polygon>
                            <rect id="Rectangle-7" fill="#4C957E" x="15.7617188" y="-4.97379915e-14" width="10.5078125" height="127.254934"></rect>
                        </g>
                        <g id="book1" transform="translate(417.696054, 71.964820) rotate(6.000000) translate(-417.696054, -71.964820) translate(397.196054, 1.964820)">
                            <polygon id="Rectangle-6" fill="#FF9E9D" points="-5.61328761e-13 7.10542736e-14 40.9804687 7.10542736e-14 40.9804687 70.8827713 40.9804687 139.600562 -5.61328761e-13 139.600562"></polygon>
                            <rect id="Rectangle-7" fill="#4C957E" x="15.7617188" y="2.84217094e-14" width="10.5078125" height="139.600562"></rect>
                        </g>
                        <g id="book3" transform="translate(209.105469, 14.426564)">
                            <rect id="Rectangle-6" fill="#195B78" x="0" y="0" width="40.9804688" height="127.254934"></rect>
                            <rect id="Rectangle-8" fill="#FFFFFF" x="0" y="92.194619" width="40.9804688" height="5.69798212"></rect>
                            <path d="M0,104.463006 L40.9804688,104.463006 L40.9804688,110.160988 L28.5455399,110.160988 L0,110.160988 L0,104.463006 Z" id="Rectangle-8" fill="#FFFFFF"></path>
                        </g>
                    </g>
                </g>
                <g id="bookcase" transform="translate(0.000000, 583.482963)">
                    <use id="Rectangle-5" stroke="#FF4438" mask="url(#mask-6)" stroke-width="38" fill="#C23A26" xlink:href="#path-5"></use>
                    <g id="books" transform="translate(34.015625, 19.710992)">
                        <polygon id="Rectangle-6" fill="#FF3D7F" transform="translate(289.105469, 79.205462) rotate(4.000000) translate(-289.105469, -79.205462) " points="278.597656 15.5779946 299.613281 15.5779946 299.613281 142.832929 278.597656 142.832929 278.597656 74.1381156"></polygon>
                        <rect id="Rectangle-6" fill="#7FA757" x="304" y="4" width="25.21875" height="139.600562"></rect>
                        <g id="book4" transform="translate(134.000000, 5.000000)">
                            <rect id="Rectangle-6" fill="#608180" x="0" y="0" width="40.9804687" height="139.600562"></rect>
                            <rect id="Rectangle-7" fill="#F45252" x="15.7617187" y="6.64764581" width="10.5078125" height="127.254934"></rect>
                        </g>
                        <g id="book3" transform="translate(0.000000, 15.000000)">
                            <rect id="Rectangle-6" fill="#195B78" x="0" y="0" width="40.9804687" height="127.254934"></rect>
                            <rect id="Rectangle-8" fill="#7FC7AF" x="0" y="15.194619" width="40.9804687" height="5.69798212"></rect>
                            <path d="M0,104.463006 L40.9804687,104.463006 L40.9804687,110.160988 L28.5455399,110.160988 L0,110.160988 L0,104.463006 Z" id="Rectangle-8" fill="#7FC7AF"></path>
                        </g>
                        <g id="book3" transform="translate(86.000000, 16.000000)">
                            <rect id="Rectangle-6" fill="#FF9E9D" x="0" y="0" width="40.9804688" height="127.254934"></rect>
                            <rect id="Rectangle-8" fill="#FFFFFF" x="0" y="15.194619" width="40.9804688" height="5.69798212"></rect>
                            <path d="M0,104.463006 L40.9804688,104.463006 L40.9804688,110.160988 L28.5455399,110.160988 L0,110.160988 L0,104.463006 Z" id="Rectangle-8" fill="#FFFFFF"></path>
                        </g>
                        <g id="book2" transform="translate(397.000000, 3.000000)">
                            <rect id="Rectangle-6" fill="#E68A2E" x="0" y="0" width="40.9804688" height="139.600562"></rect>
                            <rect id="Rectangle-8" fill="#7B0B0B" x="0" y="31.3389017" width="40.9804688" height="5.69798212"></rect>
                            <rect id="Rectangle-8" fill="#7B0B0B" x="0" y="104.463006" width="40.9804688" height="5.69798212"></rect>
                        </g>
                        <g id="book2" transform="translate(45.000000, 3.000000)">
                            <rect id="Rectangle-6" fill="#A1DBB8" x="0" y="0" width="40.9804687" height="139.600562"></rect>
                            <rect id="Rectangle-8" fill="#7B0B0B" x="0" y="115.338902" width="40.9804687" height="5.69798212"></rect>
                            <rect id="Rectangle-8" fill="#7B0B0B" x="0" y="94.3757854" width="40.9804687" height="5.69798212"></rect>
                            <rect id="Rectangle-8" fill="#7B0B0B" x="0" y="104.463006" width="40.9804687" height="5.69798212"></rect>
                        </g>
                        <g id="book2" transform="translate(175.000000, 4.000000)">
                            <rect id="Rectangle-6" fill="#DAD8A7" x="0" y="0" width="40.9804687" height="139.600562"></rect>
                            <rect id="Rectangle-8" fill="#FF3D7F" x="0" y="31.3389017" width="40.9804687" height="5.69798212"></rect>
                            <rect id="Rectangle-8" fill="#FF3D7F" x="0" y="68.3757854" width="40.9804687" height="5.69798212"></rect>
                            <rect id="Rectangle-8" fill="#FF3D7F" x="0" y="104.463006" width="40.9804687" height="5.69798212"></rect>
                        </g>
                        <g id="book1" transform="translate(222.646834, 4.420713)">
                            <polygon id="Rectangle-6" fill="#3FB8AF" points="4.26325641e-14 9.9475983e-14 40.9804688 9.9475983e-14 40.9804688 70.4701749 40.9804688 138.787971 4.26325641e-14 138.787971"></polygon>
                            <rect id="Rectangle-7" fill="#4C957E" x="15.7617187" y="9.9475983e-14" width="10.5078125" height="138.787971"></rect>
                        </g>
                        <g id="book1" transform="translate(369.810160, 71.759366) rotate(6.000000) translate(-369.810160, -71.759366) translate(349.310160, 1.759366)">
                            <polygon id="Rectangle-6" fill="#3FB8AF" points="-5.61328761e-13 7.10542736e-14 40.9804687 7.10542736e-14 40.9804687 70.8827713 40.9804687 139.600562 -5.61328761e-13 139.600562"></polygon>
                            <rect id="Rectangle-7" fill="#4C957E" x="15.7617187" y="5.54223334e-13" width="10.5078125" height="139.600562"></rect>
                        </g>
                    </g>
                </g>
                <g id="globe" transform="translate(186.000000, 0.000000)">
                    <path d="M106.096341,10.9511201 L110.938789,-1.1937118e-12 C153.779766,13.1240024 184.92791,52.9403313 184.92791,100.02135 C184.92791,154.978743 142.486216,200.037448 88.5470085,204.297302 L88.5470085,234.643909 C90.4745904,238.494282 92.8003434,242.020443 95.4647436,244.033717 C103.705948,250.260936 132.029915,254.740954 132.029915,254.740954 L32.4145299,254.740954 C32.4145299,254.740954 59.4938561,249.395234 66.5893763,244.033717 C69.4096237,241.902682 72.4576496,239.523427 75.1068376,234.643909 L75.1068376,204.506398 C57.5527947,203.671599 41.1306185,198.522235 26.8803419,190.096867 L32.3067781,177.825066 C35.0581199,179.499574 37.9042936,181.034072 40.8353722,182.418646 L112.773053,13.1851694 C110.586015,12.3585142 108.359228,11.6126163 106.096341,10.9511201 Z M119.324703,15.9569382 L47.3807386,185.205202 C57.5683612,189.082261 68.6226839,191.205561 80.1736363,191.205561 C131.041658,191.205561 172.278337,150.02754 172.278337,99.2318767 C172.278337,62.415747 150.615932,30.651946 119.324703,15.9569382 L119.324703,15.9569382 Z" id="Combined-Shape" fill="#CA7C7C"></path>
                    <ellipse id="Oval-4" fill="#7DFAFF" cx="79.8504274" cy="97.8947368" rx="79.8504274" ry="79.7368421"></ellipse>
                    <path d="M45.972995,129.247243 C54.5110098,127.981876 55.6193481,112.054515 63.3106022,109.37507 C65.6555999,108.55813 73.7032103,139.051096 77.988346,144.024439 C78.8326521,145.004343 82.4795104,146.236513 81.6019395,144.024439 C80.7243685,141.812364 75.334488,136.194765 75.7502399,133.507243 C76.584332,128.115467 77.3391787,128.797254 77.988346,129.247243 C84.1339531,133.507243 86.8357024,130.583953 87.7108082,129.247243 C87.7108082,124.177212 83.2350027,116.021891 83.7871422,114.775276 C88.4602725,104.224329 95.0937662,104.855066 95.0937662,97.7983769 C95.0937662,95.19981 100.609681,104.36557 105.570101,95.9185767 C107.663904,92.353084 96.9423766,79.7680206 98.0401895,73.2068927 C98.4712041,70.6309147 108.886778,79.6215881 113.8098,77.1513915 C118.732822,74.6811948 119.435776,71.6858173 119.291176,70.7078298 C118.464007,65.11334 107.095482,70.3996658 103.787552,55.7838893 C103.717386,55.6120321 115.909769,55.7838893 115.909769,55.7838893 C115.909769,55.7838893 112.209034,49.1940683 113.8098,48.5640479 C123.832048,44.6195492 122.56871,60.2917907 128.356755,61.2178472 C134.1448,62.1439036 136.345932,53.1043785 136.261399,52.5085466 C135.851958,49.622618 107.087621,22.7465729 95.0937662,23.4031941 C83.7192249,24.0259101 60.6095917,20.4301456 57.3707303,31.9408033 C54.131869,43.451461 48.3861345,38.7233454 45.972995,38.7233454 C41.335355,38.7233454 39.1650529,37.061325 33.7116052,40.623972 C28.5117258,44.0209671 18.5025491,49.2929508 15.0744928,52.5085466 C8.0512137,59.0965444 1.58119658,78.8573636 1.58119658,94.292645 C1.58119658,109.885067 8.02725386,99.8164491 20.3765853,99.9247083 C27.4172381,99.9864294 40.628286,117.115855 45.972995,129.247243 Z" id="Oval-4" fill="#3FB8AF"></path>
                    <path d="M113.742691,102.181332 C116.077416,102.181332 116.298693,103.32879 118.799925,99.8730469 C121.301158,96.4173041 124.811067,89.7634534 124.811067,88.2452714 C124.811067,83.6671215 125.350215,80.5263158 121.857132,80.5263158 C118.364049,80.5263158 121.857132,81.4636881 121.857132,86.041838 C121.857132,88.9925678 118.157712,90.9676242 113.742691,95.6034128 C109.327669,100.239201 112.500985,102.181332 113.742691,102.181332 Z" id="Oval-2" fill="#3FB8AF"></path>
                    <path d="M112.054955,168.947368 C119.696074,168.947368 122.542735,161.277056 122.542735,154.736842 C122.542735,148.196628 122.542735,146.872944 112.845553,146.872944 C111.194295,146.872944 104.707566,153.415149 102.300639,154.736842 C99.8937124,156.058535 82.0585437,161.452368 82.0585437,166.578947 C82.0585437,168.467153 90.2969049,171.153473 91.2152778,172.737459 C92.1336506,174.321445 106.61988,168.947368 112.054955,168.947368 Z" id="Oval" fill="#3FB8AF"></path>
                    <path d="M77.7689303,152.198808 C90.2038679,154.682874 91.8638154,156.513724 91.8638154,156.513724 C88.3498737,156.513724 83.0462768,156.513724 79.5323351,156.513724 C76.0183933,156.513724 70.511485,150.098967 70.511485,150.098967 L67.2008547,143.684211 C67.2008547,143.684211 72.8680331,151.219779 77.7689303,152.198808 Z" id="Oval-6" fill="#3FB8AF"></path>
                    <path d="M96.0576923,153.671361 C96.0576923,153.671361 101.987179,151.037138 101.987179,148.421053 C101.987179,145.804967 101.874108,141.232525 98.5993423,141.232525 C97.2234028,141.232525 96.0576923,147.19521 96.0576923,147.19521 C96.0576923,147.19521 90.1282051,146.904153 90.1282051,148.421053 C90.1282051,151.037138 96.0576923,153.671361 96.0576923,153.671361 Z" id="Oval-11" fill="#3FB8AF"></path>
                </g>
            </g>
        </g>
    </g>
</svg>