<svg xmlns="http://www.w3.org/2000/svg" viewBox="0 0 465 271" xmlns:xlink="http://www.w3.org/1999/xlink"><defs><path id="b" d="M498.383.164v297.84H.445z"/><path id="d" d="M0 0h502.414L0 305.003z"/><rect id="a" width="2.992" height="2.99" x="319.181" y="251.231" rx="1.495"/><mask id="f" width="2.992" height="2.99" x="0" y="0" fill="#fff"><use xlink:href="#a"/></mask></defs><g fill="none" fill-rule="evenodd"><path d="M-21-28h500v300H-21z"/><g transform="translate(-18 -27)"><mask id="c" fill="#fff"><use xlink:href="#b"/></mask><g mask="url(#c)"><path stroke="#FFF" stroke-width="2" d="M292.096 183.936c-10.355 18.65-33.89 25.384-52.565 15.043-18.675-10.34-25.42-33.843-15.064-52.492 10.355-18.65 33.89-25.385 52.565-15.043 18.675 10.341 25.42 33.842 15.064 52.492zm-18.623-46.084c-15.13-8.378-34.198-2.921-42.588 12.19-8.39 15.11-2.927 34.15 12.204 42.528 15.131 8.379 34.198 2.922 42.59-12.188 8.39-15.11 2.925-34.15-12.206-42.53zm2.313 51.906c.556.924-3.38 3.286-3.936 2.36l-11.48-19.084a8.32 8.32 0 0 1-6.203-.76 8.302 8.302 0 0 1-3.932-4.851l-22.292.385c-1.08.018-1.159-4.566-.08-4.584l22.29-.386a8.338 8.338 0 0 1 .764-1.884c1.847-3.327 5.639-4.895 9.174-4.077l10.81-19.469c.524-.943 4.54 1.28 4.016 2.224l-10.81 19.469a8.321 8.321 0 0 1 .2 11.573l11.479 19.084zm-16.127-27.027c-1.372-.76-3.1-.265-3.86 1.105s-.266 3.096 1.105 3.855c1.372.76 3.1.265 3.86-1.105a2.834 2.834 0 0 0-1.105-3.855zm143.809 52.547c-8.455 15.228-27.672 20.727-42.92 12.283-15.25-8.443-20.756-27.633-12.3-42.86 8.455-15.229 27.671-20.728 42.92-12.284 15.249 8.444 20.756 27.633 12.3 42.861zm-15.206-37.628c-12.355-6.842-27.923-2.386-34.774 9.952-6.851 12.338-2.39 27.885 9.965 34.726 12.355 6.841 27.924 2.386 34.775-9.952 6.85-12.337 2.39-27.885-9.966-34.726zm1.889 42.382c.454.755-2.76 2.683-3.214 1.928l-9.374-15.583a6.794 6.794 0 0 1-5.065-.621 6.78 6.78 0 0 1-3.21-3.962l-18.202.315c-.882.015-.946-3.728-.065-3.743l18.2-.315a6.816 6.816 0 0 1 8.114-4.867l8.827-15.897c.428-.77 3.707 1.046 3.28 1.816l-8.828 15.896a6.795 6.795 0 0 1 .165 9.45l9.372 15.583zm-13.168-22.068a2.32 2.32 0 0 0-3.153.902 2.314 2.314 0 0 0 .903 3.148 2.32 2.32 0 0 0 3.153-.902 2.314 2.314 0 0 0-.903-3.148z"/><path stroke="#FFF" stroke-width="2" d="M177.45 143.977a67.4 67.4 0 0 1 6.831 3.783l.823-.974s2.371 1.13 3.124.235c.759-.895 3.827-4.532 3.827-4.532a2.412 2.412 0 0 1 3.39-.289l6.466 5.436a2.4 2.4 0 0 1 .29 3.383l-3.824 4.531c-.757.893.763 3.036.761 3.036l-.84.995a67.698 67.698 0 0 1 4.874 6.077l1.157-.598s1.755 1.951 2.797 1.412c1.04-.535 5.271-2.725 5.271-2.725a2.408 2.408 0 0 1 3.242 1.027l3.89 7.492a2.403 2.403 0 0 1-1.03 3.233s-4.23 2.189-5.272 2.726c-1.04.539-.46 3.097-.457 3.096l-1.086.562a67.594 67.594 0 0 1 2.237 7.502l1.156-.099s.875 2.474 2.044 2.375l5.915-.507a2.41 2.41 0 0 1 2.603 2.187l.72 8.408a2.403 2.403 0 0 1-2.19 2.595l-5.917.504c-1.167.098-1.612 2.686-1.613 2.687l-.979.084a67.063 67.063 0 0 1-.8 7.881l.86.273s-.139 2.62.976 2.974c1.119.353 5.66 1.792 5.66 1.792a2.399 2.399 0 0 1 1.564 3.011l-2.558 8.044a2.408 2.408 0 0 1-3.02 1.56l-5.66-1.791c-1.112-.354-2.516 1.865-2.516 1.866l-.639-.203a67.248 67.248 0 0 1-3.791 7.109l.422.355s-1.133 2.364-.236 3.118c.895.755 4.54 3.817 4.54 3.817a2.4 2.4 0 0 1 .288 3.383l-5.447 6.452a2.408 2.408 0 0 1-3.389.29s-3.642-3.066-4.54-3.817c-.896-.757-3.04.763-3.04.764l-.225-.188a67.748 67.748 0 0 1-6.348 5.202l.083.16s-1.956 1.752-1.415 2.792c.54 1.037 2.732 5.26 2.732 5.26a2.396 2.396 0 0 1-1.029 3.232l-7.507 3.886a2.412 2.412 0 0 1-3.243-1.026l-2.732-5.263c-.407-.787-1.98-.643-2.717-.527a67.945 67.945 0 0 1-9.24 2.76c-.703.363-1.564.955-1.504 1.653.102 1.163.51 5.9.51 5.9a2.408 2.408 0 0 1-2.192 2.6l-8.425.72a2.409 2.409 0 0 1-2.602-2.188l-.505-5.904c-.047-.536-.62-.92-1.227-1.177a67.498 67.498 0 0 1-11.472-1.203c-.566.131-1.085.377-1.228.829l-1.796 5.647a2.407 2.407 0 0 1-3.02 1.563l-8.058-2.554a2.402 2.402 0 0 1-1.566-3.012l1.798-5.648c.126-.395-.072-.826-.382-1.218a67.45 67.45 0 0 1-10.778-5.871c-.45-.028-.865.049-1.11.34-.758.893-3.827 4.528-3.827 4.528a2.406 2.406 0 0 1-3.387.292l-6.468-5.439a2.394 2.394 0 0 1-.29-3.379l3.825-4.532c.24-.286.25-.698.151-1.128a67.708 67.708 0 0 1-7.71-9.668c-.416-.21-.842-.307-1.189-.127a45154.9 45154.9 0 0 1-5.271 2.726c-1.18.608-2.63.15-3.241-1.027l-3.89-7.494a2.4 2.4 0 0 1 1.029-3.234l5.274-2.726c.379-.194.542-.658.596-1.168a67.555 67.555 0 0 1-3.262-11.462c-.337-.464-.76-.84-1.229-.801-1.167.097-5.916.504-5.916.504a2.406 2.406 0 0 1-2.602-2.187l-.72-8.408a2.403 2.403 0 0 1 2.191-2.594l5.916-.504c.569-.048.966-.688 1.223-1.33a67.141 67.141 0 0 1 1.28-10.578c-.07-.783-.292-1.78-.95-1.989-1.117-.352-5.66-1.792-5.66-1.792a2.4 2.4 0 0 1-1.563-3.013l2.56-8.042a2.405 2.405 0 0 1 3.017-1.562l5.66 1.792c1.113.355 2.517-1.866 2.516-1.864l.014.005a67.15 67.15 0 0 1 4.09-7.188l-.093-.077s1.133-2.37.236-3.123c-.894-.753-4.54-3.816-4.54-3.816a2.392 2.392 0 0 1-.289-3.381l5.446-6.455a2.408 2.408 0 0 1 3.386-.287l4.543 3.817c.898.753 3.042-.763 3.042-.763l.299.251a67.841 67.841 0 0 1 6.426-4.971l-.236-.454s1.955-1.755 1.416-2.794l-2.733-5.262a2.4 2.4 0 0 1 1.029-3.233l7.508-3.88a2.407 2.407 0 0 1 3.242 1.026s2.192 4.223 2.733 5.261c.533 1.036 3.1.455 3.102.455l.351.677a67.893 67.893 0 0 1 7.699-2.128l-.073-.852s2.479-.875 2.378-2.04l-.505-5.904a2.4 2.4 0 0 1 2.191-2.594l8.426-.72a2.406 2.406 0 0 1 2.602 2.187s.403 4.738.505 5.904c.097 1.164 2.69 1.607 2.69 1.607l.089 1.048c2.6.162 5.213.476 7.824.949l.343-1.08s2.624.138 2.98-.975l1.795-5.648a2.405 2.405 0 0 1 3.019-1.56l8.059 2.553a2.399 2.399 0 0 1 1.564 3.013s-1.443 4.534-1.796 5.648c-.354 1.113 1.867 2.513 1.867 2.512l-.379 1.193zm-29.66 118.781c31.311 0 56.694-25.348 56.694-56.616s-25.383-56.616-56.695-56.616c-31.311 0-56.695 25.348-56.695 56.616s25.384 56.616 56.695 56.616zm7.522-68.805a13.826 13.826 0 0 1 4.922 5.383l41.314-9.056 1.51 6.866-41.307 9.055a13.823 13.823 0 0 1-.641 3.626 13.834 13.834 0 0 1-1.571 3.33l28.502 31.155-5.2 4.744-28.51-31.163a13.867 13.867 0 0 1-7.157 1.563l-12.764 40.22-6.711-2.124 12.768-40.234a13.83 13.83 0 0 1-4.91-5.388l-41.294 9.06-1.51-6.868 41.296-9.061c.051-1.198.26-2.408.641-3.605a13.83 13.83 0 0 1 1.572-3.331l-28.511-31.178 5.198-4.74 28.516 31.184a13.864 13.864 0 0 1 7.138-1.565l12.791-40.231 6.71 2.127-12.792 40.231zm279.677 37.075a41.646 41.646 0 0 1 4.221 2.338l.509-.602s1.465.698 1.93.145l2.365-2.8a1.49 1.49 0 0 1 2.094-.179l3.995 3.36c.627.528.708 1.463.179 2.09l-2.362 2.799c-.468.552.47 1.876.47 1.876l-.52.615a41.83 41.83 0 0 1 3.012 3.754l.715-.369s1.085 1.206 1.729.872c.642-.33 3.257-1.683 3.257-1.683a1.488 1.488 0 0 1 2.002.634l2.405 4.63c.374.725.09 1.62-.638 1.997 0 0-2.613 1.353-3.257 1.685-.642.332-.284 1.913-.282 1.913l-.671.347a41.765 41.765 0 0 1 1.382 4.635l.715-.06s.54 1.528 1.262 1.466l3.655-.313a1.489 1.489 0 0 1 1.608 1.352l.445 5.195a1.485 1.485 0 0 1-1.353 1.603l-3.656.311c-.72.06-.996 1.66-.997 1.66l-.604.053a41.437 41.437 0 0 1-.495 4.87l.532.168s-.086 1.619.603 1.837l3.497 1.108a1.482 1.482 0 0 1 .967 1.86l-1.58 4.97a1.488 1.488 0 0 1-1.867.965s-2.806-.888-3.497-1.108c-.688-.218-1.555 1.153-1.555 1.154l-.395-.126a41.551 41.551 0 0 1-2.342 4.393l.26.219s-.7 1.46-.145 1.927l2.805 2.358c.626.528.707 1.463.178 2.09l-3.366 3.987a1.488 1.488 0 0 1-2.094.179s-2.25-1.894-2.805-2.358c-.554-.468-1.879.471-1.879.472l-.138-.116a41.86 41.86 0 0 1-3.923 3.214l.051.099s-1.208 1.082-.874 1.725c.334.64 1.688 3.25 1.688 3.25a1.48 1.48 0 0 1-.635 1.997l-4.64 2.401a1.49 1.49 0 0 1-2.003-.634l-1.688-3.252c-.251-.486-1.224-.397-1.679-.326a41.982 41.982 0 0 1-5.709 1.706c-.434.225-.966.59-.929 1.022l.315 3.645a1.488 1.488 0 0 1-1.354 1.607l-5.206.444a1.488 1.488 0 0 1-1.608-1.352l-.312-3.648c-.03-.33-.384-.568-.758-.727a41.706 41.706 0 0 1-7.089-.743c-.35.081-.67.232-.758.512-.22.688-1.11 3.49-1.11 3.49a1.487 1.487 0 0 1-1.866.965l-4.979-1.578a1.484 1.484 0 0 1-.968-1.861l1.112-3.49c.078-.244-.045-.51-.236-.752a41.676 41.676 0 0 1-6.66-3.628c-.278-.018-.535.03-.686.21-.468.551-2.365 2.798-2.365 2.798a1.487 1.487 0 0 1-2.092.18l-3.997-3.36a1.479 1.479 0 0 1-.179-2.088l2.363-2.801c.149-.176.155-.431.094-.696a41.836 41.836 0 0 1-4.765-5.974c-.256-.13-.52-.19-.734-.079l-3.257 1.684a1.488 1.488 0 0 1-2.003-.634l-2.403-4.63a1.483 1.483 0 0 1 .636-1.999l3.258-1.684c.234-.12.335-.407.369-.722a41.741 41.741 0 0 1-2.016-7.082c-.208-.287-.469-.52-.759-.495-.721.06-3.656.311-3.656.311a1.487 1.487 0 0 1-1.608-1.35l-.445-5.196a1.485 1.485 0 0 1 1.355-1.603l3.655-.311c.351-.03.597-.425.756-.822.088-2.17.35-4.355.79-6.536-.043-.484-.18-1.1-.586-1.229l-3.497-1.107a1.483 1.483 0 0 1-.967-1.862l1.582-4.97a1.486 1.486 0 0 1 1.865-.964l3.497 1.107c.688.22 1.555-1.153 1.554-1.151l.01.002a41.491 41.491 0 0 1 2.526-4.441l-.057-.048s.7-1.463.146-1.929l-2.805-2.358a1.478 1.478 0 0 1-.18-2.09l3.366-3.987a1.488 1.488 0 0 1 2.092-.178l2.807 2.358c.555.466 1.88-.471 1.88-.471l.184.155a41.918 41.918 0 0 1 3.97-3.071l-.145-.28s1.208-1.085.875-1.727l-1.689-3.251a1.482 1.482 0 0 1 .636-1.998l4.639-2.398a1.487 1.487 0 0 1 2.003.635s1.355 2.61 1.689 3.25c.33.64 1.916.281 1.917.281l.217.418a41.95 41.95 0 0 1 4.757-1.314l-.046-.527s1.532-.54 1.47-1.26a8560 8560 0 0 1-.312-3.648 1.483 1.483 0 0 1 1.354-1.603l5.206-.444a1.487 1.487 0 0 1 1.608 1.35s.249 2.928.312 3.649c.06.719 1.662.993 1.661.993l.056.647c1.607.1 3.22.294 4.834.586l.212-.667s1.621.085 1.84-.602l1.11-3.49a1.486 1.486 0 0 1 1.866-.964l4.98 1.577a1.482 1.482 0 0 1 .966 1.862s-.892 2.801-1.11 3.49c-.219.687 1.154 1.553 1.154 1.552l-.234.737zm-18.327 73.393c19.347 0 35.031-15.662 35.031-34.982s-15.684-34.982-35.03-34.982c-19.348 0-35.032 15.662-35.032 34.982s15.684 34.982 35.031 34.982zm4.649-42.513a8.543 8.543 0 0 1 3.04 3.326l25.528-5.596.933 4.243-25.523 5.595a8.541 8.541 0 0 1-.396 2.24 8.548 8.548 0 0 1-.971 2.057l17.611 19.25-3.213 2.932-17.616-19.255a8.568 8.568 0 0 1-4.422.966l-7.887 24.851-4.147-1.312 7.89-24.86a8.545 8.545 0 0 1-3.034-3.33l-25.515 5.599-.933-4.244 25.516-5.6c.032-.739.161-1.487.396-2.226a8.545 8.545 0 0 1 .971-2.059l-17.616-19.264 3.212-2.929 17.62 19.269a8.567 8.567 0 0 1 4.41-.968l7.903-24.858 4.146 1.314-7.903 24.859zM357.85 90.43a41.43 41.43 0 0 1 4.199 2.326l.506-.599s1.457.695 1.92.145c.466-.55 2.353-2.786 2.353-2.786a1.482 1.482 0 0 1 2.083-.178l3.974 3.342c.624.526.704 1.456.178 2.08l-2.35 2.784c-.465.55.469 1.867.468 1.867l-.516.611a41.612 41.612 0 0 1 2.996 3.735l.71-.367s1.08 1.2 1.72.868l3.24-1.675a1.48 1.48 0 0 1 1.993.63l2.391 4.606c.373.722.09 1.613-.634 1.988l-3.24 1.675c-.64.331-.282 1.904-.28 1.903l-.668.346a41.548 41.548 0 0 1 1.375 4.611l.71-.06s.538 1.52 1.257 1.46c.717-.063 3.636-.313 3.636-.313a1.481 1.481 0 0 1 1.6 1.345l.442 5.168a1.477 1.477 0 0 1-1.346 1.595l-3.637.31c-.717.06-.99 1.65-.992 1.652l-.601.051a41.222 41.222 0 0 1-.492 4.844l.529.168s-.086 1.61.6 1.828l3.48 1.102a1.474 1.474 0 0 1 .96 1.85l-1.572 4.945a1.48 1.48 0 0 1-1.856.96l-3.48-1.102c-.684-.217-1.546 1.146-1.546 1.147l-.393-.125a41.336 41.336 0 0 1-2.33 4.37l.26.218s-.697 1.453-.146 1.917c.55.464 2.791 2.346 2.791 2.346.622.525.703 1.456.177 2.08l-3.349 3.966a1.48 1.48 0 0 1-2.082.177l-2.79-2.345c-.552-.466-1.87.468-1.87.47l-.138-.117a41.643 41.643 0 0 1-3.902 3.198l.05.098s-1.202 1.077-.87 1.716c.333.638 1.68 3.234 1.68 3.234a1.473 1.473 0 0 1-.632 1.987l-4.615 2.388a1.483 1.483 0 0 1-1.993-.63s-1.347-2.597-1.68-3.236c-.25-.484-1.217-.395-1.67-.324a41.764 41.764 0 0 1-5.679 1.697c-.432.223-.961.587-.924 1.016l.313 3.626a1.48 1.48 0 0 1-1.347 1.599l-5.179.442a1.48 1.48 0 0 1-1.6-1.345l-.31-3.629c-.029-.33-.381-.565-.754-.723a41.49 41.49 0 0 1-7.052-.74c-.347.081-.666.232-.754.51l-1.104 3.471a1.48 1.48 0 0 1-1.856.96l-4.954-1.57a1.476 1.476 0 0 1-.962-1.85l1.105-3.472c.078-.243-.045-.508-.235-.749a41.46 41.46 0 0 1-6.625-3.609c-.276-.017-.532.03-.682.209-.466.549-2.352 2.784-2.352 2.784a1.479 1.479 0 0 1-2.082.179l-3.976-3.343a1.471 1.471 0 0 1-.178-2.077l2.35-2.786c.148-.176.154-.43.094-.693a41.619 41.619 0 0 1-4.74-5.943c-.255-.129-.517-.189-.73-.078l-3.24 1.675a1.48 1.48 0 0 1-1.993-.63l-2.39-4.607a1.475 1.475 0 0 1 .632-1.988l3.241-1.676c.233-.12.334-.404.367-.718a41.525 41.525 0 0 1-2.005-7.045c-.208-.285-.467-.517-.756-.493-.717.06-3.636.31-3.636.31a1.479 1.479 0 0 1-1.6-1.344l-.443-5.168a1.477 1.477 0 0 1 1.348-1.595l3.636-.31c.35-.03.594-.422.752-.817a41.27 41.27 0 0 1 .787-6.502c-.044-.481-.18-1.094-.584-1.223-.687-.216-3.48-1.101-3.48-1.101a1.476 1.476 0 0 1-.96-1.852l1.573-4.944a1.478 1.478 0 0 1 1.855-.96l3.48 1.102c.683.218 1.546-1.147 1.545-1.146l.01.003a41.276 41.276 0 0 1 2.513-4.418l-.057-.048s.697-1.456.145-1.919l-2.79-2.345a1.47 1.47 0 0 1-.178-2.079l3.348-3.967a1.48 1.48 0 0 1 2.08-.177l2.793 2.346c.552.463 1.87-.469 1.87-.469l.184.155a41.7 41.7 0 0 1 3.95-3.056l-.145-.279s1.201-1.079.87-1.717l-1.68-3.235a1.475 1.475 0 0 1 .633-1.987l4.614-2.385a1.48 1.48 0 0 1 1.993.63l1.68 3.234c.328.637 1.906.28 1.907.28l.216.416a41.732 41.732 0 0 1 4.732-1.308l-.045-.524s1.524-.538 1.462-1.254l-.31-3.629a1.476 1.476 0 0 1 1.346-1.594l5.18-.442a1.48 1.48 0 0 1 1.599 1.344l.31 3.629c.06.715 1.654.988 1.654.988l.055.643c1.598.1 3.204.293 4.809.584l.21-.664s1.614.085 1.832-.6l1.104-3.47a1.478 1.478 0 0 1 1.855-.96l4.954 1.57a1.474 1.474 0 0 1 .961 1.852s-.887 2.786-1.103 3.471c-.218.684 1.148 1.545 1.148 1.544l-.233.733zm-18.232 73.013c19.247 0 34.85-15.58 34.85-34.8s-15.603-34.802-34.85-34.802-34.85 15.581-34.85 34.801c0 19.22 15.603 34.8 34.85 34.8zm4.624-42.293a8.499 8.499 0 0 1 3.025 3.309l25.395-5.567.928 4.22-25.39 5.566a8.497 8.497 0 0 1-.394 2.229 8.504 8.504 0 0 1-.966 2.047l17.52 19.15-3.197 2.917-17.524-19.156a8.523 8.523 0 0 1-4.4.961l-7.845 24.722-4.125-1.305 7.848-24.731a8.5 8.5 0 0 1-3.018-3.312l-25.382 5.57-.93-4.223 25.385-5.57c.032-.736.16-1.48.394-2.215.236-.74.563-1.426.966-2.048l-17.525-19.164 3.195-2.914 17.529 19.169a8.522 8.522 0 0 1 4.387-.963l7.863-24.73 4.124 1.308-7.863 24.73zm92.115-88.072a32.475 32.475 0 0 1 15.932 5.885 32.386 32.386 0 0 1 10.805 13.082h.004s.975 2.166 2.021 1.992c1.047-.178 2.596-.438 2.596-.438a2.179 2.179 0 0 1 2.512 1.78l1.278 7.54a2.177 2.177 0 0 1-1.785 2.504l-2.596.439c-1.018.171-1.243 2.414-1.257 2.537a32.326 32.326 0 0 1-5.897 15.906 32.422 32.422 0 0 1-13.11 10.784v.004s-2.173.974-1.995 2.017l.438 2.59a2.175 2.175 0 0 1-1.784 2.506l-7.554 1.275a2.18 2.18 0 0 1-2.51-1.78l-.44-2.593c-.176-1.043-2.549-1.25-2.55-1.25l-.001-.004a32.47 32.47 0 0 1-15.93-5.884 32.38 32.38 0 0 1-10.805-13.08h-.003s-.976-2.168-2.023-1.993c-1.045.178-2.596.438-2.596.438a2.178 2.178 0 0 1-2.51-1.78l-1.278-7.537a2.176 2.176 0 0 1 1.786-2.506s1.548-.263 2.595-.439c1.046-.177 1.254-2.544 1.253-2.545h.004a32.327 32.327 0 0 1 5.897-15.9 32.416 32.416 0 0 1 13.109-10.785s2.172-.975 1.994-2.02l-.44-2.59a2.178 2.178 0 0 1 1.785-2.506l7.555-1.273c1.186-.2 2.31.597 2.51 1.78l.44 2.59c.177 1.045 2.55 1.251 2.55 1.253v.001zm-3.38 51.172c10.304 0 18.658-8.342 18.658-18.633 0-10.29-8.354-18.633-18.659-18.633s-18.659 8.342-18.659 18.633c0 10.291 8.354 18.633 18.66 18.633zm-.125-12.366c-3 0-5.433-2.427-5.433-5.421a5.427 5.427 0 0 1 5.433-5.422c3 0 5.433 2.427 5.433 5.422a5.427 5.427 0 0 1-5.433 5.421z"/><path stroke="#FFF" stroke-width="2" d="M397.92 81.55a14.761 14.761 0 0 1 7.242 2.675 14.72 14.72 0 0 1 4.912 5.946h.002s.443.984.919.905l1.18-.199a.99.99 0 0 1 1.141.81l.581 3.426a.99.99 0 0 1-.811 1.139l-1.18.2c-.463.077-.565 1.096-.572 1.153a14.694 14.694 0 0 1-2.68 7.23 14.737 14.737 0 0 1-5.96 4.901l.001.002s-.988.443-.907.917l.2 1.177a.989.989 0 0 1-.812 1.139l-3.433.58a.99.99 0 0 1-1.141-.81l-.2-1.178c-.08-.474-1.159-.568-1.16-.568v-.002a14.76 14.76 0 0 1-7.24-2.675 14.718 14.718 0 0 1-4.912-5.945h-.001s-.444-.986-.92-.906l-1.18.2a.99.99 0 0 1-1.141-.81l-.58-3.426a.99.99 0 0 1 .81-1.14l1.18-.198c.476-.081.57-1.157.57-1.157h.002a14.694 14.694 0 0 1 2.68-7.228 14.735 14.735 0 0 1 5.959-4.902s.987-.443.906-.918l-.2-1.177a.99.99 0 0 1 .812-1.14l3.434-.578a.99.99 0 0 1 1.141.81l.2 1.177c.08.474 1.159.568 1.159.569zm-1.536 23.26c4.684 0 8.481-3.792 8.481-8.47 0-4.678-3.797-8.47-8.481-8.47s-8.481 3.792-8.481 8.47c0 4.678 3.797 8.47 8.481 8.47zm.85-6.075a2.467 2.467 0 0 1-2.47-2.464c0-1.36 1.107-2.464 2.47-2.464s2.47 1.103 2.47 2.464a2.467 2.467 0 0 1-2.47 2.464zm-50.908 195.318a48.437 48.437 0 0 1 25.13 3.209c8.245 3.391 15.055 8.787 20.096 15.39l.005-.003s2.144 2.823 3.606 2.219c1.461-.611 3.626-1.509 3.626-1.509a3.25 3.25 0 0 1 4.248 1.746l4.387 10.53c.686 1.65-.1 3.55-1.753 4.24l-3.626 1.508c-1.421.59-.997 3.926-.975 4.11 1.137 8.23.17 16.862-3.234 25.1a48.362 48.362 0 0 1-15.435 20.073l.002.005s-2.832 2.145-2.223 3.602l1.506 3.617a3.244 3.244 0 0 1-1.753 4.242l-10.55 4.388a3.252 3.252 0 0 1-4.246-1.746l-1.508-3.62c-.607-1.458-4.124-.962-4.128-.962l-.002-.005a48.43 48.43 0 0 1-25.126-3.209c-8.244-3.39-15.053-8.784-20.094-15.386l-.004.002s-2.146-2.825-3.609-2.22c-1.459.61-3.626 1.509-3.626 1.509a3.25 3.25 0 0 1-4.246-1.744l-4.386-10.529a3.246 3.246 0 0 1 1.754-4.242l3.625-1.508c1.461-.609.97-4.119.967-4.12l.005-.002c-1.136-8.227-.168-16.856 3.236-25.09a48.354 48.354 0 0 1 15.432-20.074v-.002s2.83-2.144 2.22-3.604l-1.507-3.617a3.249 3.249 0 0 1 1.753-4.241l10.552-4.386a3.25 3.25 0 0 1 4.247 1.744l1.507 3.62c.609 1.458 4.126.961 4.126.963l.001.002zm12.26 75.517c14.977-3.458 24.319-18.387 20.866-33.346-3.454-14.958-18.395-24.281-33.372-20.823-14.978 3.458-24.32 18.387-20.866 33.345 3.453 14.959 18.394 24.282 33.371 20.824zM117.21 277.84a32.181 32.181 0 0 1 4.8 7.401h.004s1.007 2.167 2.088 1.993c1.081-.179 2.682-.439 2.682-.439 1.224-.2 2.384.596 2.593 1.78l1.32 7.54c.205 1.182-.62 2.304-1.843 2.505l-2.681.438c-1.051.172-1.285 2.414-1.299 2.538a31.404 31.404 0 0 1-2.018 8.526s-.873 2.22.019 2.834c.896.613 2.218 1.521 2.218 1.521 1.012.696 1.25 2.052.529 3.032l-4.584 6.231c-.721.979-2.124 1.208-3.137.513l-2.216-1.524c-.893-.611-2.777.916-2.778.917a33.651 33.651 0 0 1-7.663 4.64v.003s-2.245.974-2.061 2.017l.453 2.59c.206 1.184-.618 2.305-1.843 2.506l-7.802 1.275c-1.224.198-2.385-.598-2.592-1.78l-.454-2.592c-.182-1.044-2.633-1.25-2.635-1.251v-.003a34.436 34.436 0 0 1-8.815-1.95v.001s-2.3-.843-2.934.02l-1.575 2.14c-.72.98-2.124 1.21-3.137.513l-6.449-4.43a2.126 2.126 0 0 1-.53-3.03l1.575-2.14c.635-.865-.946-2.687-.947-2.687a32.18 32.18 0 0 1-4.8-7.401h-.003s-1.009-2.169-2.09-1.994c-1.08.179-2.68.439-2.68.439-1.225.2-2.386-.597-2.594-1.78l-1.319-7.538c-.205-1.184.619-2.306 1.844-2.506l2.68-.438c1.081-.178 1.296-2.544 1.295-2.545l.003-.001c.268-2.88.936-5.747 2.017-8.518s.874-2.22-.02-2.835a1869.89 1869.89 0 0 0-2.216-1.522c-1.01-.695-1.248-2.054-.529-3.032l4.584-6.232c.72-.977 2.125-1.207 3.138-.513l2.214 1.525c.79.54 2.351-.587 2.707-.858a33.639 33.639 0 0 1 7.735-4.7s2.243-.974 2.06-2.02l-.454-2.59c-.206-1.182.619-2.303 1.843-2.505l7.802-1.273c1.226-.2 2.386.597 2.594 1.78l.453 2.59c.183 1.044 2.633 1.25 2.633 1.252v.002c2.991.26 5.967.907 8.843 1.958.252.089 2.315.78 2.91-.029l1.575-2.14c.719-.978 2.125-1.208 3.137-.513l6.449 4.43c1.011.696 1.25 2.053.529 3.031l-1.575 2.142c-.635.862.945 2.684.948 2.685zm-25.04 39.607c10.305 0 18.658-8.343 18.658-18.633s-8.353-18.634-18.659-18.634c-10.305 0-18.659 8.343-18.659 18.634 0 10.29 8.354 18.633 18.66 18.633zm.435-13.363c-3 0-5.433-2.427-5.433-5.422a5.427 5.427 0 0 1 5.433-5.421c3 0 5.432 2.427 5.432 5.421a5.427 5.427 0 0 1-5.432 5.422zm368.73-186.235a40.67 40.67 0 0 1 7.135 8.413h.004s1.605 2.53 2.888 2.128c1.283-.407 3.184-1.005 3.184-1.005a2.761 2.761 0 0 1 3.465 1.778l2.927 9.18c.457 1.439-.35 2.98-1.802 3.44 0 0-1.901.599-3.183 1.005-1.248.393-1.138 3.23-1.134 3.387a40.42 40.42 0 0 1-.959 10.981s-.672 2.92.52 3.533c1.196.61 2.963 1.518 2.963 1.518a2.724 2.724 0 0 1 1.175 3.691l-4.482 8.557a2.777 2.777 0 0 1-3.723 1.176l-2.962-1.522c-1.194-.61-3.216 1.617-3.217 1.618a41.132 41.132 0 0 1-8.505 7.097l.002.005s-2.559 1.598-2.153 2.868l1.005 3.154a2.742 2.742 0 0 1-1.802 3.44l-9.262 2.925c-1.454.455-3.006-.339-3.464-1.779 0 0-.601-1.881-1.006-3.156-.405-1.27-3.42-1.109-3.424-1.11l-.001-.003a41.372 41.372 0 0 1-11.059-.925s-2.944-.659-3.565.525c-.62 1.186-1.54 2.94-1.54 2.94a2.773 2.773 0 0 1-3.723 1.175l-8.618-4.423a2.722 2.722 0 0 1-1.176-3.69l1.54-2.939c.62-1.187-1.621-3.19-1.622-3.19a40.667 40.667 0 0 1-7.135-8.412h-.004s-1.606-2.533-2.89-2.13c-1.28.408-3.182 1.006-3.182 1.006-1.454.46-3.006-.337-3.466-1.777l-2.925-9.178a2.743 2.743 0 0 1 1.803-3.442l3.182-1.005c1.283-.406 1.13-3.395 1.128-3.396l.004-.001c-.18-3.64.13-7.329.959-10.97l-.001-.001s.673-2.92-.521-3.533c-1.192-.614-2.961-1.52-2.961-1.52a2.726 2.726 0 0 1-1.175-3.692l4.481-8.558a2.783 2.783 0 0 1 3.725-1.175s1.767.908 2.96 1.523c1.055.538 2.756-1.133 3.14-1.533a41.121 41.121 0 0 1 8.582-7.183v-.001s2.557-1.599 2.15-2.872c-.404-1.27-1.006-3.153-1.006-3.153-.457-1.44.35-2.98 1.802-3.441l9.264-2.921c1.455-.459 3.005.337 3.465 1.776l1.005 3.155c.406 1.271 3.422 1.11 3.422 1.112v.002a41.375 41.375 0 0 1 11.096.932c.321.067 2.952.578 3.533-.533l1.54-2.94a2.777 2.777 0 0 1 3.723-1.175l8.619 4.425a2.722 2.722 0 0 1 1.174 3.69l-1.54 2.941c-.62 1.183 1.62 3.186 1.624 3.187v.001zm-23.503 53.688c12.53-1.76 21.225-13.595 19.421-26.433-1.804-12.837-13.424-21.817-25.954-20.056-12.53 1.761-21.225 13.596-19.421 26.433 1.804 12.838 13.424 21.817 25.954 20.056zm-1.813-16.744c-3.648.513-7.031-2.1-7.556-5.835-.525-3.735 2.007-7.179 5.655-7.691 3.648-.513 7.03 2.1 7.556 5.834.525 3.736-2.007 7.18-5.655 7.692z"/><g transform="translate(244.543 188.39)"><path stroke="#FFF" stroke-width="2" d="M94.9 26.588a48.473 48.473 0 0 1 6.973 11.103h.005s1.462 3.25 3.032 2.988c1.57-.267 3.894-.657 3.894-.657a3.268 3.268 0 0 1 3.767 2.67l1.917 11.31a3.266 3.266 0 0 1-2.677 3.757s-2.326.391-3.894.658c-1.526.257-1.865 3.62-1.886 3.806a48.398 48.398 0 0 1-2.93 12.79s-1.269 3.33.026 4.25c1.302.92 3.222 2.282 3.222 2.282a3.257 3.257 0 0 1 .768 4.547l-6.658 9.347a3.271 3.271 0 0 1-4.555.77s-1.922-1.364-3.218-2.286c-1.298-.917-4.034 1.374-4.035 1.376l-.001-.001a48.602 48.602 0 0 1-11.13 6.96l.002.005s-3.26 1.46-2.994 3.025l.657 3.885a3.262 3.262 0 0 1-2.676 3.759l-11.33 1.913a3.27 3.27 0 0 1-3.766-2.671s-.394-2.318-.659-3.888c-.265-1.565-3.823-1.875-3.827-1.876v-.005a48.663 48.663 0 0 1-12.802-2.923s-3.34-1.265-4.262.03c-.92 1.294-2.288 3.21-2.288 3.21a3.266 3.266 0 0 1-4.555.769l-9.366-6.644a3.255 3.255 0 0 1-.77-4.546s1.367-1.916 2.288-3.21c.922-1.297-1.374-4.03-1.376-4.03a48.47 48.47 0 0 1-6.972-11.102h-.004s-1.464-3.253-3.034-2.99c-1.568.268-3.894.658-3.894.658a3.267 3.267 0 0 1-3.767-2.67L.21 61.65a3.264 3.264 0 0 1 2.678-3.759l3.893-.658c1.57-.266 1.881-3.816 1.88-3.817l.005-.001a48.399 48.399 0 0 1 2.929-12.777h-.001s1.27-3.331-.029-4.253c-1.294-.92-3.218-2.283-3.218-2.283a3.26 3.26 0 0 1-.768-4.547l6.658-9.35a3.277 3.277 0 0 1 4.557-.767l3.216 2.286c1.146.81 3.415-.88 3.93-1.287a48.59 48.59 0 0 1 11.235-7.048v-.002s3.258-1.46 2.991-3.029l-.659-3.884a3.267 3.267 0 0 1 2.677-3.76L53.516.806c1.78-.3 3.465.895 3.767 2.67l.657 3.886c.267 1.566 3.825 1.876 3.825 1.877v.003a48.666 48.666 0 0 1 12.843 2.938c.366.133 3.363 1.17 4.227-.043l2.287-3.21a3.271 3.271 0 0 1 4.555-.77l9.367 6.646a3.255 3.255 0 0 1 .768 4.545l-2.288 3.214c-.922 1.292 1.374 4.025 1.377 4.026v.001zM56.695 86c15.458 0 27.989-12.513 27.989-27.95 0-15.436-12.531-27.95-27.99-27.95-15.457 0-27.988 12.514-27.988 27.95C28.706 73.486 41.237 86 56.695 86z"/><ellipse cx="56.351" cy="58.819" fill="#FFF" fill-rule="nonzero" rx="8.149" ry="8.132"/></g><path stroke="#FFF" stroke-width="2" d="M256.695 285.16a48.424 48.424 0 0 1 7.562 11.177h.005s1.586 3.271 3.289 3.008c1.702-.27 4.223-.662 4.223-.662 1.929-.301 3.757.9 4.086 2.69l2.079 11.383c.324 1.784-.977 3.48-2.903 3.783 0 0-2.523.394-4.224.662-1.655.258-2.022 3.644-2.045 3.831a45.793 45.793 0 0 1-3.179 12.875s-1.375 3.352.03 4.28c1.41.924 3.494 2.295 3.494 2.295 1.593 1.052 1.968 3.099.833 4.578l-7.221 9.41c-1.135 1.477-3.345 1.824-4.94.774 0 0-2.085-1.373-3.491-2.301-1.408-.923-4.375 1.383-4.376 1.385h-.001a53.492 53.492 0 0 1-12.07 7.005v.005s-3.536 1.471-3.247 3.046l.713 3.91c.326 1.788-.973 3.481-2.903 3.785l-12.288 1.925c-1.928.298-3.758-.903-4.084-2.689 0 0-.427-2.333-.714-3.913-.288-1.576-4.148-1.887-4.151-1.889l-.001-.005a56.248 56.248 0 0 1-13.884-2.943v.001s-3.622-1.273-4.623.029a3033.67 3033.67 0 0 1-2.48 3.233c-1.134 1.48-3.346 1.826-4.94.773l-10.16-6.688c-1.595-1.048-1.968-3.098-.834-4.576 0 0 1.482-1.929 2.48-3.231 1.001-1.306-1.49-4.057-1.49-4.057a48.422 48.422 0 0 1-7.563-11.176h-.005s-1.588-3.275-3.29-3.01c-1.7.27-4.224.662-4.224.662-1.928.303-3.757-.901-4.085-2.687l-2.077-11.382c-.324-1.788.975-3.483 2.905-3.784l4.221-.662c1.703-.268 2.041-3.842 2.04-3.843l.005-.001a45.794 45.794 0 0 1 3.177-12.862h-.001s1.377-3.353-.031-4.282c-1.404-.926-3.49-2.298-3.49-2.298-1.592-1.05-1.967-3.101-.834-4.577l7.221-9.411c1.134-1.474 3.347-1.821 4.942-.774l3.489 2.302c1.243.815 3.703-.885 4.263-1.295a53.465 53.465 0 0 1 12.184-7.096v-.001s3.534-1.47 3.245-3.05l-.715-3.91c-.324-1.786.975-3.479 2.903-3.784l12.29-1.922c1.93-.302 3.758.901 4.086 2.687l.713 3.912c.289 1.577 4.148 1.889 4.148 1.89v.003a56.25 56.25 0 0 1 13.93 2.958c.396.133 3.646 1.178 4.583-.044l2.481-3.232c1.132-1.477 3.347-1.824 4.94-.775l10.16 6.69c1.593 1.05 1.967 3.099.832 4.576l-2.48 3.235c-1.001 1.3 1.489 4.052 1.493 4.054h-.001zm-41.231 63.986c15.458 0 27.989-12.514 27.989-27.95s-12.531-27.95-27.99-27.95c-15.457 0-27.988 12.514-27.988 27.95s12.531 27.95 27.989 27.95z"/></g></g><g transform="translate(-21 -31)"><mask id="e" fill="#fff"><use xlink:href="#d"/></mask><path stroke="#FFF" stroke-width="2" d="M316.189 204.384h15.95c1.106 0 2.003.9 2.003 2v47.83a2 2 0 0 1-2.002 2.001h-22.925c-1.106 0-2.002-.9-2.002-2v-25.909h-9.974v23.924c0 2.2-1.788 3.985-3.98 3.985h-58.864a3.987 3.987 0 0 1-3.98-3.985v-23.924h-15.933c.468 5.71 1.1 11.661 1.833 14.049 1.585 5.164 5.966 7.88 8.614 9.873H186.53h37.259c.826 0 1.738.634 2.026 1.39l.61 1.6h-40.658a2.99 2.99 0 0 1-2.233.997H25.957a2.991 2.991 0 0 1-2.996-2.992v-4.982h72.66-57.7v-83.717a3.993 3.993 0 0 1 3.982-3.996H56.87V38.926a5.978 5.978 0 0 1 5.982-5.981h247.355a5.982 5.982 0 0 1 5.981 5.98v163.466h-18.95 18.95v1.993zm-85.774-1.993H171.57h58.845zM94.772 248.24v1.495c0 .832.67 1.495 1.499 1.495h16.949c.835 0 1.5-.67 1.5-1.495v-1.495H94.771z" mask="url(#e)"/><path stroke="#FFF" stroke-width="2" d="M70.655 159.056l.18-112.157h231.39v141.537l-5.007.124m-82.146 39.89l-43.052.041m58.823-40.853l-58.311.174m94.786 63.918a2.493 2.493 0 1 0-4.986.001 2.493 2.493 0 0 0 4.986-.001z" mask="url(#e)"/><path stroke="#FFF" stroke-width="2" d="M234.903 175.479h58.845v71.765h-58.845z" mask="url(#e)"/><path stroke="#FFF" stroke-width="2" d="M230.415 228.125l.584-57.621a4.043 4.043 0 0 1 4.033-3.996h58.215a3.993 3.993 0 0 1 3.992 3.993v56.869m-125.566 20.752l14.546.325-.5 5.628M57.545 160.528h110.033a3.996 3.996 0 0 1 3.992 3.996v83.717h-56.496" mask="url(#e)"/><use mask="url(#f)" xlink:href="#a" stroke="#FFF" stroke-width="4"/><path stroke="#FFF" stroke-width="2" d="M44.903 167.505v74.756h119.685v-74.756zM310.206 211.362h20.945v37.876h-20.945z" mask="url(#e)"/><path stroke="#FFF" stroke-width="2" d="M307.226 228.201l-.012-21.817a2 2 0 0 1 1.993-2h7.744" mask="url(#e)"/></g></g></svg>