<svg xmlns="http://www.w3.org/2000/svg" viewBox="0 0 465 271" xmlns:xlink="http://www.w3.org/1999/xlink">
  <defs>
    <path id="b" d="M498.382812.1640625V298.003257H.4453125z"/>
    <path id="d" d="M0 0h502.414062L0 305.003257z"/>
    <rect id="a" width="2.99212598" height="2.99022801" x="319.181102" y="251.23127" rx="1.49511401"/>
    <mask id="f" width="2.99212598" height="2.99022801" x="0" y="0" fill="#fff">
      <use xlink:href="#a"/>
    </mask>
  </defs>
  <g fill="none" fill-rule="evenodd">
    <g>
      <g>
        <path d="M-21-28h500v300H-21z"/>
        <g transform="translate(-18 -27)">
          <mask id="c" fill="#fff">
            <use xlink:href="#b"/>
          </mask>
          <g mask="url(#c)">
            <g>
              <path stroke="#FFF" stroke-width="2" d="M292.09554 183.935817c-10.35479 18.64934-33.889425 25.384551-52.564717 15.042904-18.675292-10.340401-25.419875-33.842331-15.063837-52.491672 10.355414-18.64934 33.889424-25.3845507 52.564716-15.042904 18.675292 10.341024 25.419875 33.842331 15.063838 52.491672zm-18.622907-46.083414c-15.130566-8.378689-34.197499-2.921393-42.587848 12.18877-8.390348 15.110163-2.926706 34.1506 12.204484 42.529289 15.13119 8.378067 34.198123 2.921394 42.589095-12.188146 8.389725-15.110163 2.926082-34.151223-12.205731-42.529913zm2.313274 51.905625c.556574.924315-3.379713 3.285779-3.935735 2.360913l-11.480061-19.084619c-2.015299.539911-4.234611.329754-6.203442-.760606-1.968912-1.090256-3.322947-2.858504-3.931954-4.851143l-22.291569.385458c-1.080052.018177-1.158932-4.565939-.079432-4.584117l22.28922-.38595c.172874-.643006.426321-1.275516.764203-1.884075 1.846883-3.326422 5.638727-4.895242 9.173464-4.076524l10.810802-19.469265c.523478-.943044 4.539196 1.28071 4.015719 2.223753l-10.811044 19.468722c2.567974 2.560074 3.244008 6.602443 1.396721 9.929226-.337794.608251-.740595 1.157736-1.194944 1.644601l11.478052 19.083626zm-16.126729-27.026759c-1.371991-.759774-3.100699-.265298-3.860907 1.104786s-.265667 3.095768 1.1057 3.854919c1.371991.759775 3.1007.265299 3.860907-1.104786.760208-1.370084.265668-3.095145-1.1057-3.854919zM403.467922 215.277964c-8.454938 15.227639-27.671538 20.727102-42.920368 12.282897-15.248829-8.443189-20.755945-27.633086-12.299989-42.860725 8.455447-15.227639 27.671539-20.727102 42.920368-12.282897 15.248829 8.443697 20.755945 27.633086 12.299989 42.860725zm-15.206056-37.628226c-12.354474-6.841403-27.923088-2.385389-34.774011 9.952426-6.850924 12.337815-2.389727 27.884795 9.965257 34.726198 12.354984 6.840895 27.923597 2.385389 34.77503-9.951918 6.850414-12.337815 2.389217-27.885303-9.966276-34.726706zm1.888844 42.382203c.454457.754725-2.759617 2.682918-3.213623 1.927743l-9.373748-15.583055c-1.645541.44085-3.457663.269252-5.065261-.621054-1.607665-.89022-2.713267-2.334038-3.210536-3.961076l-18.201607.314736c-.881889.014843-.946296-3.7282-.064858-3.743043l18.199689-.315137c.141156-.52503.348102-1.04149.62399-1.538393 1.508025-2.716105 4.604158-3.997084 7.490356-3.328581l8.827283-15.897128c.427432-.770018 3.706363 1.045731 3.278931 1.815749l-8.827479 15.896684c2.096813 2.090363 2.648811 5.391055 1.140457 8.107454-.275818.496652-.604714.94532-.975701 1.342856l9.372107 15.582245zm-13.167865-22.068005c-1.120264-.620374-2.531796-.216623-3.152525.902084-.620728 1.118708-.216923 2.52777.902831 3.147636 1.120264.620374 2.531797.216622 3.152525-.902085.620728-1.118707.216924-2.527261-.902831-3.147635z"/>
              <path stroke="#FFF" stroke-width="2" d="M177.449376 143.976533c2.369503 1.138462 4.648699 2.403384 6.831867 3.783736l.822832-.974089s2.37136 1.130711 3.123926.235216c.758548-.895495 3.827438-4.532397 3.827438-4.532397.855461-1.012507 2.373753-1.141458 3.389538-.288947l6.465606 5.436251c1.014588.856093 1.145001 2.368882.289541 3.382582 0 0-3.06889 3.636903-3.822653 4.531204-.757351.893107.762138 3.036324.760942 3.036324l-.840429.994921c1.744051 1.934692 3.370836 3.964295 4.874038 6.076638l1.156583-.597728s1.755189 1.950985 2.797296 1.4113c1.039713-.534909 5.271551-2.724692 5.271551-2.724692 1.179698-.608937 2.629793-.14925 3.241178 1.026834l3.89085 7.492306c.606599 1.174889.145966 2.623203-1.031339 3.233334 0 0-4.229444 2.188589-5.271551 2.725886-1.039713.538491-.459436 3.097218-.457043 3.096024l-1.0857.561731c.888164 2.450238 1.636145 4.955047 2.237513 7.502037l1.156136-.09864s.874603 2.473953 2.043533 2.374852c1.166537-.100295 5.91524-.507447 5.91524-.507447 1.322076-.111041 2.48622.868033 2.602275 2.187395l.720262 8.4081c.11127 1.320556-.869818 2.482311-2.190697 2.594547 0 0-4.749899.404763-5.916436.503865-1.166537.097907-1.611616 2.686484-1.612812 2.687678l-.978861.08358c-.110308 2.618031-.375217 5.248947-.80075 7.88114l.860738.272639s-.138788 2.620814.976302 2.974236c1.118679.353422 5.660397 1.792184 5.660397 1.792184 1.264646.399988 1.964568 1.750394 1.563758 3.011251l-2.558007 8.043931c-.403203 1.262051-1.753993 1.960537-3.019835 1.560549 0 0-4.541717-1.437568-5.660397-1.792184-1.112696-.353422-2.51613 1.865018-2.51613 1.866212l-.638896-.202541c-1.131352 2.466132-2.399089 4.837674-3.791134 7.108381l.421928.354832s-1.133036 2.364106-.2357 3.11871c.894943.754603 4.540521 3.817195 4.540521 3.817195 1.012195.853706 1.143804 2.367689.287148 3.382583l-5.447429 6.452339c-.855461 1.011312-2.371361 1.145039-3.388342.288946 0 0-3.641988-3.06498-4.539324-3.816002-.897336-.756992-3.041371.762962-3.041371.764156l-.224386-.188789c-2.013684 1.865124-4.134584 3.601509-6.348471 5.201798l.083321.160563s-1.956192 1.751587-1.415398 2.791555c.540795 1.03758 2.732688 5.260734 2.732688 5.260734.610188 1.174889.148359 2.625591-1.028946 3.232139l-7.507712 3.885254c-1.180895.608936-2.63099.146861-3.242375-1.02564 0 0-2.191893-4.223154-2.732688-5.263122-.406635-.787144-1.980427-.643166-2.716977-.527286-3.002296 1.134373-6.089752 2.058364-9.239264 2.760032-.703176.363699-1.563815.955695-1.503801 1.653702.101698 1.162949.509687 5.89952.509687 5.89952.110073 1.325332-.868622 2.483505-2.191893 2.600517l-8.425389.718783c-1.3244678.109848-2.488612-.869227-2.6022745-2.187395 0 0-.4043995-4.737765-.5049012-5.904296-.0467944-.535658-.6204792-.91863-1.2263864-1.176133-3.8040157-.071841-7.6401593-.466941-11.4727572-1.203742-.5655014.131792-1.0841727.376947-1.2275137.828878-.3541487 1.113996-1.7958688 5.647588-1.7958688 5.647588-.4008101 1.264438-1.7539931 1.96173-3.0198353 1.562936l-8.0580787-2.553951c-1.2658423-.402375-1.9657645-1.750394-1.5661508-3.012444 0 0 1.4429166-4.532398 1.7982617-5.647588.1261073-.394918-.0728156-.825927-.3819534-1.21762-3.818259-1.650011-7.4185993-3.621435-10.7788162-5.871506-.4492244-.028464-.8643909.048647-1.1088069.339483-.7585482.893107-3.8274378 4.528816-3.8274378 4.528816-.8542641 1.012506-2.3725569 1.147428-3.387145.291335l-6.467999-5.438639c-1.0145881-.853705-1.1461974-2.366494-.2895405-3.379 0 0 3.0700861-3.638097 3.8238485-4.532398.2408336-.285665.2504573-.698058.1518373-1.127257-2.8704828-2.991072-5.4493204-6.229984-7.7111634-9.667917-.4147582-.2096-.8413449-.306967-1.1879068-.127475-1.0385171.537297-5.2715509 2.725886-5.2715509 2.725886-1.1796979.607743-2.6297932.150443-3.2411782-1.026834l-3.8896532-7.493501c-.6101886-1.176083-.1483596-2.624396 1.0289455-3.234527 0 0 4.2294444-2.187395 5.2739437-2.725886.3787886-.194443.5420807-.657823.5966195-1.168431-1.4176604-3.704353-2.5126968-7.539601-3.2624022-11.462012-.3370986-.463883-.7593493-.840174-1.2286562-.800785-1.1677335.096713-5.9164365.503865-5.9164365.503865-1.3244682.111041-2.4886123-.866839-2.6022749-2.186202l-.7202618-8.408099c-.1100732-1.320556.8686214-2.482312 2.1918932-2.594547 0 0 4.7498994-.404764 5.91524-.503865.5693237-.048317.9660184-.687816 1.2233618-1.330695.1437457-3.511732.5656363-7.04685 1.2802202-10.577333-.0708039-.783003-.2919727-1.779787-.9493958-1.988858-1.1174826-.352228-5.6603965-1.792183-5.6603965-1.792183-1.2646458-.399988-1.9621751-1.7492-1.5637579-3.012445l2.5603992-8.042737c.4008102-1.263245 1.7504038-1.960537 3.0174424-1.561743 0 0 4.5429139 1.438761 5.6603966 1.792183 1.1126968.354616 2.5161306-1.866211 2.5149341-1.863823l.0144513.004575c1.2252064-2.500221 2.5925898-4.898558 4.088922-7.18817l-.0916824-.077077s1.1330365-2.368882.2357003-3.122292c-.8937468-.753409-4.5393245-3.816002-4.5393245-3.816002-1.016981-.853705-1.1485903-2.370076-.2895405-3.381388l5.4462323-6.454727c.8578534-1.011312 2.3737533-1.141457 3.3859485-.287752 0 0 3.6467741 3.063786 4.5429139 3.817196.8973361.753409 3.0413713-.762962 3.0413713-.762962l.2992469.251559c2.0445479-1.787672 4.1910691-3.447252 6.4257178-4.971581l-.2354295-.45355s1.9549964-1.75517 1.4153982-2.793944c-.5395981-1.038774-2.7326877-5.261927-2.7326877-5.261927-.6089922-1.176084-.1483596-2.624397 1.0289455-3.233334l7.5077125-3.880477c1.1808944-.610131 2.6309897-.150443 3.2423747 1.026834 0 0 2.1918932 4.223153 2.7326878 5.260733.5336159 1.036386 3.1011938.454912 3.1023902.454912l.3511942.676568c2.515918-.857475 5.0864657-1.569004 7.6985512-2.127819l-.0730251-.851962s2.4790407-.875197 2.378539-2.040534c-.1005016-1.165337-.5049011-5.903102-.5049011-5.903102-.1124661-1.320556.867425-2.481118 2.1906967-2.594547l8.4253884-.7187837c1.3220752-.1122354 2.4874158.8656447 2.6022748 2.1862017 0 0 .4032031 4.737764.5049012 5.904295.0969123 1.164144 2.6908121 1.607115 2.6896151 1.607115l.089479 1.047328c2.601085.162199 5.212837.476632 7.823973.949132l.343238-1.079473s2.623811.137309 2.979156-.975492c.354148-1.113996 1.795869-5.647588 1.795869-5.647588.40081-1.26205 1.753993-1.96173 3.018638-1.560549l8.059276 2.552757c1.264645.401182 1.96696 1.750394 1.563757 3.013639 0 0-1.442916 4.533592-1.795868 5.647587-.354149 1.112802 1.867655 2.513356 1.867655 2.512162l-.379097 1.192618zm-29.6600873 118.781631c31.3117263 0 56.6948953-25.347896 56.6948953-56.616111 0-31.268215-25.383169-56.616111-56.6948953-56.616111-31.3117261 0-56.6948954 25.347896-56.6948954 56.616111 0 31.268215 25.3831693 56.616111 56.6948954 56.616111zm7.5229643-68.805106c2.126301 1.340804 3.808659 3.215979 4.921378 5.383l41.314248-9.056482 1.509456 6.866776-41.306487 9.054781c-.049361 1.204076-.258418 2.421559-.641141 3.625495-.382995 1.203626-.91567 2.318385-1.57103 3.33031l28.502245 31.154878-5.200383 4.744392-28.509858-31.1632c-2.168945 1.133722-4.6365266 1.6972-7.1571683 1.56338l-12.7633628 40.219814-6.7115867-2.123941 12.7679419-40.234244c-2.1221884-1.343506-3.8008322-3.220125-4.9100733-5.387634l-41.2930136 9.060271-1.5113437-6.868957 41.2969252-9.061129c.0511178-1.197211.2602435-2.407494.6411435-3.604353.3829703-1.20413.9157765-2.319288 1.57137-3.331505l-28.5105028-31.177371 5.1977851-4.739973 28.5166586 31.184102c2.1633778-1.131433 4.623981-1.695344 7.1377358-1.565686l12.7908051-40.231246 6.709113 2.127118-12.790855 40.231404zM434.988821 231.027792c1.464083.70344 2.872367 1.485018 4.221316 2.337918l.508417-.601876s1.465231.698651 1.930231.145337c.468696-.553314 2.364921-2.800506 2.364921-2.800506.528577-.625613 1.466709-.70529 2.094348-.178536l3.995009 3.358985c.6269.528968.70748 1.463699.178903 2.09005 0 0-1.896224 2.247193-2.361964 2.799769-.467957.551838.470914 1.876103.470175 1.876103l-.519289.614747c1.077625 1.195419 2.082793 2.449484 3.011601 3.754671l.714636-.369328s1.084508 1.205486 1.728411.872023c.642424-.330513 3.257218-1.68355 3.257218-1.68355.728919-.376253 1.624913-.092219 2.002679.634467l2.404103 4.629392c.374809.725948.09019 1.620841-.63725 1.997832 0 0-2.613315 1.352299-3.257218 1.684288-.642425.332726-.28388 1.913728-.282401 1.91299l-.670839.347086c.548784 1.513968 1.010951 3.061655 1.382528 4.635405l.71436-.060948s.540406 1.528621 1.262672 1.467388c.720787-.061971 3.654945-.313545 3.654945-.313545.816892-.06861 1.5362.536346 1.607909 1.351562l.44504 5.195248c.068752.815954-.537448 1.533786-1.353601 1.603135 0 0-2.934897.250098-3.655684.311331-.720788.060496-.995796 1.659942-.996535 1.66068l-.604824.051642c-.068158 1.617646-.231842 3.243252-.494773 4.869648l.531839.168459s-.085755 1.619366.603243 1.83774c.691216.218375 3.497481 1.107366 3.497481 1.107366.781407.247147 1.213879 1.081544.966224 1.86061l-1.580556 4.970234c-.249134.779804-1.083769 1.211388-1.865915.964242 0 0-2.806264-.888254-3.497481-1.107366-.68752-.218374-1.554682 1.152368-1.554682 1.153106l-.394765-.125147c-.699047 1.523789-1.482364 2.989132-2.34249 4.392171l.260704.219245s-.700087 1.460749-.145636 1.927008c.552973.466259 2.805526 2.358592 2.805526 2.358592.625421.527493.706741 1.462962.177424 2.090051l-3.365891 3.986811c-.528577.624876-1.465231.707504-2.093609.178536 0 0-2.250334-1.893809-2.804786-2.357855-.554452-.467734-1.879221.471424-1.879221.472162l-.138645-.116651c-1.244228 1.152435-2.554703 2.225323-3.922632 3.21412l.051483.099209s-1.208705 1.082282-.874555 1.724864c.334149.641106 1.68849 3.250535 1.68849 3.250535.377027.725947.091669 1.622316-.635772 1.997094l-4.638912 2.400644c-.729658.376254-1.625652.090744-2.003418-.633729 0 0-1.35434-2.609428-1.68849-3.25201-.251254-.486365-1.223679-.397403-1.678783-.325802-1.855077.700913-3.762773 1.271834-5.708813 1.705385-.434483.224725-.96626.590511-.929178 1.021799.062838.718571.314928 3.645232.314928 3.645232.068013.818905-.536709 1.534524-1.35434 1.606824l-5.205931.444126c-.818371.067874-1.537679-.537083-1.60791-1.351561 0 0-.249873-2.927399-.311971-3.648183-.028914-.330976-.383386-.567609-.757768-.726716-2.350448-.04439-4.720748-.288517-7.088858-.743776-.349415.081433-.669895.232911-.758463.512153-.218824.688322-1.109643 3.489566-1.109643 3.489566-.247655.781279-1.083768 1.212126-1.865914.965717l-4.978976-1.578051c-.782146-.248623-1.214619-1.081544-.967703-1.861348 0 0 .891558-2.800506 1.111121-3.489566.07792-.244015-.044991-.51033-.236003-.752351-2.35925-1.019519-4.58385-2.237634-6.660082-3.627922-.27757-.017588-.534095.030058-.685116.209762-.468697.551838-2.364921 2.798292-2.364921 2.798292-.527838.625614-1.46597.70898-2.09287.180012l-3.996488-3.36046c-.6269-.527492-.708219-1.462224-.178903-2.087838 0 0 1.896964-2.247929 2.362703-2.800505.148808-.176509.154754-.431321.093819-.696517-1.773632-1.848142-3.36706-3.849421-4.764622-5.973672-.256273-.129509-.519855-.189671-.733991-.078765-.641685.331988-3.257218 1.684287-3.257218 1.684287-.728919.375516-1.624913.092957-2.00268-.634466l-2.403363-4.630131c-.377027-.726685-.091669-1.621578.635772-1.99857 0 0 2.613315-1.351561 3.258697-1.684287.234048-.120144.334944-.40646.368643-.721957-.875953-2.288869-1.552561-4.658616-2.015794-7.082219-.208288-.286627-.469191-.519132-.759169-.494794-.721527.059758-3.655685.311331-3.655685.311331-.81837.068611-1.537679-.535608-1.607909-1.350824l-.44504-5.195248c-.068013-.815954.536709-1.533786 1.35434-1.603135 0 0 2.934897-.250098 3.654945-.311331.351778-.029854.59689-.424992.755899-.822218.088818-2.169851.349499-4.354151.79103-6.535588-.043749-.483806-.180406-1.099706-.586618-1.228888-.690478-.217636-3.497481-1.107365-3.497481-1.107365-.781407-.247147-1.212401-1.080806-.966225-1.861348l1.582036-4.969496c.247655-.780542 1.08155-1.211389 1.864436-.96498 0 0 2.807003.888991 3.49748 1.107366.68752.219112 1.554683-1.153106 1.553943-1.151631l.00893.002827c.757038-1.544852 1.601925-3.026751 2.526488-4.441471l-.056649-.047625s.700087-1.463699.145636-1.929221c-.552234-.465521-2.804786-2.357854-2.804786-2.357854-.628379-.527493-.709698-1.464438-.178903-2.089314l3.365151-3.988286c.530056-.624876 1.46671-.705291 2.092131-.177798 0 0 2.253292 1.893071 2.807004 2.358592.554452.465522 1.879221-.471423 1.879221-.471423l.184901.155435c1.263298-1.104578 2.589603-2.130009 3.970362-3.071872l-.145469-.280242s1.207966-1.084495.874555-1.726339c-.33341-.641844-1.68849-3.251272-1.68849-3.251272-.376287-.726686-.091669-1.621579.635772-1.997832l4.638911-2.397694c.729659-.376991 1.625653-.092956 2.003419.634467 0 0 1.35434 2.609428 1.68849 3.250534.329714.640369 1.916185.281084 1.916924.281084l.216998.418042c1.554551-.529822 3.142857-.969466 4.756828-1.31475l-.045121-.526415s1.531765-.540773 1.469667-1.260818c-.062099-.720046-.311972-3.647445-.311972-3.647445-.069491-.815954.53597-1.533049 1.353601-1.603135l5.205931-.444127c.816892-.069348 1.53694.53487 1.60791 1.350824 0 0 .249134 2.927399.311972 3.648183.05988.719308 1.662615.993014 1.661876.993014l.055287.647129c1.607175.10022 3.220941.294504 4.834325.586456l.212082-.666992s1.621216.084842 1.840779-.602743c.218824-.688323 1.109643-3.489566 1.109643-3.489566.247655-.779804 1.083768-1.212127 1.865175-.964242l4.979715 1.577313c.781407.247885 1.215358 1.081545.966224 1.862086 0 0-.891558 2.801244-1.109642 3.489566-.218824.687585 1.153998 1.552968 1.153998 1.55223l-.234239.736902zm-18.326558 73.393529c19.347083 0 35.030992-15.662115 35.030992-34.982313 0-19.320198-15.683909-34.982312-35.030992-34.982312-19.347083 0-35.030992 15.662114-35.030992 34.982312 0 19.320198 15.683909 34.982313 35.030992 34.982313zm4.648336-42.513725c1.313812.828464 2.353318 1.987109 3.040851 3.326082l25.527503-5.595875.932672 4.242886-25.522707 5.594824c-.0305.743982-.159673 1.496248-.396153 2.240143-.236647.743704-.565779 1.432498-.970717 2.057752l17.611143 19.250169-3.213245 2.931494-17.615847-19.255311c-1.340161.700512-2.864846 1.048677-4.422315.965991l-7.886306 24.851268-4.146996-1.312354 7.889135-24.860183c-1.311271-.830134-2.348482-1.989671-3.033867-3.328945l-25.514382 5.598216-.933839-4.244233 25.5168-5.598747c.031585-.73974.1608-1.487557.396153-2.22708.236632-.744015.565846-1.433056.970928-2.058491l-17.616246-19.264066 3.21164-2.928764 17.620049 19.268226c1.336722-.699097 2.857094-1.04753 4.410309-.967416l7.903261-24.858331 4.145468 1.314317-7.903292 24.858428zM357.849508 90.4313214c1.456483.6997884 2.857458 1.4773094 4.199404 2.3257825l.505778-.598752s1.457625.6950245 1.920212.1445827c.466263-.5504418 2.352645-2.7859693 2.352645-2.7859693.525833-.6223661 1.459096-.7016298 2.083477-.1776092l3.974272 3.3415485c.623646.5262223.703808 1.456102.177974 2.0792021 0 0-1.886381 2.2355275-2.349703 2.7852353-.465528.5489739.46847 1.8663646.467734 1.8663646l-.516594.6115565c1.072032 1.1892142 2.071983 2.4367689 2.995969 3.7351811l.710927-.3674106s1.078878 1.1992291 1.719439.8674962c.63909-.3287972 3.240311-1.6748108 3.240311-1.6748108.725135-.3743004 1.616478-.0917403 1.992284.6311732l2.391623 4.6053629c.372864.7221796.089722 1.6124274-.633942 1.9874617 0 0-2.59975 1.3452797-3.240311 1.6755447-.63909.330999-.282406 1.9037946-.280935 1.9030607l-.667357.3452843c.545936 1.5061093 1.005704 3.045763 1.375352 4.6113438l.710652-.060632s.537601 1.5206871 1.256117 1.4597716c.717046-.0616495 3.635973-.311917 3.635973-.311917.812652-.0682548 1.528227.5335615 1.599564 1.3445457l.44273 5.1682813c.068395.8117181-.534659 1.5258241-1.346575 1.5948131 0 0-2.919663.2488-3.636709.309715-.717046.060182-.990626 1.651326-.991362 1.65206l-.601685.051374c-.067804 1.609249-.230638 3.226417-.492204 4.844371l.529078.167585s-.08531 1.61096.600112 1.828201c.687629.217241 3.479326 1.101617 3.479326 1.101617.777351.245864 1.207579 1.07593.961209 1.850952l-1.572352 4.944435c-.247841.775756-1.078143 1.205101-1.856229.959237 0 0-2.791698-.883643-3.479327-1.101618-.683951-.217241-1.546612 1.146387-1.546612 1.147121l-.392715-.124498c-.695419 1.51588-1.47467 2.973616-2.330331 4.369372l.259351.218108s-.696454 1.453166-.14488 1.917005c.550102.463839 2.790962 2.34635 2.790962 2.34635.622175.524754.703073 1.455368.176504 2.079202l-3.34842 3.966116c-.525833.621632-1.457625.703832-2.082742.177609 0 0-2.238653-1.883978-2.790227-2.345615-.551573-.465307-1.869467.468976-1.869467.46971l-.137924-.116045c-1.23777 1.146453-2.541442 2.213772-3.902272 3.197436l.051216.098694s-1.20243 1.076665-.870015 1.715911c.332415.637778 1.679725 3.233662 1.679725 3.233662.37507.722179.091194 1.613895-.632471 1.986728l-4.614832 2.388183c-.725871.3743-1.617214.090272-1.99302-.630439 0 0-1.34731-2.595884-1.679725-3.23513-.24995-.483841-1.217327-.395341-1.670069-.324111-1.845448.697274-3.743242 1.265232-5.67918 1.696532-.432228.223559-.961244.587446-.924355 1.016496.062511.714841.313293 3.626311.313293 3.626311.06766.814653-.533923 1.526558-1.34731 1.598483l-5.178908.441821c-.814123.067521-1.529698-.534296-1.599564-1.344546 0 0-.248576-2.912204-.310352-3.629246-.028764-.329258-.381395-.564662-.753834-.722944-2.338248-.044159-4.696245-.287019-7.052062-.739915-.347601.08101-.666418.231701-.754526.509494-.217688.684749-1.103883 3.471453-1.103883 3.471453-.24637.777223-1.078143 1.205834-1.856229.960704l-4.953131-1.56986c-.778087-.247332-1.208314-1.07593-.96268-1.851686 0 0 .886931-2.785969 1.105354-3.471453.077515-.242748-.044759-.50768-.234779-.748445-2.347003-1.014227-4.560056-2.22602-6.625511-3.609091-.276129-.017497-.531323.029902-.68156.208673-.466264.548974-2.352645 2.783768-2.352645 2.783768-.525098.622366-1.458361.705299-2.082007.179077l-3.975742-3.343017c-.623646-.524754-.704544-1.454634-.177975-2.077 0 0 1.887117-2.236261 2.350439-2.785969.148035-.175592.153951-.429082.093331-.692901-1.764425-1.838549-3.349582-3.82944-4.739889-5.942665-.254943-.128837-.517157-.188686-.730181-.078356-.638355.330265-3.240311 1.675545-3.240311 1.675545-.725136.373566-1.616479.092474-1.992284-.631174l-2.390888-4.606096c-.37507-.722914-.091194-1.613162.632471-1.988196 0 0 2.59975-1.344546 3.241782-1.675545.232833-.11952.333206-.40435.366729-.718209-.871406-2.276988-1.544501-4.634434-2.005329-7.045457-.207208-.28514-.466756-.516438-.755229-.492226-.717782.059447-3.636709.309715-3.636709.309715-.814123.068255-1.529698-.532828-1.599564-1.343812l-.442729-5.168281c-.06766-.811718.533923-1.525825 1.34731-1.594813 0 0 2.919663-.2488 3.635973-.3097157.349952-.0296991.593792-.4227862.751975-.8179501.088358-2.1585876.347685-4.3315498.786924-6.5016634-.043521-.4812951-.179469-1.0939974-.583573-1.2225088-.686893-.2165071-3.479326-1.1016175-3.479326-1.1016175-.777352-.245864-1.206108-1.0751962-.961209-1.8516861l1.573823-4.943701c.246369-.7764899 1.075936-1.2051005 1.854758-.9599705 0 0 2.792433.8843765 3.479326 1.1016175.683952.2179749 1.546613-1.1471206 1.545877-1.1456528l.008883.0028121c.753109-1.5368331 1.59361-3.01104 2.513374-4.4184165l-.056355-.0473775s.696454-1.4561019.14488-1.9192069c-.549367-.463105-2.790227-2.3456159-2.790227-2.3456159-.625117-.5247545-.706014-1.4568359-.177974-2.0784681l3.347684-3.9675843c.527304-.6216322 1.459096-.7016298 2.081271-.1768753 0 0 2.241595 1.8832448 2.792433 2.3463498.551574.463105 1.869467-.4689764 1.869467-.4689764l.183941.1546281c1.25674-1.0988442 2.576161-2.118953 3.949753-3.0559261l-.144714-.2787876s1.201695-1.0788658.870016-1.7173783c-.33168-.6385124-1.679726-3.2343958-1.679726-3.2343958-.374334-.7229136-.091193-1.6131614.632471-1.9874618l4.614833-2.3852476c.725871-.3750344 1.617214-.0924743 1.993019.6311732 0 0 1.347311 2.5958834 1.679726 3.2336619.328002.6370446 1.906238.2796244 1.906973.2796244l.215872.4158721c1.546482-.5270715 3.126543-.9644335 4.732137-1.3079253l-.044887-.523683s1.523814-.5379651 1.462038-1.2542733c-.061776-.7163083-.310352-3.6285122-.310352-3.6285122-.069131-.8117181.533188-1.5250906 1.346575-1.5948133l5.178908-.4418212c.812652-.0689887 1.528962.5320937 1.599564 1.3438118 0 0 .24784 2.9122039.310352 3.6292461.05957.7155743 1.653985.9878595 1.65325.9878595l.055.6437705c1.598833.0996999 3.204221.2929751 4.809231.5834114l.210981-.6635295s1.612802.084401 1.831225-.5996146c.217687-.6847496 1.103882-3.4714528 1.103882-3.4714528.24637-.7757559 1.078143-1.2058344 1.855494-.9592365l4.953866 1.569126c.777351.2465979 1.20905 1.0759302.961209 1.85242 0 0-.88693 2.7867032-1.103882 3.4714528-.217688.6840156 1.148008 1.5449066 1.148008 1.5441726l-.233023.7330773zm-18.23143 73.0125626c19.246658 0 34.849156-15.580817 34.849156-34.800729 0-19.2199119-15.602498-34.8007289-34.849156-34.8007289-19.246657 0-34.849156 15.580817-34.849156 34.8007289 0 19.219912 15.602499 34.800729 34.849156 34.800729zm4.624208-42.2930475c1.306992.824164 2.341102 1.9767945 3.025067 3.308817l25.394996-5.5668284.927831 4.2208622-25.390226 5.5657827c-.030341.74012-.158844 1.488481-.394096 2.228515-.235419.739844-.562843 1.425062-.965679 2.047072l17.519729 19.150246-3.196566 2.916277-17.524408-19.155361c-1.333205.696875-2.849975 1.043233-4.39936.960976l-7.84537 24.722271-4.125471-1.305541 7.848185-24.731141c-1.304465-.825825-2.336292-1.979343-3.018119-3.311665l-25.381944 5.569157-.928991-4.222203 25.384349-5.569684c.031421-.735901.159966-1.4798358.394097-2.21552.235404-.7401534.562908-1.4256175.965888-2.0478061l-17.524805-19.1640717 3.194969-2.9135614 17.528589 19.1682094c1.329782-.6954681 2.842263-1.042092 4.387415-.9623939l7.862238-24.7292985 4.12395 1.3074947-7.862268 24.729395zM436.356635 33.07912704c5.555954.49794103 11.05741 2.42753198 15.931971 5.88515786 4.874286 3.4581732 8.508506 8.0090682 10.805886 13.0817213l.003438-.0005802s.974941 2.1668011 2.021438 1.9927429c1.046496-.1785212 2.596116-.4384927 2.596116-.4384927 1.185135-.1997206 2.308777.5958145 2.511144 1.780749l1.277933 7.5391735c.199014 1.1815872-.600393 2.3040393-1.78441 2.5048756 0 0-1.550738.2610873-2.596116.4384927-1.017556.1714144-1.243368 2.4135945-1.257135 2.5374781-.497795 5.5466946-2.431256 11.0392579-5.897279 15.9059936-3.465426 4.8644834-8.026156 8.4912199-13.109739 10.7837061l.000582.0034376s-2.173492.9740563-1.995722 2.0172896c.176652 1.0454648.438276 2.5896731.438276 2.5896731.200131 1.1838188-.598158 2.3051551-1.78441 2.5059914l-7.553558 1.2753109c-1.185135.197489-2.309895-.5980461-2.510026-1.780749 0 0-.262743-1.5453242-.439395-2.5919047-.176652-1.0432333-2.549158-1.2496484-2.551394-1.2507642l-.000529-.0031244c-5.5553-.4981072-11.055881-2.4275257-15.929473-5.884728-4.874062-3.4573802-8.508114-8.0074616-10.8055-13.0793671l-.002706.0004575s-.976059-2.1690326-2.022556-1.9938587c-1.045378.1785212-2.596116.4384927-2.596116.4384927-1.185135.2008364-2.309895-.5969302-2.511144-1.7796332l-1.276815-7.5380578c-.199014-1.1838187.599275-2.3062707 1.785528-2.5059913 0 0 1.548502-.262203 2.594998-.4384927 1.046497-.1774055 1.254455-2.5439272 1.253337-2.5450429l.003317-.000561c.498961-5.5447311 2.432645-11.0351597 5.89776-15.9000993 3.464939-4.8646921 8.025109-8.4914734 13.108198-10.7839728l-.000159-.00093937s2.172374-.9740563 1.994604-2.0195211c-.176652-1.04323328-.439394-2.5896732-.439394-2.5896732-.199013-1.18270296.599276-2.30403926 1.78441-2.50599137l7.554676-1.27307932c1.186253-.1997206 2.309895.59693027 2.511144 1.77963323 0 0 .261625 1.54643992.438277 2.59078895.17777 1.04434903 2.550276 1.25076417 2.550276 1.25187993l.000267.0015788zM432.97606 84.2513375c10.305125 0 18.659079-8.3423457 18.659079-18.6331505 0-10.2908049-8.353954-18.6331505-18.659079-18.6331505-10.305125 0-18.65908 8.3423456-18.65908 18.6331505 0 10.2908048 8.353955 18.6331505 18.65908 18.6331505zm-.124077-12.366256c-3.00035 0-5.432614-2.4272729-5.432614-5.4214657 0-2.9941929 2.432264-5.4214658 5.432614-5.4214658 3.000349 0 5.432613 2.4272729 5.432613 5.4214658 0 2.9941928-2.432264 5.4214657-5.432613 5.4214657z"/>
              <path stroke="#FFF" stroke-width="2" d="M397.920637 81.5494403c2.525434.2263369 5.026096 1.1034237 7.241805 2.6750718 2.215585 1.5718969 3.867503 3.6404855 4.911766 5.946237l.001563-.0002638s.443155.9849096.918835.9057922c.475681-.081146 1.180053-.1993148 1.180053-.1993148.538698-.0907821 1.049444.2708248 1.141429.8094313l.580879 3.4268971c.090461.5370851-.272906 1.0472906-.811096 1.1385798 0 0-.70488.118676-1.180052.1993149-.462526.0779156-.565168 1.0970884-.571425 1.1533991-.226271 2.5212248-1.105117 5.0178445-2.680581 7.2299971-1.575194 2.2111288-3.648253 3.8596454-5.958973 4.9016846l.000265.0015625s-.987951.4427529-.907147.9169498c.080297.4752113.199217 1.1771242.199217 1.1771242.090969.5380994-.27189 1.0477977-.811096 1.139087l-3.433435.5796867c-.538698.0897678-1.049953-.2718391-1.140921-.8094313 0 0-.119429-.7024201-.199725-1.1781385-.080296-.474197-1.158708-.568022-1.159725-.5685292l-.00024-.0014202c-2.525137-.2264123-5.025401-1.1034208-7.240669-2.6748763-2.215484-1.5715365-3.867325-3.6397553-4.911592-5.9451669l-.00123.000208s-.443663-.9859239-.919343-.9062994c-.475172.081146-1.180053.1993148-1.180053.1993148-.538698.0912893-1.049952-.2713319-1.141429-.8089242l-.580371-3.4263899c-.09046-.5380994.272398-1.0483049.811604-1.1390869 0 0 .703865-.1191832 1.179545-.1993149.47568-.0806388.570206-1.1563305.569698-1.1568377l.001508-.000255c.2268-2.5203323 1.105748-5.0159817 2.6808-7.2273179 1.574972-2.2112236 3.647777-3.8597606 5.958272-4.9018058l-.000072-.0004269s.987443-.4427529.906638-.9179642c-.080297-.4741969-.199725-1.1771242-.199725-1.1771242-.09046-.5375922.272398-1.0472905.811096-1.1390869l3.433943-.5786725c.539206-.0907821 1.049953.271332 1.14143.8089242 0 0 .11892.7029273.199216 1.1776314.080805.4747041 1.159217.5685291 1.159217.5690363l.000121.0007176zm-1.536625 23.2600957c4.684148 0 8.4814-3.7919753 8.4814-8.4696139 0-4.6776385-3.797252-8.4696138-8.4814-8.4696138s-8.4814 3.7919753-8.4814 8.4696138c0 4.6776386 3.797252 8.4696139 8.4814 8.4696139zm.850306-6.0740903c-1.363795 0-2.46937-1.1033059-2.46937-2.4643026 0-1.3609968 1.105575-2.4643026 2.46937-2.4643026s2.46937 1.1033058 2.46937 2.4643026c0 1.3609967-1.105575 2.4643026-2.46937 2.4643026zM346.32629488 294.05330867c8.24208414-1.14046557 16.8853997-.18164398 25.1303706 3.20863063 8.24475642 3.39116366 15.05390695 8.786766 20.09519845 15.3893469l.00480176-.00199736s2.1441138 2.8224598 3.60667324 2.21831122c1.4610615-.6106369 3.62602634-1.50848584 3.62602634-1.50848584 1.65544423-.68797057 3.55550504.09136507 4.247268 1.7458455l4.38735575 10.52990446c.68576402 1.65074104-.09941312 3.5505361-1.75285657 4.23975354 0 0-2.16621578.8998455-3.62602634 1.50848584-1.42138505.59059498-.9971422 3.9255272-.9755777 4.1102199 1.13788264 8.22953146.17101457 16.86210578-3.23328632 25.09923596-3.40418857 8.23365588-8.81565265 15.03568397-15.43477562 20.07372533l.00199832.00480154s-2.83206232 2.14515662-2.22360044 3.60191818c.6075843 1.4603797 1.50603697 3.61720616 1.50603697 3.61720616.68813814 1.6536095-.09578807 3.55140798-1.75248203 4.24137587l-10.55031562 4.3882892c-1.6561933.6847259-3.55787915-.09423354-4.24564296-1.7462217 0 0-.90045127-2.1580728-1.5084113-3.62007558-.60683545-1.45713603-4.12428846-.96109887-4.12791253-.96197098l-.00181826-.00436383c-8.24118992 1.14000462-16.88317415.18113943-25.12659494-3.20884444-8.2441656-3.3900849-15.0527999-8.78456256-20.09384815-15.38605424l-.00377892.0015734s-2.1464879-2.82532827-3.6086728-2.21955736c-1.45943648.6102607-3.62602635 1.50848584-3.62602635 1.50848584-1.65506893.6895917-3.55750483-.09261218-4.24689367-1.74422414l-4.38535596-10.52865736c-.68651288-1.65398473.09703878-3.55340553 1.75410728-4.2417511 0 0 2.16259073-.90071738 3.62440132-1.50810964 1.461437-.6090148.96951693-4.11869473.96751714-4.11994184l.00463387-.00192883c-1.1355303-8.2270685-.16762032-16.8566146 3.23596392-25.09082985 3.40341098-8.23379656 8.81404565-15.0357009 15.432447-20.0735962l-.0005461-.00131177s2.83043708-2.14478142 2.22122753-3.6047859c-.60683664-1.45713678-1.50766244-3.61683192-1.50766244-3.61683192-.68613954-1.65236314.09778764-3.55016185 1.75248203-4.24137587l10.55268898-4.38541954c1.65706947-.68834578 3.5575046.0926112 4.24689344 1.74422317 0 0 .89920153 2.16007013 1.50641174 3.61882946.6088362 1.4583829 4.12628824.96234596 4.12666256.9639673l.00091876.00220587zm12.25920462 75.5166365c14.97739596-3.4578043 24.31942743-18.3870795 20.86601123-33.34546842-3.45341642-14.9583899-18.39454194-24.28145553-33.3719379-20.82365122-14.97739596 3.45780432-24.31942668 18.3870783-20.86601026 33.3454682 3.4534162 14.95838893 18.39454096 24.28145575 33.37193693 20.82365144zM117.2112833 277.839572c1.9633462 2.273201 3.5682222 4.767159 4.8006235 7.401874l.0035509-.00058s1.0069299 2.166801 2.0877629 1.992743c1.080833-.178522 2.6812973-.438493 2.6812973-.438493 1.2240202-.199721 2.38453.595814 2.5935373 1.780749l1.3198633 7.539173c.2055431 1.181588-.6200932 2.30404-1.8429588 2.504876 0 0-1.601619.261087-2.6812972.438493-1.0509427.171414-1.2841639 2.413594-1.2983826 2.537478-.2672758 2.883515-.9352799 5.752401-2.0180727 8.526337.0000532.000036-.8729273 2.220394.0185289 2.83406.8960753.612551 2.2182481 1.520778 2.2182481 1.520778 1.0115488.696233 1.2494245 2.051878.5288691 3.031513l-4.5843023 6.231506c-.7205554.978519-2.1235597 1.208365-3.1362633.513248 0 0-1.3233276-.909342-2.2159386-1.524125-.8937658-.611435-2.7771403.916037-2.7782951.917153l-.000672-.000461c-2.353244 1.897645-4.9351293 3.448719-7.6627577 4.639691l.0006009.003437s-2.244807.974056-2.061204 2.01729c.1824483 1.045464.4526566 2.589673.4526566 2.589673.2066977 1.183819-.6177838 2.305155-1.8429589 2.505991l-7.8013971 1.275311c-1.2240203.197489-2.3856848-.598046-2.5923826-1.780749 0 0-.271363-1.545324-.4538113-2.591905-.1824483-1.043233-2.6327983-1.249648-2.6351078-1.250764l-.0005464-.003124c-2.9809634-.258792-5.9466715-.903943-8.8142336-1.948982l-.0004755.000646s-2.2990796-.843512-2.9341844.018968c-.6339501.863597-1.5750601 2.141139-1.5750601 2.141139-.7194006.979635-2.1235597 1.209481-3.1362633.512133l-6.4492011-4.429558c-1.0127036-.694001-1.2494245-2.051878-.5300239-3.030397 0 0 .9411099-1.277543 1.57506-2.140023.6351049-.864712-.9457288-2.686744-.9468836-2.686744-1.963422-2.273009-3.568407-4.766745-4.8009075-7.401277l-.0027947.000457s-1.00808462-2.169032-2.08891762-1.993858c-1.07967826.178521-2.68129725.438492-2.68129725.438492-1.22402028.200837-2.3856848-.59693-2.5935373-1.779633l-1.31870864-7.538058c-.20554304-1.183818.61893854-2.30627 1.84411356-2.505991 0 0 1.5993095-.262203 2.6801425-.438493 1.080833-.177405 1.29561393-2.543927 1.2944592-2.545043l.00342668-.000561c.2677243-2.88059.93538513-5.746524 2.0169875-8.517711l-.00078073-.000536s.87413525-2.220358-.0196305-2.83514c-.89145628-.613667-2.2159386-1.521893-2.2159386-1.521893-1.0103941-.695117-1.24826974-2.05411-.52886914-3.031514l4.58430234-6.232621c.7194006-.976288 2.1247145-1.206134 3.137418-.512133 0 0 1.3221729.909343 2.2147839 1.524125.7892042.539903 2.3509134-.586174 2.7063154-.857811 2.3725405-1.924598 4.9793582-3.495523 7.7349728-4.698838l-.0001643-.000939s2.2436523-.974056 2.0600492-2.019521c-.1824483-1.043234-.4538113-2.589673-.4538113-2.589673-.205543-1.182703.6189386-2.30404 1.8429589-2.505992l7.8025519-1.273079c1.225175-.199721 2.3856848.59693 2.5935373 1.779633 0 0 .2702082 1.54644.4526565 2.590789.1836031 1.044349 2.6339531 1.250764 2.6339531 1.25188l.0002761.001579c2.9906928.259519 5.9660965.907924 8.8425167 1.95886.2517428.088257 2.3151789.780335 2.9101114-.029063.6351048-.86248 1.57506-2.140023 1.57506-2.140023.7182459-.978519 2.1247145-1.208365 3.1362633-.513248l6.4492012 4.430673c1.0115488.695117 1.2494244 2.051878.5288691 3.030397 0 0-.9399552 1.277543-1.57506 2.142255-.6351049.861365.9457288 2.683397.9480383 2.684512l-.0004722.000642zm-25.0408694 39.607205c10.305125 0 18.6590795-8.342345 18.6590795-18.63315s-8.3539545-18.633151-18.6590795-18.633151c-10.3051251 0-18.6590795 8.342346-18.6590795 18.633151 0 10.290805 8.3539544 18.63315 18.6590795 18.63315zm.4353598-13.362998c-3.0003496 0-5.4326135-2.427273-5.4326135-5.421466 0-2.994193 2.4322639-5.421466 5.4326135-5.421466 3.0003497 0 5.4326136 2.427273 5.4326136 5.421466 0 2.994193-2.4322639 5.421466-5.4326136 5.421466zM461.33641867 117.84905322c2.7857723 2.5002702 5.17438486 5.33718867 7.1347828 8.41334697l.00421584-.0013307s1.6042126 2.53097403 2.88788016 2.12914345c1.28288512-.40739787 3.18330887-1.0052005 3.18330887-1.0052005 1.45326937-.45831228 3.00380688.33579076 3.46568347 1.77825796l2.92660212 9.1794293c.45707808 1.43888313-.35002163 2.98020776-1.80169113 3.439715 0 0-1.9016324.59939132-3.18330888 1.0052005-1.2477873.39342422-1.138257 3.23035436-1.1338256 3.38732626.18056326 3.64280195-.12868385 7.33583215-.95891828 10.98129484.00007077.0000365-.67210724 2.9190674.5194026 3.53226893 1.19693013.61102093 2.96379017 1.51807897 2.96379017 1.51807897 1.3520065.69567937 1.87891344 2.34617157 1.17454217 3.69137857l-4.4815278 8.55706388c-.70456595 1.34381454-2.37017997 1.87029285-3.72339512 1.17620216 0 0-1.76845978-.908252-2.9615695-1.5226485-1.19392605-.6100233-3.2161196 1.61730586-3.21732826 1.61889453l-.00089784-.00046053c-2.5286073 2.7694068-5.3959812 5.1455425-8.5036985 7.09736213l.00133357.00418615s-2.5586846 1.59871666-2.15253982 2.86875517c.4051318 1.2730195 1.00441057 3.15321493 1.00441057 3.15321493.4588735 1.44146944-.34701756 2.9812054-1.8014956 3.44110634l-9.26211942 2.9240556c-1.4536606.45552862-3.0056013-.33837722-3.46427913-1.77845433 0 0-.60087865-1.88139043-1.0062061-3.15580224-.40474058-1.27023585-3.4203077-1.109011-3.42331066-1.11000776l-.00121225-.0038043c-3.66992143.18655892-7.38903223-.11146323-11.0589151-.9251106l-.00046504.00088734s-2.94333483-.6593911-3.5643459.52506598c-.61941134 1.18565107-1.53972455 2.94017987-1.53972455 2.94017987-.70296705 1.34500964-2.36998513 1.8716863-3.7235905 1.17481182l-8.61817506-4.42372525c-1.35301848-.6926985-1.87891244-2.3461717-1.17574983-3.68979003 0 0 .92031322-1.7545288 1.5399201-2.93878854.62061998-1.18723975-1.62095533-3.19005098-1.62235953-3.18985363-2.7858308-2.5000183-5.17453703-5.33664046-7.13502378-8.412554l-.00331845.00104802s-1.606008-2.53356033-2.88947903-2.13033856c-1.2814808.4072015-3.18330888 1.0052005-3.18330888 1.0052005-1.4530737.4597046-3.00540662-.33698474-3.4654878-1.77686564l-2.92500323-9.17823417c-.45746942-1.44166778.34822708-2.9827952 1.80289966-3.44130468 0 0 1.89862946-.6003881 3.18190467-1.00500316 1.2830808-.40600556 1.12932905-3.39489815 1.12773017-3.39609326l.0040678-.00128463c-.17950492-3.63923048.12984188-7.32851913.9591105-10.97034906l-.00104276-.0005361s.67358235-2.91922725-.52093172-3.53342738c-1.19150886-.61320165-2.9611783-1.51986486-2.9611783-1.51986486-1.3504056-.69448453-1.87789947-2.3491529-1.17454214-3.69137846l4.48133224-8.5584554c.70355394-1.3408338 2.37197632-1.8677071 3.72499483-1.1750084 0 0 1.7670566.90844943 2.96016536 1.52284625 1.05424946.538657 2.75570403-1.1329726 3.14021327-1.53256686 2.54734435-2.806327 5.441553-5.21148714 8.58113375-7.1834877l-.00036472-.00114367s2.55728138-1.59851946 2.1507454-2.8713416c-.40474058-1.27023586-1.00581485-3.1530182-1.00581485-3.1530182-.4572737-1.44027505.34861743-2.98001042 1.80149557-3.44110653l9.26391493-2.9214686c1.45467357-.45850972 3.00540565.336985 3.46548774 1.77686526 0 0 .59967006 1.88297968 1.00460625 3.15460745.40634038 1.27143032 3.42190643 1.110205 3.42210205 1.11159693l.0006125.00192236c3.6818797-.18731424 7.41334925.1131112 11.09503703.9326004.32156718.0670798 2.95183298.57782672 3.53330477-.533545.62101213-1.18445674 1.53992107-2.9387887 1.53992107-2.9387887.70175852-1.34342017 2.3715841-1.8704907 3.72339503-1.17620284l8.61836962 4.4251169c1.35181092.69428785 1.8789135 2.34617197 1.1743466 3.68998695 0 0-.91890896 1.75433194-1.53952887 2.94157228-.62120775 1.18306482 1.62036856 3.185876 1.62337258 3.18687324l-.00046186.00088115zm-23.50314956 53.68828763c12.52998864-1.76097506 21.22495517-13.59544072 19.420751-26.43302047-1.80420404-12.83757877-13.4243632-21.8169401-25.95435182-20.05596505-12.52998863 1.76097506-21.2249551 13.59544112-19.42075107 26.43301988 1.8042042 12.83757977 13.42436328 21.8169407 25.9543519 20.05596565zm-1.8134733-16.7444764c-3.6481218.5127101-7.03106206-2.09963175-7.55600992-5.83482982-.5249477-3.73519708 2.00688418-7.17880594 5.655006-7.69151602 3.64812082-.51270994 7.03106207 2.09963177 7.5560098 5.83482885.52494784 3.73519807-2.00688504 7.17880707-5.65500587 7.691517z"/>
              <g transform="translate(244.543 188.39)">
                <path stroke="#FFF" stroke-width="2" d="M94.9003723 26.5883483c2.8514602 3.4098009 5.1822967 7.1507391 6.9721717 11.1028109l.005157-.0008704s1.462412 3.2502016 3.032157 2.9891144c1.569744-.2677818 3.894174-.6577391 3.894174-.6577391 1.777702-.2995809 3.463165.8937218 3.766716 2.6711235l1.9169 11.3087603c.29852 1.7723808-.900591 3.4560589-2.676616 3.7573134 0 0-2.326107.3916309-3.894174.6577391-1.526334.2571216-1.865052 3.6203918-1.885702 3.806217-.388178 4.325273-1.358351 8.6286021-2.930942 12.7895055.000077.0000547-1.267794 3.3305909.02691 4.2510909 1.301412.9188263 3.221666 2.2811662 3.221666 2.2811662 1.46912 1.044349 1.814598 3.0778171.768102 4.5472698l-6.657999 9.3472585c-1.0464961 1.467779-3.0841454 1.8125481-4.5549425.7698727 0 0-1.921931-1.3640136-3.218312-2.2861871-1.2980581-.9171527-4.0333718 1.3740553-4.0350489 1.375729l-.0009759-.000692c-3.4177272 2.8464685-7.1675209 5.1730791-11.1289841 6.9595361l.0008727.005156s-3.260239 1.461085-2.9935836 3.025935c.2649782 1.568197.6574144 3.88451.6574144 3.88451.3001969 1.775728-.8972365 3.457732-2.6766159 3.758987l-11.3303367 1.912966c-1.7777023.296234-3.4648424-.897069-3.7650393-2.671124 0 0-.3941133-2.317986-.6590915-3.887857-.2649783-1.56485-3.8237371-1.874472-3.8270913-1.876146l-.0007936-.004687c-4.3293935-.388188-8.6366311-1.355914-12.8013266-2.923473l-.0006906.00097s-3.3390616-1.265269-4.2614543.028452c-.9207156 1.295395-2.2875339 3.211708-2.2875339 3.211708-1.0448194 1.469453-3.0841459 1.814222-4.554943.768199l-9.3664787-6.644336c-1.4707971-1.0410016-1.814598-3.077817-.7697786-4.545596 0 0 1.3668183-1.9163135 2.2875339-3.2100344.9223927-1.2970681-1.3735266-4.0301161-1.3752037-4.0301161-2.8515703-3.4095134-5.1825656-7.1501179-6.9725842-11.1019157l-.0040588.0006863s-1.4640888-3.2535489-3.0338335-2.990788c-1.5680676.2677818-3.89417432.6577391-3.89417432.6577391-1.77770232.3012545-3.46484244-.8953954-3.76671642-2.6694499L.20989938 61.6500657c-.29851983-1.7757281.89891362-3.4594062 2.678293-3.7589871 0 0 2.32275257-.3933045 3.89249726-.6577391 1.56974468-.2661081 1.88168113-3.8158907 1.88000405-3.8175643l.00497674-.0008415c.38882858-4.3208852 1.35850386-8.619786 2.92936596-12.7765668l-.0011339-.0008046s1.2695478-3.3305362-.0285103-4.2527098c-1.294704-.9204999-3.21831203-2.2828399-3.21831203-2.2828399-1.46744295-1.0426753-1.81292095-3.0811643-.76810157-4.5472697l6.6579983-9.3489322c1.0448194-1.4644317 3.0858229-1.8092008 4.55662-.7681991 0 0 1.9202539 1.3640136 3.2166349 2.2861872 1.1461984.809855 3.4143424-.8792607 3.9305094-1.2867162 3.4457523-2.8868977 7.2317564-5.243285 11.2338653-7.048257l-.0002385-.0014091s3.2585619-1.4610844 2.9919066-3.0292816c-.2649783-1.56484993-.6590916-3.8845098-.6590916-3.8845098-.2985198-1.77405445.8989137-3.4560589 2.676616-3.75898707L53.5158127.80501905c1.7793794-.2995809 3.4648424.8953954 3.7667164 2.66944985 0 0 .3924362 2.31965987.6574145 3.88618342.2666553 1.56652355 3.8254141 1.87614626 3.8254141 1.8778199l.0004009.00236818c4.3435242.3892795 8.6648431 1.3618869 12.8424037 2.9382904.3656179.132385 3.3624434 1.1705021 4.2264918-.0435942.9223927-1.2937208 2.2875339-3.21003437 2.2875339-3.21003437 1.0431423-1.467779 3.0858229-1.81254808 4.5549429-.76987268l9.3664787 6.64600965c1.4691201 1.0426754 1.8145981 3.0778171.7681016 4.5455961 0 0-1.3651412 1.9163135-2.2875339 3.2133816-.9223927 1.2920472 1.3735266 4.0250953 1.3768807 4.0267689l-.0006857.0009625zM56.6948954 85.9991561c15.4576875 0 27.9886192-12.5135185 27.9886192-27.9497258 0-15.4362072-12.5309317-27.9497257-27.9886192-27.9497257-15.4576876 0-27.9886193 12.5135185-27.9886193 27.9497257 0 15.4362073 12.5309317 27.9497258 27.9886193 27.9497258z"/>
                <ellipse cx="56.3505598" cy="58.8192022" fill="#FFF" fill-rule="nonzero" rx="8.14892034" ry="8.13219864"/>
              </g>
              <path stroke="#FFF" stroke-width="2" d="M256.694923 285.160718c3.092626 3.432477 5.620595 7.198294 7.56185 11.176649l.005594-.000877s1.586096 3.271817 3.288604 3.008994c1.702507-.269563 4.223528-.662114 4.223528-.662114 1.928053-.301573 3.756066.899666 4.08529 2.688888l2.079023 11.383968c.323768 1.784167-.976759 3.479043-2.902993 3.782301 0 0-2.52284.394235-4.223528.662113-1.655425.258831-2.02279 3.644469-2.045187 3.83153-.421008 4.354037-1.473235 8.685985-3.17883 12.87456.000084.000055-1.375018 3.352741.029187 4.279362 1.41148.924937 3.494141 2.296337 3.494141 2.296337 1.593373 1.051295 1.96807 3.098286.833065 4.577511l-7.221105 9.409421c-1.135005 1.477541-3.344991 1.824603-4.940182.774993 0 0-2.08448-1.373085-3.490504-2.301391-1.407842-.923252-4.374498 1.383193-4.376317 1.384878l-.001058-.000697c-3.706785 2.865399-7.773721 5.207483-12.070229 7.00582l.000946.005191s-3.535976 1.470801-3.246768 3.046058c.287389 1.578626.713015 3.910343.713015 3.910343.325587 1.787537-.973121 3.480728-2.902993 3.783986l-12.288611 1.925688c-1.928053.298204-3.757885-.903035-4.083471-2.688888 0 0-.427446-2.333401-.714835-3.913712-.287389-1.575257-4.147133-1.886939-4.150771-1.888624l-.000861-.004717c-4.695556-.39077-9.367083-1.364932-13.884011-2.942916l-.000749.000977s-3.621466-1.273684-4.621871.028641c-.998586 1.304009-2.481005 3.233067-2.481005 3.233067-1.133186 1.479225-3.34499 1.826287-4.940181.773308l-10.158658-6.688524c-1.595191-1.047925-1.96807-3.098286-.834884-4.575826 0 0 1.482419-1.929058 2.481005-3.231382 1.000405-1.305694-1.489694-4.056918-1.491513-4.056918-3.092745-3.432188-5.620886-7.197669-7.562298-11.175748l-.004402.000691s-1.587915-3.275186-3.290423-3.010678c-1.700688.269563-4.223528.662114-4.223528.662114-1.928053.303258-3.757884-.901351-4.08529-2.687203l-2.077204-11.382283c-.323768-1.787537.97494-3.482413 2.904812-3.783986 0 0 2.519202-.39592 4.221709-.662113 1.702507-.267878 2.040826-3.841268 2.039007-3.842953l.005398-.000847c.421714-4.349621 1.473401-8.677111 3.17712-12.861536l-.00123-.00081s1.376921-3.352685-.030921-4.280991c-1.404205-.926622-3.490504-2.298022-3.490504-2.298022-1.591554-1.04961-1.966251-3.101655-.833065-4.577511l7.221105-9.411106c1.133186-1.474171 3.34681-1.821233 4.942001-.773308 0 0 2.082661 1.373085 3.488685 2.301391 1.243139.815241 3.703113-.885108 4.262936-1.295273 3.73718-2.906097 7.843389-5.278155 12.18398-7.095131l-.000258-.001418s3.534158-1.470801 3.24495-3.049428c-.287389-1.575256-.714835-3.910343-.714835-3.910343-.323768-1.785852.97494-3.479043 2.902993-3.783986l12.29043-1.922318c1.929872-.301573 3.757885.90135 4.08529 2.687202 0 0 .425627 2.335087.713016 3.912028.289208 1.576942 4.148952 1.888624 4.148952 1.890309l.000435.002383c4.710882.391869 9.397681 1.370944 13.928563 2.957832.39654.133265 3.646825 1.178286 4.583951-.043885 1.000405-1.302324 2.481005-3.231382 2.481005-3.231382 1.131367-1.47754 3.346809-1.824602 4.940181-.774992l10.158658 6.690208c1.593373 1.049609 1.96807 3.098285.833065 4.575826 0 0-1.4806 1.929057-2.481005 3.234752-1.000405 1.300639 1.489694 4.051863 1.493332 4.053548l-.000744.000969zm-41.230999 63.985018c15.457688 0 27.988619-12.513519 27.988619-27.949726 0-15.436207-12.530931-27.949726-27.988619-27.949726-15.457687 0-27.988619 12.513519-27.988619 27.949726 0 15.436207 12.530932 27.949726 27.988619 27.949726z"/>
            </g>
          </g>
        </g>
        <g transform="translate(-21 -31)">
          <mask id="e" fill="#fff">
            <use xlink:href="#d"/>
          </mask>
          <path fill="none" stroke="#FFF" stroke-width="2" d="M316.188976 204.384365h15.950695c1.105708 0 2.002061.899617 2.002061 2.000063v47.830493c0 1.104604-.89598 2.000063-2.002061 2.000063H309.21466c-1.105708 0-2.002062-.899618-2.002062-2.000063v-25.908732h-9.973753v23.923878c0 2.200809-1.787384 3.984917-3.980034 3.984917h-58.864079c-2.198112 0-3.980034-1.791928-3.980034-3.984917v-23.923878h-15.932932c.46839 5.709978 1.100853 11.661206 1.833331 14.048595 1.584523 5.164483 5.965833 7.879744 8.614037 9.873229h-38.39895 37.258851c.826386 0 1.738039.63415 2.026189 1.390066l.609973 1.600162h-40.658189c-.548513.611769-1.345586.996743-2.233185.996743H25.9569909c-1.6548445 0-2.996361-1.334659-2.996361-2.991888v-4.982054h72.6613105-57.7006806v-83.716569c0-2.207364 1.7882309-3.996786 3.9816791-3.996786h14.9684522V38.9255359c0-3.3031656 2.672346-5.9809105 5.9813293-5.9809105H310.207647c3.303397 0 5.981329 2.6786766 5.981329 5.9809105V202.390879h-18.950131 18.950131v1.993486zm-85.774278-1.993486h-58.845144 58.845144zM94.7716535 248.241042v1.495114c0 .831486.6712618 1.495114 1.4993051 1.495114h16.9488964c.835616 0 1.499305-.669385 1.499305-1.495114v-1.495114H94.7716535z" mask="url(#e)"/>
          <path stroke="#FFF" stroke-width="2" d="M70.6554298 159.055934l.1792159-112.1569112H302.225722V188.436482l-5.007331.12362M215.07226 228.450249l-43.052718.040882M230.843258 187.638309l-58.311393.173262M267.317585 251.729642c0-1.376215-1.11635-2.491857-2.493438-2.491857-1.377088 0-2.493438 1.115642-2.493438 2.491857 0 1.376214 1.11635 2.491856 2.493438 2.491856 1.377088 0 2.493438-1.115642 2.493438-2.491856z" mask="url(#e)"/>
          <path stroke="#FFF" stroke-width="2" d="M234.902887 175.478827h58.8451444v71.7654723H234.902887z" mask="url(#e)"/>
          <path stroke="#FFF" stroke-width="2" d="M230.414698 228.12514l.584704-57.62161c.022391-2.206591 1.828331-3.995387 4.0325-3.995387h58.214985c2.204698 0 3.991958 1.788513 3.991958 3.993303v56.86835M171.672798 248.12229l14.545706.325109-.498688 5.628092" mask="url(#e)"/>
          <path fill="none" stroke="#FFF" stroke-width="2" d="M57.5453986 160.527687H167.578232c2.204346 0 3.991322 1.791855 3.991322 3.996786v83.716569h-56.495858" mask="url(#e)"/>
          <g stroke="#FFF" stroke-width="4" mask="url(#e)">
            <use mask="url(#f)" xlink:href="#a"/>
          </g>
          <path fill="none" stroke="#FFF" stroke-width="2" d="M44.9028871 167.504886v74.7557H164.587927v-74.7557z" mask="url(#e)"/>
          <path stroke="#FFF" stroke-width="2" d="M310.205863 211.361564h20.9448819v37.8762215H310.205863z" mask="url(#e)"/>
          <path stroke="#FFF" stroke-width="2" d="M307.226234 228.201064l-.012491-21.816857c-.000632-1.104482.897532-1.999842 1.992993-1.999842h7.743908" mask="url(#e)"/>
        </g>
      </g>
    </g>
  </g>
</svg>
