<svg xmlns="http://www.w3.org/2000/svg" viewBox="0 0 314 226" xmlns:xlink="http://www.w3.org/1999/xlink">
  <defs>
    <rect id="a" width="3" height="3" x="384" y="260" rx="1.5"/>
    <mask id="b" width="3" height="3" x="0" y="0" fill="#fff">
      <use xlink:href="#a"/>
    </mask>
  </defs>
  <g fill="none" fill-rule="evenodd" stroke="#FFF" transform="translate(-86 -40)">
    <path stroke="none" d="M0 0h500v300H0"/>
    <path fill="none" stroke-width="2" d="M381 213h15.99267c1.108618 0 2.00733.902557 2.00733 2.006599v47.986802C399 264.101615 398.101662 265 396.99267 265h-22.98534c-1.108618 0-2.00733-.902557-2.00733-2.006599V237h-10v24.002061C362 263.210062 360.207912 265 358.009492 265h-59.018984C296.786611 265 295 263.202216 295 261.002061V237h-15.974861c.469622 5.728639 1.10375 11.699314 1.838156 14.094505C282.451988 256.275866 286.844828 259 289.5 261H251h37.3569c.828561 0 1.742613.636223 2.031522 1.394608L291 264h-40.765184c-.549957.613768-1.349127 1-2.239062 1H90.0042462C88.3450468 265 87 263.66098 87 261.998335V257h72.852524H102v-83.990153C102 170.79527 103.792937 169 105.992157 169H121V47.000456C121 43.6864956 123.679378 41 126.99707 41h248.00586C378.31502 41 381 43.6874304 381 47.000456V211h-19 19v2zm-86-2h-59 59zm-136 46v1.5c0 .834203.673028 1.5 1.503251 1.5h16.993498c.837815 0 1.503251-.671573 1.503251-1.5V257h-20z"/>
    <path stroke-width="2" d="M134.820312 167.523438L135 55h232v142l-5.020508.124023M279.617188 237.144531l-43.166016.041016M295.429688 196.199219l-58.464844.173828M332 260.5c0-1.380712-1.119288-2.5-2.5-2.5s-2.5 1.119288-2.5 2.5 1.119288 2.5 2.5 2.5 2.5-1.119288 2.5-2.5z"/>
    <path stroke-width="2" d="M299.5 184h59v72h-59z"/>
    <path stroke-width="2" d="M295 236.818359l.586242-57.809915c.02245-2.213803 1.833143-4.008444 4.043113-4.008444h58.368182C360.208036 175 362 176.794358 362 179.006353v57.054194M236.103516 256.880859l14.583984.326172-.5 5.646485"/>
    <path fill="none" stroke-width="2" d="M121.675781 169h110.322394C234.208322 169 236 170.79771 236 173.009847V257h-56.644531"/>
    <use stroke-width="4" mask="url(#b)" xlink:href="#a"/>
    <path fill="none" stroke-width="2" d="M109 176v75h120v-75z"/>
    <path stroke-width="2" d="M375.001142 220h21v38h-21z"/>
    <path stroke-width="2" d="M372.013672 236.894531l-.01253-21.898395c-.000631-1.102436.8999-1.996136 1.998243-1.996136h7.764287"/>
  </g>
</svg>
