<svg width="1211" height="128" viewBox="0 0 1211 128" version="1.1" xmlns="http://www.w3.org/2000/svg" xmlns:xlink="http://www.w3.org/1999/xlink">
  <title>
    village
  </title>
  <defs>
    <path id="a" d="M0 0.04923037H9.47501175V17.08293877H0z"/>
    <mask id="y" maskContentUnits="userSpaceOnUse" maskUnits="objectBoundingBox" x="0" y="0" width="9.47501175" height="17.0337084" fill="#fff">
      <use xlink:href="#a"/>
    </mask>
    <path id="b" d="M0.09514577 0H10.18059777V11.6151693H0.09514577z"/>
    <mask id="z" maskContentUnits="userSpaceOnUse" maskUnits="objectBoundingBox" x="-1" y="-1" width="12.085452" height="13.6151693">
      <path fill="#fff" d="M-0.90485423 -1H11.18059777V12.6151693H-0.90485423z"/>
      <use xlink:href="#b" fill="#000"/>
    </mask>
    <path id="c" d="M0.29674177 0.2037749H10.38219377V11.8189442H0.29674177z"/>
    <mask id="A" maskContentUnits="userSpaceOnUse" maskUnits="objectBoundingBox" x="-1" y="-1" width="12.085452" height="13.6151693">
      <path fill="#fff" d="M-0.70325823 -0.7962251H11.38219377V12.8189442H-0.70325823z"/>
      <use xlink:href="#c" fill="#000"/>
    </mask>
    <path id="d" d="M0.29680406 0.19829947H10.38437306V11.50136907H0.29680406z"/>
    <mask id="B" maskContentUnits="userSpaceOnUse" maskUnits="objectBoundingBox" x="-1" y="-1" width="12.087569" height="13.3030696">
      <path fill="#fff" d="M-0.70319594 -0.80170053H11.38437306V12.50136907H-0.70319594z"/>
      <use xlink:href="#d" fill="#000"/>
    </mask>
    <path id="e" d="M0 0.04957487H9.47700063V17.20247877H0z"/>
    <mask id="C" maskContentUnits="userSpaceOnUse" maskUnits="objectBoundingBox" x="0" y="0" width="9.47700063" height="17.1529039" fill="#fff">
      <use xlink:href="#e"/>
    </mask>
    <path id="f" d="M0.2485734 0.15801989H8.69691242V9.16515348H0.2485734z"/>
    <mask id="D" maskContentUnits="userSpaceOnUse" maskUnits="objectBoundingBox" x="-1" y="-1" width="10.448339" height="11.0071336">
      <path fill="#fff" d="M-0.7514266 -0.84198011H9.6969124V10.16515349H-0.7514266z"/>
      <use xlink:href="#f" fill="#000"/>
    </mask>
    <path id="g" d="M0 0.03950497H7.93698803V13.70822527H0z"/>
    <mask id="E" maskContentUnits="userSpaceOnUse" maskUnits="objectBoundingBox" x="0" y="0" width="7.93698803" height="13.6687203" fill="#fff">
      <use xlink:href="#g"/>
    </mask>
    <path id="h" d="M0.29680406 0.19829947H10.38437306V11.50136907H0.29680406z"/>
    <mask id="F" maskContentUnits="userSpaceOnUse" maskUnits="objectBoundingBox" x="-1" y="-1" width="12.087569" height="13.3030696">
      <path fill="#fff" d="M-0.70319594 -0.80170053H11.38437306V12.50136907H-0.70319594z"/>
      <use xlink:href="#h" fill="#000"/>
    </mask>
    <path id="i" d="M0 0.04957487H9.47700063V17.20247877H0z"/>
    <mask id="G" maskContentUnits="userSpaceOnUse" maskUnits="objectBoundingBox" x="0" y="0" width="9.47700063" height="17.1529039" fill="#fff">
      <use xlink:href="#i"/>
    </mask>
    <path id="j" d="M0.29680406 0.15801989H10.38437306V9.16515348H0.29680406z"/>
    <mask id="H" maskContentUnits="userSpaceOnUse" maskUnits="objectBoundingBox" x="-1" y="-1" width="12.087569" height="11.0071336">
      <path fill="#fff" d="M-0.70319594 -0.84198011H11.38437306V10.16515349H-0.70319594z"/>
      <use xlink:href="#j" fill="#000"/>
    </mask>
    <path id="k" d="M0 0.03950497H9.47700063V13.70822527H0z"/>
    <mask id="I" maskContentUnits="userSpaceOnUse" maskUnits="objectBoundingBox" x="0" y="0" width="9.47700063" height="13.6687203" fill="#fff">
      <use xlink:href="#k"/>
    </mask>
    <path id="l" d="M0.29680406 0.19829947H10.38437306V11.50136907H0.29680406z"/>
    <mask id="J" maskContentUnits="userSpaceOnUse" maskUnits="objectBoundingBox" x="-1" y="-1" width="12.087569" height="13.3030696">
      <path fill="#fff" d="M-0.70319594 -0.80170053H11.38437306V12.50136907H-0.70319594z"/>
      <use xlink:href="#l" fill="#000"/>
    </mask>
    <path id="m" d="M0 0.04957487H9.47700063V17.20247877H0z"/>
    <mask id="K" maskContentUnits="userSpaceOnUse" maskUnits="objectBoundingBox" x="0" y="0" width="9.47700063" height="17.1529039" fill="#fff">
      <use xlink:href="#m"/>
    </mask>
    <path id="n" d="M0.29680406 0.19829947H10.38437306V11.50136907H0.29680406z"/>
    <mask id="L" maskContentUnits="userSpaceOnUse" maskUnits="objectBoundingBox" x="-1" y="-1" width="12.087569" height="13.3030696">
      <path fill="#fff" d="M-0.70319594 -0.80170053H11.38437306V12.50136907H-0.70319594z"/>
      <use xlink:href="#n" fill="#000"/>
    </mask>
    <path id="o" d="M0 0.04957487H9.47700063V17.20247877H0z"/>
    <mask id="M" maskContentUnits="userSpaceOnUse" maskUnits="objectBoundingBox" x="0" y="0" width="9.47700063" height="17.1529039" fill="#fff">
      <use xlink:href="#o"/>
    </mask>
    <path id="p" d="M0 0.05104531H8.98984549V17.71272171H0z"/>
    <mask id="N" maskContentUnits="userSpaceOnUse" maskUnits="objectBoundingBox" x="0" y="0" width="8.98984549" height="17.6616764" fill="#fff">
      <use xlink:href="#p"/>
    </mask>
    <path id="q" d="M0.65176179 0.15572544H7.94989156V9.032075449999999H0.65176179z"/>
    <mask id="O" maskContentUnits="userSpaceOnUse" maskUnits="objectBoundingBox" x="-1" y="-1" width="9.29812977" height="10.87635">
      <path fill="#fff" d="M-0.34823821 -0.84427456H8.94989156V10.03207544H-0.34823821z"/>
      <use xlink:href="#q" fill="#000"/>
    </mask>
    <path id="r" d="M0.21260012 0.15418005H7.43830453V8.94244272H0.21260012z"/>
    <mask id="P" maskContentUnits="userSpaceOnUse" maskUnits="objectBoundingBox" x="-1" y="-1" width="9.22570441" height="10.7882627">
      <path fill="#fff" d="M-0.78739988 -0.84581995H8.43830453V9.942442750000001H-0.78739988z"/>
      <use xlink:href="#r" fill="#000"/>
    </mask>
    <path id="s" d="M0 0.05104531H9.32696469V17.71272171H0z"/>
    <mask id="Q" maskContentUnits="userSpaceOnUse" maskUnits="objectBoundingBox" x="0" y="0" width="9.32696469" height="17.6616764" fill="#fff">
      <use xlink:href="#s"/>
    </mask>
    <path id="t" d="M0.67620286 0.15572544H8.2480125V9.032075449999999H0.67620286z"/>
    <mask id="R" maskContentUnits="userSpaceOnUse" maskUnits="objectBoundingBox" x="-1" y="-1" width="9.57180964" height="10.87635">
      <path fill="#fff" d="M-0.32379714 -0.84427456H9.2480125V10.03207544H-0.32379714z"/>
      <use xlink:href="#t" fill="#000"/>
    </mask>
    <path id="u" d="M0.22057262 0.15418005H7.71724094V8.94244272H0.22057262z"/>
    <mask id="S" maskContentUnits="userSpaceOnUse" maskUnits="objectBoundingBox" x="-1" y="-1" width="9.49666832" height="10.7882627">
      <path fill="#fff" d="M-0.77942738 -0.84581995H8.71724094V9.942442750000001H-0.77942738z"/>
      <use xlink:href="#u" fill="#000"/>
    </mask>
    <path id="v" d="M0 0.05237613H10.3498178V18.17451703H0z"/>
    <mask id="T" maskContentUnits="userSpaceOnUse" maskUnits="objectBoundingBox" x="0" y="0" width="10.3498178" height="18.1221409" fill="#fff">
      <use xlink:href="#v"/>
    </mask>
    <path id="w" d="M0.32413925 0.21990128H11.34075775V12.75427398H0.32413925z"/>
    <mask id="U" maskContentUnits="userSpaceOnUse" maskUnits="objectBoundingBox" x="-.75" y="-.75" width="12.5166185" height="14.0343727">
      <path fill="#fff" d="M-0.42586075 -0.53009872H12.09075775V13.50427398H-0.42586075z"/>
      <use xlink:href="#w" fill="#000"/>
    </mask>
    <path id="x" d="M0.32413925 0.21990128H11.34075775V12.75427398H0.32413925z"/>
    <mask id="V" maskContentUnits="userSpaceOnUse" maskUnits="objectBoundingBox" x="-.75" y="-.75" width="12.5166185" height="14.0343727">
      <path fill="#fff" d="M-0.42586075 -0.53009872H12.09075775V13.50427398H-0.42586075z"/>
      <use xlink:href="#x" fill="#000"/>
    </mask>
  </defs>
  <g stroke="none" stroke-width="1" fill="none" fill-rule="evenodd">
    <path fill="#553B26" d="M27.1857166 43.97851L38.7730194 43.97851 41.4235634 89.0357993 25.1530836 89.0357993" transform="translate(712.7 39.152)"/>
    <path d="M23.610517,51.2393941 C26.4657298,52.6628403 29.7687043,53.4758503 33.2883235,53.4758503 C36.8555156,53.4758503 40.2001668,52.6407137 43.0816614,51.1813401 C44.9025897,52.478982 47.2250806,53.25678 49.7548332,53.25678 C55.6011061,53.25678 60.3404466,49.102757 60.3404466,43.97851 C60.3404466,42.8338402 60.1039536,41.7375845 59.6714574,40.7252322 C63.9651894,38.6340225 66.8706919,34.6181199 66.8706919,30.0074113 C66.8706919,23.2403213 60.61191,17.7545108 52.8913113,17.7545108 C51.7558114,17.7545108 50.6519318,17.8731732 49.5949331,18.0971219 C49.6197307,17.7480265 49.6323145,17.3960306 49.6323145,17.0414586 C49.6323145,7.80120762 41.0861426,0.310504171 30.5439052,0.310504171 C20.0016679,0.310504171 11.455496,7.80120762 11.455496,17.0414586 C11.455496,17.7428895 11.5047423,18.4342388 11.6003698,19.1129953 C11.5521795,19.1122577 11.5038871,19.1118874 11.455496,19.1118874 C6.96252702,19.1118874 3.32025605,22.3043309 3.32025605,26.2424097 C3.32025605,28.5122258 4.53025451,30.5343345 6.41572667,31.840226 C2.5558396,34.0450461 0,37.888178 0,42.2603119 C0,49.1021306 6.25878189,54.6485205 13.9793806,54.6485205 C17.7121909,54.6485205 21.1032872,53.3519973 23.610517,51.2393941 Z" fill="#38A684" transform="translate(712.7 39.152)"/>
    <path fill="#553B26" d="M24.0339267 35.5781205L34.1322168 35.5781205 36.4421558 72.0289613 22.2624948 72.0289613" transform="translate(460.54 56.214)"/>
    <path d="M14.9698834,35.3060474 C17.8302642,39.1272577 22.9882984,41.6777142 28.8761482,41.6777142 C32.8213694,41.6777142 36.4389163,40.5326042 39.2571115,38.6273775 C40.783735,39.2298649 42.496484,39.5676245 44.3058832,39.5676245 C50.7195732,39.5676245 55.9188962,35.3238262 55.9188962,30.0888357 C55.9188962,26.8080421 53.8768159,23.916548 50.7735277,22.2149626 C50.9624375,21.7071206 51.0640257,21.1682671 51.0640257,20.6100469 C51.0640257,17.5635669 48.0383023,15.0939069 44.3058832,15.0939069 C44.2484116,15.0939069 44.1911074,15.0944925 44.1339793,15.0956567 C44.2472196,14.4715773 44.3058832,13.8329783 44.3058832,13.1831958 C44.3058832,6.03497915 37.2063695,0.240204631 28.4486754,0.240204631 C21.2906845,0.240204631 15.2404251,4.11134821 13.2689437,9.42860386 C8.96780094,9.89734236 5.65012234,12.9037944 5.65012234,16.5427244 C5.65012234,16.9845995 5.69904229,17.4171486 5.79270275,17.8369603 C2.3355527,19.4969437 0.0115516332,22.5875968 0.0115516332,26.1261869 C0.0115516332,31.4189871 5.21087463,35.7096494 11.6245646,35.7096494 C12.7875158,35.7096494 13.9105409,35.5685805 14.9698834,35.3060474 Z" fill="#38A684" transform="translate(460.54 56.214)"/>
    <path fill="#553B26" d="M10.7294316 17.2949197L15.2375968 17.2949197 16.2688195 35.0140784 9.93861376 35.0140784" transform="translate(829.773 92.862)"/>
    <path d="M6.68298364,17.1626619 C7.95993936,19.0201947 10.2626332,20.2599999 12.8911376,20.2599999 C14.6523971,20.2599999 16.2673733,19.7033493 17.5254962,18.7771974 C18.2070246,19.0700732 18.9716447,19.2342619 19.7794122,19.2342619 C22.6426666,19.2342619 24.9637929,17.1713044 24.9637929,14.6265174 C24.9637929,13.0316871 24.0521499,11.6260997 22.6667534,10.7989402 C22.7510882,10.5520725 22.7964401,10.2901298 22.7964401,10.0187728 C22.7964401,8.53784504 21.4456707,7.33731587 19.7794122,7.33731587 C19.7537552,7.33731587 19.728173,7.33760051 19.7026693,7.33816644 C19.753223,7.0347945 19.7794122,6.72436445 19.7794122,6.40849795 C19.7794122,2.93367042 16.6099864,0.11676614 12.7003015,0.11676614 C9.50476987,0.11676614 6.80376121,1.99857205 5.92363557,4.5833491 C4.00348256,4.81120809 2.52237604,6.27267784 2.52237604,8.04160215 C2.52237604,8.25640256 2.54421531,8.46666947 2.58602801,8.67074461 C1.04265746,9.47768098 0.0051569791,10.9800818 0.0051569791,12.7002298 C0.0051569791,15.2731187 2.32628332,17.3588574 5.18953776,17.3588574 C5.70871242,17.3588574 6.21006292,17.2902822 6.68298364,17.1626619 Z" fill="#38A684" transform="translate(829.773 92.862)"/>
    <path fill="#553B26" d="M24.196995 50.3758496L35.3118915 50.3758496 37.8543747 100.046807 22.2472311 100.046807" transform="translate(588.62 28.105)"/>
    <path d="M2.0945906,40.6964818 C0.986353644,38.4129819 0.364323383,35.846319 0.364323383,33.1333105 C0.364323383,24.6330069 6.47062229,17.5693388 14.5056383,16.1504477 C14.4197143,15.5162656 14.3753263,14.8687674 14.3753263,14.210826 C14.3753263,6.36240352 20.6915257,0 28.4829525,0 C36.2743793,0 42.5905787,6.36240352 42.5905787,14.210826 C42.5905787,15.5110196 42.4172353,16.7704306 42.0925581,17.9668884 C42.2578192,17.9608105 42.4238435,17.9577452 42.5905787,17.9577452 C49.9964139,17.9577452 56.0000296,24.0052784 56.0000296,31.4652887 C56.0000296,35.579863 54.1736803,39.2647501 51.2930328,41.7422513 C54.122861,43.5576259 56.0000296,46.745916 56.0000296,50.3758496 C56.0000296,56.0247969 51.4539087,60.6041735 45.8459844,60.6041735 C42.0229291,60.6041735 38.6933442,58.4759207 36.9611632,55.3314243 C34.8532967,56.2903081 32.5139249,56.8240217 30.0508029,56.8240217 C28.0078604,56.8240217 26.0500487,56.4568674 24.2388498,55.7844905 C21.7812853,58.8701509 18.0065587,60.8456756 13.7737743,60.8456756 C6.36793907,60.8456756 0.364323383,54.7981424 0.364323383,47.3381321 C0.364323383,44.9239625 0.993061168,42.6577168 2.0945906,40.6964818 Z" fill="#38A684" transform="translate(588.62 28.105)"/>
    <path fill="#553B26" d="M24.196995 50.3758496L35.3118915 50.3758496 37.8543747 100.046807 22.2472311 100.046807" transform="translate(426.52 26.105)"/>
    <path d="M2.0945906,40.6964818 C0.986353644,38.4129819 0.364323383,35.846319 0.364323383,33.1333105 C0.364323383,24.6330069 6.47062229,17.5693388 14.5056383,16.1504477 C14.4197143,15.5162656 14.3753263,14.8687674 14.3753263,14.210826 C14.3753263,6.36240352 20.6915257,0 28.4829525,0 C36.2743793,0 42.5905787,6.36240352 42.5905787,14.210826 C42.5905787,15.5110196 42.4172353,16.7704306 42.0925581,17.9668884 C42.2578192,17.9608105 42.4238435,17.9577452 42.5905787,17.9577452 C49.9964139,17.9577452 56.0000296,24.0052784 56.0000296,31.4652887 C56.0000296,35.579863 54.1736803,39.2647501 51.2930328,41.7422513 C54.122861,43.5576259 56.0000296,46.745916 56.0000296,50.3758496 C56.0000296,56.0247969 51.4539087,60.6041735 45.8459844,60.6041735 C42.0229291,60.6041735 38.6933442,58.4759207 36.9611632,55.3314243 C34.8532967,56.2903081 32.5139249,56.8240217 30.0508029,56.8240217 C28.0078604,56.8240217 26.0500487,56.4568674 24.2388498,55.7844905 C21.7812853,58.8701509 18.0065587,60.8456756 13.7737743,60.8456756 C6.36793907,60.8456756 0.364323383,54.7981424 0.364323383,47.3381321 C0.364323383,44.9239625 0.993061168,42.6577168 2.0945906,40.6964818 Z" fill="#38A684" transform="translate(426.52 26.105)"/>
    <path fill="#553B26" d="M28.9499762 50.3758496L42.2481559 50.3758496 45.2900554 100.046807 26.6172229 100.046807" transform="translate(874.8 28.105)"/>
    <path d="M2.50602803,40.6964818 C1.18010168,38.4129819 0.435886904,35.846319 0.435886904,33.1333105 C0.435886904,24.6330069 7.74163738,17.5693388 17.3549601,16.1504477 C17.2521582,15.5162656 17.1990511,14.8687674 17.1990511,14.210826 C17.1990511,6.36240352 24.7559325,0 34.0778181,0 C43.3997038,0 50.9565852,6.36240352 50.9565852,14.210826 C50.9565852,15.5110196 50.7491923,16.7704306 50.3607392,17.9668884 C50.5584622,17.9608105 50.7570985,17.9577452 50.9565852,17.9577452 C59.8171381,17.9577452 67.0000354,24.0052784 67.0000354,31.4652887 C67.0000354,35.579863 64.8149389,39.2647501 61.3684499,41.7422513 C64.7541372,43.5576259 67.0000354,46.745916 67.0000354,50.3758496 C67.0000354,56.0247969 61.5609265,60.6041735 54.8514456,60.6041735 C50.2774331,60.6041735 46.2938225,58.4759207 44.2213916,55.3314243 C41.69948,56.2903081 38.9005887,56.8240217 35.9536392,56.8240217 C33.5094044,56.8240217 31.1670226,56.4568674 29.0000525,55.7844905 C26.059752,58.8701509 21.5435613,60.8456756 16.4793371,60.8456756 C7.61878424,60.8456756 0.435886904,54.7981424 0.435886904,47.3381321 C0.435886904,44.9239625 1.18812675,42.6577168 2.50602803,40.6964818 Z" fill="#38A684" transform="translate(874.8 28.105)"/>
    <path fill="#553B26" d="M28.9499762 50.3758496L42.2481559 50.3758496 45.2900554 100.046807 26.6172229 100.046807" transform="translate(923.832 27.605)"/>
    <path d="M2.50602803,40.6964818 C1.18010168,38.4129819 0.435886904,35.846319 0.435886904,33.1333105 C0.435886904,24.6330069 7.74163738,17.5693388 17.3549601,16.1504477 C17.2521582,15.5162656 17.1990511,14.8687674 17.1990511,14.210826 C17.1990511,6.36240352 24.7559325,0 34.0778181,0 C43.3997038,0 50.9565852,6.36240352 50.9565852,14.210826 C50.9565852,15.5110196 50.7491923,16.7704306 50.3607392,17.9668884 C50.5584622,17.9608105 50.7570985,17.9577452 50.9565852,17.9577452 C59.8171381,17.9577452 67.0000354,24.0052784 67.0000354,31.4652887 C67.0000354,35.579863 64.8149389,39.2647501 61.3684499,41.7422513 C64.7541372,43.5576259 67.0000354,46.745916 67.0000354,50.3758496 C67.0000354,56.0247969 61.5609265,60.6041735 54.8514456,60.6041735 C50.2774331,60.6041735 46.2938225,58.4759207 44.2213916,55.3314243 C41.69948,56.2903081 38.9005887,56.8240217 35.9536392,56.8240217 C33.5094044,56.8240217 31.1670226,56.4568674 29.0000525,55.7844905 C26.059752,58.8701509 21.5435613,60.8456756 16.4793371,60.8456756 C7.61878424,60.8456756 0.435886904,54.7981424 0.435886904,47.3381321 C0.435886904,44.9239625 1.18812675,42.6577168 2.50602803,40.6964818 Z" fill="#38A684" transform="translate(923.832 27.605)"/>
    <path fill="#553B26" d="M24.196995 44.8345061L35.3118915 44.8345061 37.8543747 89.0416579 22.2472311 89.0416579" transform="translate(1066.5 39)"/>
    <path d="M2.0945906,36.2198688 C0.986353644,34.1875538 0.364323383,31.9032239 0.364323383,29.4886463 C0.364323383,21.9233761 6.47062229,15.6367115 14.5056383,14.3738984 C14.4197143,13.8094763 14.3753263,13.233203 14.3753263,12.6476351 C14.3753263,5.66253913 20.6915257,0 28.4829525,0 C36.2743793,0 42.5905787,5.66253913 42.5905787,12.6476351 C42.5905787,13.8048075 42.4172353,14.9256832 42.0925581,15.9905307 C42.2578192,15.9851214 42.4238435,15.9823932 42.5905787,15.9823932 C49.9964139,15.9823932 56.0000296,21.3646978 56.0000296,28.0041069 C56.0000296,31.666078 54.1736803,34.9456276 51.2930328,37.1506036 C54.122861,38.766287 56.0000296,41.6038652 56.0000296,44.8345061 C56.0000296,49.8620692 51.4539087,53.9377144 45.8459844,53.9377144 C42.0229291,53.9377144 38.6933442,52.0435694 36.9611632,49.2449676 C34.8532967,50.0983742 32.5139249,50.5733793 30.0508029,50.5733793 C28.0078604,50.5733793 26.0500487,50.246612 24.2388498,49.6481965 C21.7812853,52.3944343 18.0065587,54.1526513 13.7737743,54.1526513 C6.36793907,54.1526513 0.364323383,48.7703467 0.364323383,42.1309375 C0.364323383,39.9823267 0.993061168,37.965368 2.0945906,36.2198688 Z" fill="#38A684" transform="translate(1066.5 39)"/>
    <path fill="#553B26" d="M37.9317219 60.4510195L55.5853442 60.4510195 59.6235319 120.056168 34.8349413 120.056168" transform="translate(1122.5 8)"/>
    <path d="M2.82680662,48.8357782 C1.0666106,46.0955782 0.0786493289,43.0155828 0.0786493289,39.7599726 C0.0786493289,29.5596083 9.7771917,21.0832065 22.5390863,19.3805372 C22.4026145,18.6195187 22.3321138,17.8425209 22.3321138,17.0529912 C22.3321138,7.63488422 32.3640379,0 44.7390435,0 C57.114049,0 67.1459732,7.63488422 67.1459732,17.0529912 C67.1459732,18.6132236 66.8706545,20.1245167 66.3549746,21.5602661 C66.6174563,21.5529727 66.8811503,21.5492942 67.1459732,21.5492942 C78.9085495,21.5492942 88.4440017,28.8063341 88.4440017,37.7583464 C88.4440017,42.6958356 85.5432386,47.1177001 80.9679496,50.0907015 C85.4625231,52.269151 88.4440017,56.0950992 88.4440017,60.4510195 C88.4440017,67.2297563 81.2234665,72.7250082 72.3164849,72.7250082 C66.244384,72.7250082 60.9560545,70.1711048 58.2048575,66.3977091 C54.856965,67.5483698 51.1413761,68.1888261 47.2292366,68.1888261 C43.9844619,68.1888261 40.8748992,67.7482409 37.9981993,66.9413886 C34.0948866,70.6441811 28.0995453,73.0148107 21.3766779,73.0148107 C9.6141015,73.0148107 0.0786493289,65.7577708 0.0786493289,56.8057585 C0.0786493289,53.908755 1.07726406,51.1892602 2.82680662,48.8357782 Z" fill="#38A684" transform="translate(1122.5 8)"/>
    <path fill="#553B26" d="M28.9499762 50.3758496L42.2481559 50.3758496 45.2900554 100.046807 26.6172229 100.046807" transform="translate(246.405 28.11)"/>
    <path d="M2.50602803,40.6964818 C1.18010168,38.4129819 0.435886904,35.846319 0.435886904,33.1333105 C0.435886904,24.6330069 7.74163738,17.5693388 17.3549601,16.1504477 C17.2521582,15.5162656 17.1990511,14.8687674 17.1990511,14.210826 C17.1990511,6.36240352 24.7559325,0 34.0778181,0 C43.3997038,0 50.9565852,6.36240352 50.9565852,14.210826 C50.9565852,15.5110196 50.7491923,16.7704306 50.3607392,17.9668884 C50.5584622,17.9608105 50.7570985,17.9577452 50.9565852,17.9577452 C59.8171381,17.9577452 67.0000354,24.0052784 67.0000354,31.4652887 C67.0000354,35.579863 64.8149389,39.2647501 61.3684499,41.7422513 C64.7541372,43.5576259 67.0000354,46.745916 67.0000354,50.3758496 C67.0000354,56.0247969 61.5609265,60.6041735 54.8514456,60.6041735 C50.2774331,60.6041735 46.2938225,58.4759207 44.2213916,55.3314243 C41.69948,56.2903081 38.9005887,56.8240217 35.9536392,56.8240217 C33.5094044,56.8240217 31.1670226,56.4568674 29.0000525,55.7844905 C26.059752,58.8701509 21.5435613,60.8456756 16.4793371,60.8456756 C7.61878424,60.8456756 0.435886904,54.7981424 0.435886904,47.3381321 C0.435886904,44.9239625 1.18812675,42.6577168 2.50602803,40.6964818 Z" fill="#38A684" transform="translate(246.405 28.11)"/>
    <path fill="#553B26" d="M38.9526686 63.2499919L55.5553711 63.2499919 59.3531655 128.051487 36.0402392 128.051487" transform="translate(198.375)"/>
    <path d="M33.8299945,73.6926117 C37.9210457,75.7398153 42.6536659,76.909088 47.6967024,76.909088 C52.8079029,76.909088 57.6002391,75.7079928 61.7289476,73.6091183 C64.338039,75.4753898 67.6657872,76.5940207 71.2905073,76.5940207 C79.6672564,76.5940207 86.4579533,70.6196955 86.4579533,63.2499919 C86.4579533,61.6037252 86.1190977,60.0270878 85.4994016,58.5711204 C91.6516147,55.563538 95.8147227,49.7878579 95.8147227,43.1567264 C95.8147227,33.4242822 86.8469158,25.5345774 75.7845654,25.5345774 C74.1575805,25.5345774 72.5759023,25.7052379 71.0613967,26.0273214 C71.0969276,25.5252517 71.1149582,25.0190104 71.1149582,24.5090641 C71.1149582,11.2197143 58.8696969,0.446567797 43.7644016,0.446567797 C28.6591062,0.446567797 16.4138449,11.2197143 16.4138449,24.5090641 C16.4138449,25.5178636 16.4844069,26.5121637 16.6214253,27.4883528 C16.5523766,27.487292 16.4831815,27.4867594 16.4138449,27.4867594 C9.97615811,27.4867594 4.7573818,32.0781389 4.7573818,37.7418925 C4.7573818,41.0063472 6.49111094,43.9145486 9.19268298,45.7926845 C3.66209854,48.9636619 0,54.4908627 0,60.7788755 C0,70.6187945 8.96780689,78.595625 20.0301573,78.595625 C25.3786616,78.595625 30.2375458,76.7309624 33.8299945,73.6926117 Z" fill="#38A684" transform="translate(198.375)"/>
    <g>
      <path fill="#553B26" d="M27.1857166 43.97851L38.7730194 43.97851 41.4235634 89.0357993 25.1530836 89.0357993" transform="translate(37.273 39.148)"/>
      <path d="M23.610517,51.2393941 C26.4657298,52.6628403 29.7687043,53.4758503 33.2883235,53.4758503 C36.8555156,53.4758503 40.2001668,52.6407137 43.0816614,51.1813401 C44.9025897,52.478982 47.2250806,53.25678 49.7548332,53.25678 C55.6011061,53.25678 60.3404466,49.102757 60.3404466,43.97851 C60.3404466,42.8338402 60.1039536,41.7375845 59.6714574,40.7252322 C63.9651894,38.6340225 66.8706919,34.6181199 66.8706919,30.0074113 C66.8706919,23.2403213 60.61191,17.7545108 52.8913113,17.7545108 C51.7558114,17.7545108 50.6519318,17.8731732 49.5949331,18.0971219 C49.6197307,17.7480265 49.6323145,17.3960306 49.6323145,17.0414586 C49.6323145,7.80120762 41.0861426,0.310504171 30.5439052,0.310504171 C20.0016679,0.310504171 11.455496,7.80120762 11.455496,17.0414586 C11.455496,17.7428895 11.5047423,18.4342388 11.6003698,19.1129953 C11.5521795,19.1122577 11.5038871,19.1118874 11.455496,19.1118874 C6.96252702,19.1118874 3.32025605,22.3043309 3.32025605,26.2424097 C3.32025605,28.5122258 4.53025451,30.5343345 6.41572667,31.840226 C2.5558396,34.0450461 0,37.888178 0,42.2603119 C0,49.1021306 6.25878189,54.6485205 13.9793806,54.6485205 C17.7121909,54.6485205 21.1032872,53.3519973 23.610517,51.2393941 Z" fill="#38A684" transform="translate(37.273 39.148)"/>
    </g>
    <g>
      <path fill="#69D2E7" d="M0 32.2473779H96.0604915V65.8702364H0z" transform="translate(970.5 62.5)"/>
      <path fill="#828282" style="mix-blend-mode: color-burn;" d="M0 59.6041582H96.0604915V65.92118009000001H0z" transform="translate(970.5 62.5)"/>
      <path fill="#FA6900" d="M19.4002596 3.92266682L79.15894 3.92266682 96.0604915 32.2473779 0 32.2473779" transform="translate(970.5 62.5)"/>
      <path d="M0.199025788,24.7020775 L0.0791072891,24.7020775 L0.0791072891,59.6374581 L33.41645,59.6374581 L33.41645,24.7020775 L33.2965315,24.7020775 L16.7477787,3.2750441 L0.199025788,24.7020775 Z" fill="#A7DBD8" transform="translate(1001.823 68.684)"/>
      <path d="M0.0503989987,10.4939737 L8.61822878,10.4939737 C8.61822878,10.4939737 8.61822849,4.98367837 8.61822849,4.70427782 C8.61822849,2.13245159 6.70025453,0.0475744931 4.33431374,0.0475744931 C1.96837296,0.0475744931 0.0503989987,2.13245159 0.0503989987,4.70427782 L0.0503989987,10.4939737 Z" fill="#ABD3FA" transform="translate(1013.037 88.97)" stroke="#979797"/>
      <path fill="#828282" style="mix-blend-mode: color-burn;" d="M0.12631648 26.2217738L16.9493447 0.03821207 22.0231064 8.21382874 0.12631648 39.3387412" transform="translate(1001.823 68.684)"/>
      <path d="M21.8227664,0 L43.6455329,32.3429817 L0,32.3429817 L21.8227664,0 L21.8227664,0 Z M21.8227664,12.332216 L35.1061895,32.3429817 L8.53934339,32.3429817 L21.8227664,12.332216 L21.8227664,12.332216 Z" transform="translate(996.707 62.55)" fill="#F38630"/>
      <g transform="translate(1013.037 111.14)">
        <use stroke="#745A5A" mask="url(#y)" stroke-width="2.4" fill="#764030" xlink:href="#a"/>
      </g>
      <path fill="#E0E4CC" d="M9.47501175 45.2380278H20.15959945V57.056972H9.47501175z" transform="translate(970.5 62.5)"/>
      <g>
        <g transform="translate(980.58 107.84)">
          <use fill-opacity=".5" fill="#D2FFFA" fill-rule="evenodd" xlink:href="#b"/>
          <use stroke="#924715" mask="url(#z)" stroke-width="2" xlink:href="#b"/>
        </g>
      </g>
      <g>
        <path fill="#E0E4CC" d="M0.02189956 0H10.70648726V11.8189442H0.02189956z" transform="translate(1044.262 107.534)"/>
        <g transform="translate(1044.262 107.534)">
          <use fill-opacity=".5" fill="#D2FFFA" fill-rule="evenodd" xlink:href="#c"/>
          <use stroke="#924715" mask="url(#A)" stroke-width="2" xlink:href="#c"/>
        </g>
      </g>
    </g>
    <g>
      <path fill="#69D2E7" d="M4.86717501 36.6214152H57.64367131V63.9227555H4.86717501z" transform="translate(294.51 63.827)"/>
      <path fill="#828282" style="mix-blend-mode: color-burn;" d="M4.86717501 57.775472H74.86013731V63.92275547H4.86717501z" transform="translate(294.51 63.827)"/>
      <path fill="#FA6900" d="M25.154319 0.06335563L58.0749161 0.06335563 58.0749164 36.6214158 0.08302226 36.6214152" transform="translate(294.51 63.827)"/>
      <path d="M41.6357405,30.0890761 L41.5157969,30.0890761 L41.5157969,63.951578 L74.8601374,63.951578 L74.8601374,30.0890761 L74.7401937,30.0890761 L58.1879671,9.32007494 L41.6357405,30.0890761 Z" fill="#A7DBD8" transform="translate(294.51 63.827)"/>
      <ellipse fill="#D8D8D8" cx="4.48645243" cy="4.41216314" rx="4.48645243" ry="4.41216314" transform="translate(348.07 86.256)" stroke="#979797"/>
      <path fill="#828282" style="mix-blend-mode: color-burn;" d="M41.563016 31.5503675L58.3895755 6.18430249 63.4644022 14.1046621 41.563016 44.2578001" transform="translate(294.51 63.827)"/>
      <g>
        <path fill="#E0E4CC" d="M0.02190416 0H10.70873466V11.5013691H0.02190416z" transform="translate(312.763 107.772)"/>
        <g transform="translate(312.763 107.772)">
          <use fill-opacity=".5" fill="#D2FFFA" fill-rule="evenodd" xlink:href="#d"/>
          <use stroke="#924715" mask="url(#B)" stroke-width="2" xlink:href="#d"/>
        </g>
      </g>
      <g fill="#F38630">
        <path d="M21.8273472,0 L43.6546944,32.5693058 L0,32.5693058 L21.8273472,0 L21.8273472,0 Z M21.8273472,12.4185123 L35.1135585,32.5693058 L8.54113586,32.5693058 L21.8273472,12.4185123 L21.8273472,12.4185123 Z" transform="translate(330.83 63.8)"/>
      </g>
      <g transform="translate(347.87 110.647)" stroke="#745A5A" stroke-width="2.4" fill="#764030">
        <use mask="url(#C)" xlink:href="#e"/>
      </g>
    </g>
    <g>
      <path fill="#69D2E7" d="M4.07625907 29.1826902H48.27657467V50.9384457H4.07625907z" transform="translate(194.435 77.362)"/>
      <path fill="#828282" style="mix-blend-mode: color-burn;" d="M4.07625907 46.0398292H62.69536507V50.93844572H4.07625907z" transform="translate(194.435 77.362)"/>
      <path fill="#FA6900" d="M21.0667422 0.05048652L48.6377422 0.05048652 48.6377425 29.1826907 0.06953114 29.1826902" transform="translate(194.435 77.362)"/>
      <path d="M34.8699327,23.9772325 L34.7694799,23.9772325 L34.7694799,50.9614137 L62.695365,50.9614137 L62.695365,23.9772325 L62.5949122,23.9772325 L48.7324225,7.42693472 L34.8699327,23.9772325 Z" fill="#A7DBD8" transform="translate(194.435 77.362)"/>
      <ellipse fill="#D8D8D8" cx="3.75740391" cy="3.5159425" rx="3.75740391" ry="3.5159425" transform="translate(239.292 95.235)" stroke="#979797"/>
      <path fill="#828282" style="mix-blend-mode: color-burn;" d="M34.8090259 25.1416991L48.9012695 4.92811605 53.1514369 11.2396526 34.8090259 35.2679345" transform="translate(194.435 77.362)"/>
      <g>
        <path fill="#E0E4CC" d="M0.01834474 0H8.96856528V9.16515348H0.01834474z" transform="translate(209.72 112.38)"/>
        <g transform="translate(209.72 112.38)">
          <use fill-opacity=".5" fill="#D2FFFA" fill-rule="evenodd" xlink:href="#f"/>
          <use stroke="#924715" mask="url(#D)" stroke-width="2" xlink:href="#f"/>
        </g>
      </g>
      <g fill="#F38630">
        <path d="M18.2804033,0 L36.5608066,25.9536655 L0,25.9536655 L18.2804033,0 L18.2804033,0 Z M18.2804033,9.89600197 L29.4076053,25.9536655 L7.15320128,25.9536655 L18.2804033,9.89600197 L18.2804033,9.89600197 Z" transform="translate(224.854 77.34)"/>
      </g>
      <g transform="translate(239.124 114.67)" stroke="#745A5A" stroke-width="2.4" fill="#764030">
        <use mask="url(#E)" xlink:href="#g"/>
      </g>
    </g>
    <g>
      <path fill="#69D2E7" d="M4.86717501 36.6214152H57.64367131V63.9227555H4.86717501z" transform="matrix(-1 0 0 1 617.564 64.327)"/>
      <path fill="#828282" style="mix-blend-mode: color-burn;" d="M4.86717501 57.775472H74.86013731V63.92275547H4.86717501z" transform="matrix(-1 0 0 1 617.564 64.327)"/>
      <path fill="#FA6900" d="M25.154319 0.06335563L58.0749161 0.06335563 58.0749164 36.6214158 0.08302226 36.6214152" transform="matrix(-1 0 0 1 617.564 64.327)"/>
      <path d="M41.6357405,30.0890761 L41.5157969,30.0890761 L41.5157969,63.951578 L74.8601374,63.951578 L74.8601374,30.0890761 L74.7401937,30.0890761 L58.1879671,9.32007494 L41.6357405,30.0890761 Z" fill="#A7DBD8" transform="matrix(-1 0 0 1 617.564 64.327)"/>
      <ellipse fill="#D8D8D8" cx="4.48645243" cy="4.41216314" rx="4.48645243" ry="4.41216314" transform="matrix(-1 0 0 1 563.398 86.756)" stroke="#979797"/>
      <path fill="#828282" style="mix-blend-mode: color-burn;" transform="translate(489.543 64.327)" d="M53.0595702 31.748667L69.8861298 6.38260196 74.9609565 14.3029615 53.0595702 44.4560996"/>
      <g>
        <path fill="#E0E4CC" d="M0.02190416 0H10.70873466V11.5013691H0.02190416z" transform="matrix(-1 0 0 1 599.312 108.272)"/>
        <g transform="matrix(-1 0 0 1 599.312 108.272)">
          <use fill-opacity=".5" fill="#D2FFFA" fill-rule="evenodd" xlink:href="#h"/>
          <use stroke="#924715" mask="url(#F)" stroke-width="2" xlink:href="#h"/>
        </g>
      </g>
      <g fill="#F38630">
        <path d="M21.8273472,0 L43.6546944,32.5693058 L0,32.5693058 L21.8273472,0 L21.8273472,0 Z M21.8273472,12.4185123 L35.1135585,32.5693058 L8.54113586,32.5693058 L21.8273472,12.4185123 L21.8273472,12.4185123 Z" transform="matrix(-1 0 0 1 581.243 64.3)"/>
      </g>
      <g transform="matrix(-1 0 0 1 564.205 111.147)" stroke="#745A5A" stroke-width="2.4" fill="#764030">
        <use mask="url(#G)" xlink:href="#i"/>
      </g>
    </g>
    <g>
      <path fill="#69D2E7" d="M4.86717501 29.1826902H57.64367131V50.9384457H4.86717501z" transform="matrix(-1 0 0 1 80.225 77.362)"/>
      <path fill="#828282" style="mix-blend-mode: color-burn;" d="M4.86717501 46.0398292H74.86013731V50.93844572H4.86717501z" transform="matrix(-1 0 0 1 80.225 77.362)"/>
      <path fill="#FA6900" d="M25.154319 0.05048652L58.0749161 0.05048652 58.0749164 29.1826907 0.08302226 29.1826902" transform="matrix(-1 0 0 1 80.225 77.362)"/>
      <path d="M41.6357405,23.9772325 L41.5157969,23.9772325 L41.5157969,50.9614137 L74.8601374,50.9614137 L74.8601374,23.9772325 L74.7401937,23.9772325 L58.1879671,7.42693472 L41.6357405,23.9772325 Z" fill="#A7DBD8" transform="matrix(-1 0 0 1 80.225 77.362)"/>
      <ellipse fill="#D8D8D8" cx="4.48645243" cy="3.5159425" rx="4.48645243" ry="3.5159425" transform="matrix(-1 0 0 1 26.06 95.235)" stroke="#979797"/>
      <path fill="#828282" style="mix-blend-mode: color-burn;" transform="translate(-47.795 77.362)" d="M53.0595702 25.299719L69.8861298 5.08613594 74.9609565 11.3976725 53.0595702 35.4259544"/>
      <g>
        <path fill="#E0E4CC" d="M0.02190416 0H10.70873466V9.16515348H0.02190416z" transform="matrix(-1 0 0 1 61.973 112.38)"/>
        <g transform="matrix(-1 0 0 1 61.973 112.38)">
          <use fill-opacity=".5" fill="#D2FFFA" fill-rule="evenodd" xlink:href="#j"/>
          <use stroke="#924715" mask="url(#H)" stroke-width="2" xlink:href="#j"/>
        </g>
      </g>
      <g fill="#F38630">
        <path d="M21.8273472,0 L43.6546944,25.9536655 L0,25.9536655 L21.8273472,0 L21.8273472,0 Z M21.8273472,9.89600197 L35.1135585,25.9536655 L8.54113586,25.9536655 L21.8273472,9.89600197 L21.8273472,9.89600197 Z" transform="matrix(-1 0 0 1 43.905 77.34)"/>
      </g>
      <g transform="matrix(-1 0 0 1 26.866 114.67)" stroke="#745A5A" stroke-width="2.4" fill="#764030">
        <use mask="url(#I)" xlink:href="#k"/>
      </g>
    </g>
    <g>
      <path fill="#69D2E7" d="M4.86717501 36.6214152H57.64367131V63.9227555H4.86717501z" transform="matrix(-1 0 0 1 173.284 64.076)"/>
      <path fill="#828282" style="mix-blend-mode: color-burn;" d="M4.86717501 57.775472H74.86013731V63.92275547H4.86717501z" transform="matrix(-1 0 0 1 173.284 64.076)"/>
      <path fill="#FA6900" d="M25.154319 0.06335563L58.0749161 0.06335563 58.0749164 36.6214158 0.08302226 36.6214152" transform="matrix(-1 0 0 1 173.284 64.076)"/>
      <path d="M41.6357405,30.0890761 L41.5157969,30.0890761 L41.5157969,63.951578 L74.8601374,63.951578 L74.8601374,30.0890761 L74.7401937,30.0890761 L58.1879671,9.32007494 L41.6357405,30.0890761 Z" fill="#A7DBD8" transform="matrix(-1 0 0 1 173.284 64.076)"/>
      <ellipse fill="#D8D8D8" cx="4.48645243" cy="4.41216314" rx="4.48645243" ry="4.41216314" transform="matrix(-1 0 0 1 119.118 86.505)" stroke="#979797"/>
      <path fill="#828282" style="mix-blend-mode: color-burn;" transform="translate(45.263 64.076)" d="M53.0595702 31.748667L69.8861298 6.38260196 74.9609565 14.3029615 53.0595702 44.4560996"/>
      <g>
        <path fill="#E0E4CC" d="M0.02190416 0H10.70873466V11.5013691H0.02190416z" transform="matrix(-1 0 0 1 155.032 108.02)"/>
        <g transform="matrix(-1 0 0 1 155.032 108.02)">
          <use fill-opacity=".5" fill="#D2FFFA" fill-rule="evenodd" xlink:href="#l"/>
          <use stroke="#924715" mask="url(#J)" stroke-width="2" xlink:href="#l"/>
        </g>
      </g>
      <g fill="#F38630">
        <path d="M21.8273472,0 L43.6546944,32.5693058 L0,32.5693058 L21.8273472,0 L21.8273472,0 Z M21.8273472,12.4185123 L35.1135585,32.5693058 L8.54113586,32.5693058 L21.8273472,12.4185123 L21.8273472,12.4185123 Z" transform="matrix(-1 0 0 1 136.963 64.048)"/>
      </g>
      <g transform="matrix(-1 0 0 1 119.925 110.896)" stroke="#745A5A" stroke-width="2.4" fill="#764030">
        <use mask="url(#K)" xlink:href="#m"/>
      </g>
    </g>
    <g>
      <path fill="#69D2E7" d="M4.86717501 36.6214152H57.64367131V63.9227555H4.86717501z" transform="matrix(-1 0 0 1 724.63 63.827)"/>
      <path fill="#828282" style="mix-blend-mode: color-burn;" d="M4.86717501 57.775472H74.86013731V63.92275547H4.86717501z" transform="matrix(-1 0 0 1 724.63 63.827)"/>
      <path fill="#FA6900" d="M25.154319 0.06335563L58.0749161 0.06335563 58.0749164 36.6214158 0.08302226 36.6214152" transform="matrix(-1 0 0 1 724.63 63.827)"/>
      <path d="M41.6357405,30.0890761 L41.5157969,30.0890761 L41.5157969,63.951578 L74.8601374,63.951578 L74.8601374,30.0890761 L74.7401937,30.0890761 L58.1879671,9.32007494 L41.6357405,30.0890761 Z" fill="#A7DBD8" transform="matrix(-1 0 0 1 724.63 63.827)"/>
      <ellipse fill="#D8D8D8" cx="4.48645243" cy="4.41216314" rx="4.48645243" ry="4.41216314" transform="matrix(-1 0 0 1 670.466 86.256)" stroke="#979797"/>
      <path fill="#828282" style="mix-blend-mode: color-burn;" transform="translate(596.61 63.827)" d="M53.0595702 31.748667L69.8861298 6.38260196 74.9609565 14.3029615 53.0595702 44.4560996"/>
      <g>
        <path fill="#E0E4CC" d="M0.02190416 0H10.70873466V11.5013691H0.02190416z" transform="matrix(-1 0 0 1 706.38 107.772)"/>
        <g transform="matrix(-1 0 0 1 706.38 107.772)">
          <use fill-opacity=".5" fill="#D2FFFA" fill-rule="evenodd" xlink:href="#n"/>
          <use stroke="#924715" mask="url(#L)" stroke-width="2" xlink:href="#n"/>
        </g>
      </g>
      <g fill="#F38630">
        <path d="M21.8273472,0 L43.6546944,32.5693058 L0,32.5693058 L21.8273472,0 L21.8273472,0 Z M21.8273472,12.4185123 L35.1135585,32.5693058 L8.54113586,32.5693058 L21.8273472,12.4185123 L21.8273472,12.4185123 Z" transform="matrix(-1 0 0 1 688.31 63.8)"/>
      </g>
      <g transform="matrix(-1 0 0 1 671.272 110.647)" stroke="#745A5A" stroke-width="2.4" fill="#764030">
        <use mask="url(#M)" xlink:href="#o"/>
      </g>
    </g>
    <g>
      <path d="M0 0H64.7736833V27.3602849H0z" transform="translate(766.473 100.81)" fill="#A7DBD8"/>
      <use stroke="#745A5A" mask="url(#N)" stroke-width="2.4" fill="#764030" xlink:href="#p" transform="translate(794.938 110.407)"/>
      <path fill="#828282" style="mix-blend-mode: color-burn;" d="M7.49363685 25.6664531H72.45839295V34.85425399H7.49363685z" transform="translate(758.728 80.31)"/>
      <path fill="#FA6900" d="M8.93563948 0.39902583L71.7560511 0.39902583 79.8475369 25.6664531 0.10449294 25.6664531" transform="translate(758.728 80.31)"/>
      <path fill="#E0E4CC" d="M0.14526913 0.07786272H7.87695117V9.109938170000001H0.14526913z" transform="translate(777.272 110.674)"/>
      <g transform="translate(777.272 110.674)">
        <use fill-opacity=".5" fill="#D2FFFA" fill-rule="evenodd" xlink:href="#q"/>
        <use stroke="#924715" mask="url(#O)" stroke-width="2" xlink:href="#q"/>
      </g>
      <g>
        <path fill="#E0E4CC" d="M0.0156899 0H7.67064407V8.94244271H0.0156899z" transform="translate(814.57 110.674)"/>
        <g transform="translate(814.57 110.674)">
          <use fill-opacity=".5" fill="#D2FFFA" fill-rule="evenodd" xlink:href="#r"/>
          <use stroke="#924715" mask="url(#P)" stroke-width="2" xlink:href="#r"/>
        </g>
      </g>
    </g>
    <g>
      <path d="M0 0H67.2026964V27.3602849H0z" transform="translate(1115.484 100.81)" fill="#A7DBD8"/>
      <use stroke="#745A5A" mask="url(#Q)" stroke-width="2.4" fill="#764030" xlink:href="#s" transform="translate(1145.016 110.407)"/>
      <path fill="#828282" style="mix-blend-mode: color-burn;" d="M7.43584408 25.6664531H74.83677858V34.85425399H7.43584408z" transform="translate(1107.448 80.31)"/>
      <path fill="#FA6900" d="M9.27072596 0.10209061L74.446903 0.10209061 82.8418195 25.3695179 0.10841143 25.3695179" transform="translate(1107.448 80.31)"/>
      <path fill="#E0E4CC" d="M0.15071673 0.07786272H8.17233684V9.109938170000001H0.15071673z" transform="translate(1126.687 110.674)"/>
      <g transform="translate(1126.687 110.674)">
        <use fill-opacity=".5" fill="#D2FFFA" fill-rule="evenodd" xlink:href="#t"/>
        <use stroke="#924715" mask="url(#R)" stroke-width="2" xlink:href="#t"/>
      </g>
      <g>
        <path fill="#E0E4CC" d="M0.01627828 0H7.95829323V8.94244271H0.01627828z" transform="translate(1165.383 110.674)"/>
        <g transform="translate(1165.383 110.674)">
          <use fill-opacity=".5" fill="#D2FFFA" fill-rule="evenodd" xlink:href="#u"/>
          <use stroke="#924715" mask="url(#S)" stroke-width="2" xlink:href="#u"/>
        </g>
      </g>
    </g>
    <g>
      <path fill="#69D2E7" d="M0 33.5853465H104.929536V69.86905709999999H0z" transform="translate(389 58)"/>
      <path fill="#828282" style="mix-blend-mode: color-burn;" d="M0 63.1070928H104.929536V69.92403236H0z" transform="translate(389 58)"/>
      <path fill="#FA6900" d="M21.1914409 3.01906911L86.4675027 3.01906911 104.929536 33.5853465 0 33.5853465" transform="translate(389 58)"/>
      <path d="M0.217401381,26.246219 L0.086411083,26.246219 L0.086411083,63.3654308 L36.5017139,63.3654308 L36.5017139,26.246219 L36.3707236,26.246219 L18.2940625,3.47976903 L0.217401381,26.246219 Z" fill="#A7DBD8" transform="translate(423.215 64.58)"/>
      <path d="M0.0550522222,11.1499582 L9.41393,11.1499582 C9.41393,11.1499582 9.41392969,5.29521104 9.41392969,4.998345 C9.41392969,2.26575239 7.3188736,0.0505484027 4.73449095,0.0505484027 C2.15010831,0.0505484027 0.0550522222,2.26575239 0.0550522222,4.998345 L0.0550522222,11.1499582 Z" fill="#ABD3FA" transform="translate(435.464 86.134)" stroke="#979797" stroke-width=".75"/>
      <path fill="#828282" style="mix-blend-mode: color-burn;" d="M0.13797899 27.8609124L18.5142387 0.04060073 24.0564492 8.72728002 0.13797899 41.7978291" transform="translate(423.215 64.58)"/>
      <g fill="#F38630">
        <path d="M23.8376122,0 L47.6752245,34.4096576 L0,34.4096576 L23.8376122,0 L23.8376122,0 Z M23.8376122,13.1202292 L38.3474631,34.4096576 L9.32776131,34.4096576 L23.8376122,13.1202292 L23.8376122,13.1202292 Z" transform="translate(417.627 58.055)"/>
      </g>
      <g transform="translate(435.464 109.765)">
        <use stroke="#745A5A" mask="url(#T)" stroke-width="1.8" fill="#764030" xlink:href="#v"/>
      </g>
      <g>
        <path fill="#E0E4CC" d="M0.0239215 0H11.6949926V12.754274H0.0239215z" transform="translate(469.573 105.384)"/>
        <g transform="translate(469.573 105.384)">
          <use fill-opacity=".5" fill="#D2FFFA" fill-rule="evenodd" xlink:href="#w"/>
          <use stroke="#924715" mask="url(#U)" stroke-width="1.5" xlink:href="#w"/>
        </g>
      </g>
      <g>
        <path fill="#E0E4CC" d="M0.0239215 0H11.6949926V12.754274H0.0239215z" transform="translate(399 105)"/>
        <g transform="translate(399 105)">
          <use fill-opacity=".5" fill="#D2FFFA" fill-rule="evenodd" xlink:href="#x"/>
          <use stroke="#924715" mask="url(#V)" stroke-width="1.5" xlink:href="#x"/>
        </g>
      </g>
    </g>
  </g>
</svg>
